<svg viewBox="0 0 330 200" xmlns="http://www.w3.org/2000/svg"><g><g><g><g><g><line x1="50" y1="177" x2="45" y2="177" style="visibility: inherit;" fill="rgb(0, 0, 0)" stroke="rgb(204, 204, 204)" stroke-width="1px"></line><line x1="50" y1="151.71428571428572" x2="45" y2="151.71428571428572" style="visibility: inherit;" fill="rgb(0, 0, 0)" stroke="rgb(204, 204, 204)" stroke-width="1px"></line><line x1="50" y1="126.42857142857142" x2="45" y2="126.42857142857142" style="visibility: inherit;" fill="rgb(0, 0, 0)" stroke="rgb(204, 204, 204)" stroke-width="1px"></line><line x1="50" y1="101.14285714285714" x2="45" y2="101.14285714285714" style="visibility: inherit;" fill="rgb(0, 0, 0)" stroke="rgb(204, 204, 204)" stroke-width="1px"></line><line x1="50" y1="75.85714285714286" x2="45" y2="75.85714285714286" style="visibility: inherit;" fill="rgb(0, 0, 0)" stroke="rgb(204, 204, 204)" stroke-width="1px"></line><line x1="50" y1="50.57142857142855" x2="45" y2="50.57142857142855" style="visibility: inherit;" fill="rgb(0, 0, 0)" stroke="rgb(204, 204, 204)" stroke-width="1px"></line><line x1="50" y1="25.285714285714313" x2="45" y2="25.285714285714313" style="visibility: inherit;" fill="rgb(0, 0, 0)" stroke="rgb(204, 204, 204)" stroke-width="1px"></line><line x1="50" y1="0" x2="45" y2="0" style="visibility: inherit;" fill="rgb(0, 0, 0)" stroke="rgb(204, 204, 204)" stroke-width="1px"></line></g><g transform="translate(40, 0)"><text x="0" y="177" dx="0em" dy="0.3em" style="text-anchor: end; visibility: hidden; font-family: Roboto, sans-serif; font-size: 12px; font-weight: 200;" fill="rgb(33, 33, 33)" stroke="none" stroke-width="1px">0.3</text><text x="0" y="151.71428571428572" dx="0em" dy="0.3em" style="text-anchor: end; visibility: inherit; font-family: Roboto, sans-serif; font-size: 12px; font-weight: 200;" fill="rgb(33, 33, 33)" stroke="none" stroke-width="1px">0.35</text><text x="0" y="126.42857142857142" dx="0em" dy="0.3em" style="text-anchor: end; visibility: inherit; font-family: Roboto, sans-serif; font-size: 12px; font-weight: 200;" fill="rgb(33, 33, 33)" stroke="none" stroke-width="1px">0.4</text><text x="0" y="101.14285714285714" dx="0em" dy="0.3em" style="text-anchor: end; visibility: inherit; font-family: Roboto, sans-serif; font-size: 12px; font-weight: 200;" fill="rgb(33, 33, 33)" stroke="none" stroke-width="1px">0.45</text><text x="0" y="75.85714285714286" dx="0em" dy="0.3em" style="text-anchor: end; visibility: inherit; font-family: Roboto, sans-serif; font-size: 12px; font-weight: 200;" fill="rgb(33, 33, 33)" stroke="none" stroke-width="1px">0.5</text><text x="0" y="50.57142857142855" dx="0em" dy="0.3em" style="text-anchor: end; visibility: inherit; font-family: Roboto, sans-serif; font-size: 12px; font-weight: 200;" fill="rgb(33, 33, 33)" stroke="none" stroke-width="1px">0.55</text><text x="0" y="25.285714285714313" dx="0em" dy="0.3em" style="text-anchor: end; visibility: inherit; font-family: Roboto, sans-serif; font-size: 12px; font-weight: 200;" fill="rgb(33, 33, 33)" stroke="none" stroke-width="1px">0.6</text><text x="0" y="0" dx="0em" dy="0.3em" style="text-anchor: end; visibility: hidden; font-family: Roboto, sans-serif; font-size: 12px; font-weight: 200;" fill="rgb(33, 33, 33)" stroke="none" stroke-width="1px">0.65</text></g><line x1="50" y1="0" x2="50" y2="177" fill="rgb(0, 0, 0)" stroke="rgb(204, 204, 204)" stroke-width="1px"></line></g></g><g transform="translate(50, 0)" clip-path="url(#clip_0)"><clipPath id="clip_0"><rect width="280" height="177"></rect></clipPath><g><g><g><line x1="0" y1="0" x2="0" y2="177" fill="rgb(0, 0, 0)" stroke="rgb(66, 66, 66)" stroke-width="1px" opacity="0.25"></line><line x1="23.333333333333332" y1="0" x2="23.333333333333332" y2="177" fill="rgb(0, 0, 0)" stroke="rgb(66, 66, 66)" stroke-width="1px" opacity="0.25"></line><line x1="46.666666666666664" y1="0" x2="46.666666666666664" y2="177" fill="rgb(0, 0, 0)" stroke="rgb(66, 66, 66)" stroke-width="1px" opacity="0.25"></line><line x1="70" y1="0" x2="70" y2="177" fill="rgb(0, 0, 0)" stroke="rgb(66, 66, 66)" stroke-width="1px" opacity="0.25"></line><line x1="93.33333333333333" y1="0" x2="93.33333333333333" y2="177" fill="rgb(0, 0, 0)" stroke="rgb(66, 66, 66)" stroke-width="1px" opacity="0.25"></line><line x1="116.66666666666667" y1="0" x2="116.66666666666667" y2="177" fill="rgb(0, 0, 0)" stroke="rgb(66, 66, 66)" stroke-width="1px" opacity="0.25"></line><line x1="140" y1="0" x2="140" y2="177" fill="rgb(0, 0, 0)" stroke="rgb(66, 66, 66)" stroke-width="1px" opacity="0.25"></line><line x1="163.33333333333334" y1="0" x2="163.33333333333334" y2="177" fill="rgb(0, 0, 0)" stroke="rgb(66, 66, 66)" stroke-width="1px" opacity="0.25"></line><line x1="186.66666666666666" y1="0" x2="186.66666666666666" y2="177" fill="rgb(0, 0, 0)" stroke="rgb(66, 66, 66)" stroke-width="1px" opacity="0.25"></line><line x1="210" y1="0" x2="210" y2="177" fill="rgb(0, 0, 0)" stroke="rgb(66, 66, 66)" stroke-width="1px" opacity="0.25"></line><line x1="233.33333333333334" y1="0" x2="233.33333333333334" y2="177" fill="rgb(0, 0, 0)" stroke="rgb(66, 66, 66)" stroke-width="1px" opacity="0.25"></line><line x1="256.66666666666663" y1="0" x2="256.66666666666663" y2="177" fill="rgb(0, 0, 0)" stroke="rgb(66, 66, 66)" stroke-width="1px" opacity="0.25"></line><line x1="280" y1="0" x2="280" y2="177" fill="rgb(0, 0, 0)" stroke="rgb(66, 66, 66)" stroke-width="1px" opacity="0.25"></line></g><g><line x1="0" y1="177" x2="280" y2="177" fill="rgb(0, 0, 0)" stroke="rgb(66, 66, 66)" stroke-width="1px" opacity="0.25"></line><line x1="0" y1="151.71428571428572" x2="280" y2="151.71428571428572" fill="rgb(0, 0, 0)" stroke="rgb(66, 66, 66)" stroke-width="1px" opacity="0.25"></line><line x1="0" y1="126.42857142857142" x2="280" y2="126.42857142857142" fill="rgb(0, 0, 0)" stroke="rgb(66, 66, 66)" stroke-width="1px" opacity="0.25"></line><line x1="0" y1="101.14285714285714" x2="280" y2="101.14285714285714" fill="rgb(0, 0, 0)" stroke="rgb(66, 66, 66)" stroke-width="1px" opacity="0.25"></line><line x1="0" y1="75.85714285714286" x2="280" y2="75.85714285714286" fill="rgb(0, 0, 0)" stroke="rgb(66, 66, 66)" stroke-width="1px" opacity="0.25"></line><line x1="0" y1="50.57142857142855" x2="280" y2="50.57142857142855" fill="rgb(0, 0, 0)" stroke="rgb(66, 66, 66)" stroke-width="1px" opacity="0.25"></line><line x1="0" y1="25.285714285714313" x2="280" y2="25.285714285714313" fill="rgb(0, 0, 0)" stroke="rgb(66, 66, 66)" stroke-width="1px" opacity="0.25"></line><line x1="0" y1="0" x2="280" y2="0" fill="rgb(0, 0, 0)" stroke="rgb(66, 66, 66)" stroke-width="1px" opacity="0.25"></line></g></g></g><g><g><line x1="0" y1="328.71428571428567" x2="280" y2="328.71428571428567" fill="rgb(0, 0, 0)" stroke="rgb(153, 153, 153)" stroke-width="1.5px"></line></g></g><g><g><line x1="23.333333333333332" y1="0" x2="23.333333333333332" y2="177" fill="rgb(0, 0, 0)" stroke="rgb(153, 153, 153)" stroke-width="1.5px"></line></g></g><g><g><g><g><g><path stroke="rgb(0, 119, 187)" stroke-width="2px" d="M26.833333333333336,-2.9083118771805205L28,0.413207297756806L29.166666666666668,5.394083195281806L30.333333333333336,10.892005863151116L31.5,15.739196519348187L32.666666666666664,20.655643690050542L33.833333333333336,25.29005321258766L35,29.934851319023537L36.16666666666667,34.56749891407178L37.333333333333336,38.89738193676019L38.5,42.58677196279308L39.666666666666664,45.27422873196645L40.833333333333336,47.29155115097157L42,51.955253458572706L43.16666666666667,56.29508124916993L44.33333333333333,59.989477837024644L45.5,63.40899552821285L46.666666666666664,66.8950868309747L47.833333333333336,68.99578389293156L49,72.2259192634317L50.166666666666664,75.28772961251005L51.33333333333333,77.63791887167108L52.5,80.42081745731751L53.66666666666667,82.14443108153836L54.833333333333336,84.76303156572585L56,86.96105528697697L57.166666666666664,88.9410963057246L58.333333333333336,90.76484094007807L59.5,92.59957860631198L60.66666666666667,94.37354269925297L61.83333333333333,95.62652535888576L63,97.08054853075424L64.16666666666666,96.88804920215604L65.33333333333333,98.82190045965537L66.5,100.48339151656218L67.66666666666667,101.40950454101588L68.83333333333333,103.07141753297907L70,104.49784874164769L71.16666666666666,105.26338119092891L72.33333333333334,106.78958521229939L73.5,107.94689107438145L74.66666666666667,108.6722976851379L75.83333333333333,109.44127803718229L77,110.43784777076758L78.16666666666667,111.427593318299L79.33333333333333,111.95152112874065L80.5,112.73169444904677L81.66666666666667,112.80318995232422L82.83333333333333,113.69786589776474L84,114.34631481344897L85.16666666666666,114.22354531801398L86.33333333333334,115.06439571007424L87.5,116.19381691300084L88.66666666666666,117.00241650937515L89.83333333333334,117.63706103783821L91,118.60157143622969L92.16666666666667,117.98958409245724L93.33333333333333,119.05914192788214L94.5,119.86222565322849L95.66666666666667,120.32672562347834L96.83333333333333,120.63117971678197L98,121.150108506524L99.16666666666667,121.00923757482461L100.33333333333333,121.90321449646117L101.5,122.71041067452205L102.66666666666666,123.25397127702986L103.83333333333334,123.2066850839735L105,123.93778233230763L106.16666666666666,123.9887665540019L107.33333333333334,124.54108280974009L108.5,124.98286196611753L109.66666666666667,124.00582411217435L110.83333333333333,124.92183412168217L112,126.0674802059587L113.16666666666667,126.05781282324956L114.33333333333333,126.61448531608545L115.5,127.11974882809209L116.66666666666667,127.9879781774923L117.83333333333333,128.8945462244384L119,129.46093749968858L120.16666666666666,129.66720898473312L121.33333333333334,130.18753816457163L122.5,130.70138578108464L123.66666666666666,130.7950164722039L124.83333333333334,130.80405738801988L126,130.3593215363014L127.16666666666667,131.16573076177934L128.33333333333331,131.84517973585224L129.5,131.64062229349193L130.66666666666666,132.4469107192566L131.83333333333334,133.1857712525357L133,133.6350016134773L134.16666666666669,134.1377556048509L135.33333333333334,134.37961650285325L136.5,134.6602194400791L137.66666666666666,135.2238754599873L138.83333333333334,135.58368757441292L140,136.13039339399555L141.16666666666666,136.35234997758997L142.33333333333331,136.9357084432909L143.5,136.08664417946068L144.66666666666669,136.86790135654897L145.83333333333334,137.02624386895695L147,137.84047754189197L148.16666666666666,137.92808073338935L149.33333333333334,137.8611741977415L150.5,138.1938258581704L151.66666666666666,139.16242303859698L152.83333333333331,139.2027751555447L154,139.916590129076L155.16666666666669,140.48186060046896L156.33333333333334,140.81252257976382L157.5,140.87201516174773L158.66666666666666,140.8590540088964L159.83333333333331,141.39015436159093L161,141.80481977454733L162.16666666666669,142.25420810013446L163.33333333333334,142.36938877157317L164.5,143.04573233362913L165.66666666666666,143.65324886531334L166.83333333333334,144.15872516566932L168,144.48825337234643L169.16666666666666,144.54259248137862L170.33333333333331,145.26183961538138L171.5,145.59533900444308L172.66666666666669,146.10656180464557L173.83333333333334,146.32130532041901L175,146.37568033084696L176.16666666666666,146.9493888432792L177.33333333333331,146.84341134944196L178.5,147.0272620577731L179.66666666666669,147.6977846862063L180.83333333333334,147.85976875925317L182,148.37758557092272L183.16666666666666,147.62155387796494L184.33333333333334,148.12330266576387L185.5,148.8192543380513L186.66666666666666,148.36461582653334L187.83333333333331,148.96299928946857L189,149.91755098757145L190.16666666666669,149.48369535258752L191.33333333333334,150.46718738007493L192.5,150.55612037411385L193.66666666666666,151.2704239852236L194.83333333333331,151.89930585766726L196,151.56547306113092L197.16666666666669,152.03005386329426L198.33333333333334,152.41289187717192L199.5,152.62359861708902L200.66666666666666,153.17989687684653L201.83333333333334,152.88895777970072L203,153.70283493720342L204.16666666666666,154.15359712435514L205.33333333333331,154.8574674313034L206.5,155.0738109834991L207.66666666666669,155.21228019012733L208.83333333333334,155.8166473501887L210,155.8124946198954L211.16666666666666,155.93988279695733L212.33333333333331,156.43177557448655L213.5,156.35211416927473L214.66666666666669,156.3886270743885L215.83333333333334,156.5644023687154L217,154.94850784960448L218.16666666666666,156.18279841709258L219.33333333333334,156.75995592915743L220.5,157.78786626586415L221.66666666666666,158.66166526411573L222.83333333333331,158.1718403648838L224,157.9447662511939L225.16666666666669,158.81237748824117L226.33333333333334,159.03864081326375L227.5,160.10013612113914L228.66666666666666,160.68917840550426L229.83333333333331,160.8331165082204L231,161.37742267309457L232.16666666666669,161.7034457137004L233.33333333333334,161.00644929467532L234.5,160.26452250720112L235.66666666666666,161.33464501252118L236.83333333333334,162.2743798542469L238,162.6745085302348L239.16666666666666,162.32813713451358L240.33333333333331,162.20811459549913L241.5,162.98106741556145L242.66666666666669,162.96741744921917L243.83333333333334,163.88796701714327L245,162.20230549300953L246.16666666666666,163.14024520948675L247.33333333333331,163.69212141653983L248.5,164.5821873129671L249.66666666666669,165.08832053515619L250.83333333333334,165.79024270365335L252,165.90748302453576L253.16666666666666,166.27580807055466L254.33333333333334,165.13480127038105L255.5,165.67408415698222" style="fill: none;" fill="none"></path></g><g><path stroke="rgb(255, 112, 67)" stroke-width="2px" d="M29.166666666666668,-1.1967584735569405L30.333333333333336,2.7952692423424947L31.5,6.432830357821501L32.666666666666664,10.645477759352975L33.833333333333336,14.580734231276352L35,18.09355849912814L36.16666666666667,22.364261113120357L37.333333333333336,25.29347711731638L38.5,29.06812304795178L39.666666666666664,32.465369891732884L40.833333333333336,35.64609780766029L42,37.65891147537762L43.16666666666667,40.35619603408063L44.33333333333333,43.519418770110484L45.5,46.553007580894175L46.666666666666664,49.086069988856096L47.833333333333336,51.17350670300837L49,54.2890274248201L50.166666666666664,57.355208692499176L51.33333333333333,60.29510376130174L52.5,61.723700920905806L53.66666666666667,64.09498632497716L54.833333333333336,65.92681980894271L56,67.38093056898688L57.166666666666664,68.84462005271895L58.333333333333336,70.46900354254609L59.5,72.40396290323845L60.66666666666667,74.10363463370273L61.83333333333333,75.38735698108393L63,76.9735954055922L64.16666666666666,77.88641187509366L65.33333333333333,80.03157405369136L66.5,80.33759766265588L67.66666666666667,83.10873437384579L68.83333333333333,84.09750509668329L70,84.76863875005476L71.16666666666666,86.72226262365146L72.33333333333334,88.37627152926699L73.5,90.19544894921694L74.66666666666667,91.05253993792195L75.83333333333333,90.73216118066358L77,91.62508508782827L78.16666666666667,92.22394062158425L79.33333333333333,93.07716377765128L80.5,93.39201722939893L81.66666666666667,94.9414782394762L82.83333333333333,96.21682782759837L84,97.94518225749691L85.16666666666666,98.87973310055364L86.33333333333334,98.65053823548897L87.5,99.58714016906606L88.66666666666666,101.50025773425257L89.83333333333334,103.66500572022014L91,104.28877969605031L92.16666666666667,103.91290736552315L93.33333333333333,104.7025734105227L94.5,104.81552008075055L95.66666666666667,105.65064243502083L96.83333333333333,105.94558650100797L98,107.86264947560173L99.16666666666667,108.2303047048596L100.33333333333333,109.51768593679867L101.5,110.2264528281663L102.66666666666666,110.62979905988676L103.83333333333334,110.67386426951313L105,111.41602292484964L106.16666666666666,112.95650084341295L107.33333333333334,112.13233544202625L108.5,112.81699107408855L109.66666666666667,113.81048930393145L110.83333333333333,115.11237266484788L112,114.32476864863057L113.16666666666667,114.04952782414668L114.33333333333333,115.61228403888107L115.5,116.84418692767086L116.66666666666667,116.5826078194007L117.83333333333333,118.61673114949782L119,119.56002290911354L120.16666666666666,119.72032248553901L121.33333333333334,120.23539839560719L122.5,121.66298743028686L123.66666666666666,121.81111590826062L124.83333333333334,121.31787291709426L126,120.9469556508804L127.16666666666667,121.08627105004797L128.33333333333331,122.13684517462805L129.5,123.62638345125596L130.66666666666666,123.91039350998652L131.83333333333334,125.46895337071231L133,125.83110854264962L134.16666666666669,126.42737652630305L135.33333333333334,125.41395998375316L136.5,126.4634873344531L137.66666666666666,127.04867662292047L138.83333333333334,127.48882032556982L140,128.24650289660312L141.16666666666666,129.45949022967417L142.33333333333331,129.51571042111226L143.5,129.1694729391123L144.66666666666669,129.47589632820825L145.83333333333334,130.6469671748895L147,131.05309980392227L148.16666666666666,132.49544878087588L149.33333333333334,131.51083040150152L150.5,131.85183129939438L151.66666666666666,132.90511781797326L152.83333333333331,133.66009092993275L154,133.83919019415308L155.16666666666669,135.15237862416703L156.33333333333334,135.0859147189687L157.5,135.29648184393486L158.66666666666666,134.02372038475315L159.83333333333331,136.22788119042045L161,137.20014105359903L162.16666666666669,137.6509284077724L163.33333333333334,137.53812153075833L164.5,137.97220248541058L165.66666666666666,138.10947502845164L166.83333333333334,138.24435957870776L168,139.58619881035025L169.16666666666666,139.66798680384497L170.33333333333331,140.59283803660253L171.5,140.84308222303227L172.66666666666669,142.53766154526474L173.83333333333334,141.73038265615838L175,142.35299598708406L176.16666666666666,143.61640710893917L177.33333333333331,142.93898762877117L178.5,142.05887009016726L179.66666666666669,143.68422788312128L180.83333333333334,144.12578023971034L182,144.416592365083L183.16666666666666,145.41975072103216L184.33333333333334,144.81477143214624L185.5,144.88928423347252L186.66666666666666,145.57656663328854L187.83333333333331,145.8534557033378L189,146.9540076192923L190.16666666666669,146.90953700505798L191.33333333333334,147.20523316974447L192.5,148.49350188391978L193.66666666666666,147.34851129014405L194.83333333333331,148.09178041910596L196,148.78816325023195L197.16666666666669,148.66884007954678L198.33333333333334,149.6258853915151L199.5,149.50833858506778L200.66666666666666,150.10627798880705L201.83333333333334,151.86211776096394L203,152.5244328324381L204.16666666666666,153.01782104807825L205.33333333333331,154.0584624818939L206.5,154.10957722564976L207.66666666666669,153.94865767010884L208.83333333333334,153.28816203980946L210,153.60393689782714L211.16666666666666,155.15219040511258L212.33333333333331,154.99775772315044L213.5,155.06504850656003L214.66666666666669,154.76309585868586L215.83333333333334,154.70100689112707L217,156.01361979864063L218.16666666666666,156.98253338060564L219.33333333333334,156.71967478790665L220.5,156.7981896991317L221.66666666666666,157.33512110168158L222.83333333333331,158.86068780982575L224,159.64678102080188L225.16666666666669,159.288162263299L226.33333333333334,159.24543865616448L227.5,160.63828812383525L228.66666666666666,161.0045218198643L229.83333333333331,160.22863534947822L231,161.77284651060117L232.16666666666669,161.21825258681986L233.33333333333334,161.59408997573908L234.5,161.76658306934934L235.66666666666666,162.8876195166192L236.83333333333334,163.24866607441027L238,163.37159775544458L239.16666666666666,163.3105154241364L240.33333333333331,163.91357716693784L241.5,163.99262539098956L242.66666666666669,164.31827950890752L243.83333333333334,165.04852192990376L245,164.5585487789314L246.16666666666666,164.2779362878187L247.33333333333331,165.10606962584498L248.5,165.38561314429666L249.66666666666669,166.006049747638L250.83333333333334,168.34536032060254L252,168.5051774274079L253.16666666666666,167.6876407473034L254.33333333333334,168.28540476442427L255.5,168.36628410643115" style="fill: none;" fill="none"></path></g></g></g></g><g opacity="0.2"><g><g><g><path stroke="rgb(0, 119, 187)" stroke-width="2px" d="M25.666666666666664,-3.6845379556928304L26.833333333333336,2.1448014123099357L28,4.74978273255485L29.166666666666668,12.28442767688208L30.333333333333336,18.754123244966795L31.5,22.80644702911377L32.666666666666664,27.906448296138223L33.833333333333336,32.171611240931924L35,36.859920501708984L36.16666666666667,41.49125964300975L37.333333333333336,45.37806865147182L38.5,48.11362910270691L39.666666666666664,49.30225488117763L40.833333333333336,50.316112007413594L42,58.94883339745658L43.16666666666667,62.80372105325972L44.33333333333333,65.53050991467067L45.5,68.53795950753349L46.666666666666664,72.1240325995854L47.833333333333336,72.14676036153521L49,77.0710585457938L50.166666666666664,79.8804088660649L51.33333333333333,81.16318605627333L52.5,84.59515346799579L53.66666666666667,84.72984710761479L54.833333333333336,88.6909282718386L56,90.25808884416307L57.166666666666664,91.9111567395074L58.333333333333336,93.50045728683472L59.5,95.35168474061149L60.66666666666667,97.03448862688882L61.83333333333333,97.50599925858634L63,99.26158322606767L64.16666666666666,96.5993002142225L65.33333333333333,101.72267731598446L66.5,102.9756280864988L67.66666666666667,102.7986740725381L68.83333333333333,105.56428701536996L70,106.63749555179051L71.16666666666666,106.41167986392975L72.33333333333334,109.07889124325344L73.5,109.68284986700331L74.66666666666667,109.76040760108403L75.83333333333333,110.59474856512887L77,111.93270237105233L78.16666666666667,112.91221163954054L79.33333333333333,112.73741284438542L80.5,113.90195442949022L81.66666666666667,112.91043320723942L82.83333333333333,115.03987981591905L84,115.31898818697249L85.16666666666666,114.0393910748618L86.33333333333334,116.32567129816329L87.5,117.88794871738979L88.66666666666666,118.21531590393612L89.83333333333334,118.58902783053261L91,120.04833703381675L92.16666666666667,117.07160307679857L93.33333333333333,120.66347868101937L94.5,121.066851241248L95.66666666666667,121.02347557885307L96.83333333333333,121.08786085673741L98,121.92850169113704L99.16666666666667,120.79793117727553L100.33333333333333,123.24417987891606L101.5,123.92120494161333L102.66666666666666,124.06931218079158L103.83333333333334,123.1357557943889L105,125.03442820480892L106.16666666666666,124.06524288654327L107.33333333333334,125.36955719334739L108.5,125.6455307006836L109.66666666666667,122.5402673312596L110.83333333333333,126.29584913594383L112,127.78594933237349L113.16666666666667,126.04331174918583L114.33333333333333,127.44949405533927L115.5,127.87764409610203L116.66666666666667,129.29032220159257L117.83333333333333,130.25439829485757L119,130.31052441256386L120.16666666666666,129.9766162122999L121.33333333333334,130.96803193432945L122.5,131.47215720585416L123.66666666666666,130.93546250888278L124.83333333333334,130.8176187617438L126,129.69221775872367L127.16666666666667,132.3753445999963L128.33333333333331,132.86435319696153L129.5,131.33378612995148L130.66666666666666,133.6563433579036L131.83333333333334,134.29406205245425L133,134.3088471548898L134.16666666666669,134.89188659191132L135.33333333333334,134.7424078498568L136.5,135.08112384591783L137.66666666666666,136.06935948984963L138.83333333333334,136.12340574605125L140,136.95045212336947L141.16666666666666,136.68528485298157L142.33333333333331,137.81074614184243L143.5,134.81304778371538L144.66666666666669,138.03978712218148L145.83333333333334,137.2637576375689L147,139.06182805129458L148.16666666666666,138.05948552063535L149.33333333333334,137.7608143942697L150.5,138.69280334881375L151.66666666666666,140.61531880923678L152.83333333333331,139.2633033309664L154,140.9873125893729L155.16666666666669,141.32976630755832L156.33333333333334,141.30851554870605L157.5,140.96125403472354L158.66666666666666,140.83961227961947L159.83333333333331,142.18680489063263L161,142.42681789398193L162.16666666666669,142.92829058851513L163.33333333333334,142.5421597787312L164.5,144.06024767671312L165.66666666666666,144.56452366283963L166.83333333333334,144.9169396162033L168,144.98254568236214L169.16666666666666,144.62410114492687L170.33333333333331,146.34071031638553L171.5,146.09558808803558L172.66666666666669,146.8733960049493L173.83333333333334,146.64342059407915L175,146.45724284648895L176.16666666666666,147.80995161192757L177.33333333333331,146.6844451086862L178.5,147.30303812026978L179.66666666666669,148.70356862885612L180.83333333333334,148.10274486882346L182,149.1543107884271L183.16666666666666,146.48750633852822L184.33333333333334,148.87592584746224L185.5,149.8631818464824L186.66666666666666,147.6826580592564L187.83333333333331,149.86057448387146L189,151.34937853472573L190.16666666666669,148.8329119001116L191.33333333333334,151.94242542130607L192.5,150.68951986517223L193.66666666666666,152.34187940188815L194.83333333333331,152.84262866633279L196,151.06472386632646L197.16666666666669,152.72692506653922L198.33333333333334,152.98714889798845L199.5,152.9396587269647L200.66666666666666,154.01434426648277L201.83333333333334,152.45254913398196L203,154.92365067345756L204.16666666666666,154.8297404050827L205.33333333333331,155.9132728917258L206.5,155.39832631179263L207.66666666666669,155.41998400006975L208.83333333333334,156.7231980902808L210,155.80626552445548L211.16666666666666,156.13096506255013L212.33333333333331,157.16961474078042L213.5,156.23262206145694L214.66666666666669,156.44339643205913L215.83333333333334,156.82806531020572L217,152.5246660709381L218.16666666666666,158.0342342683247L219.33333333333334,157.62569219725472L220.5,159.32973177092416L221.66666666666666,159.97236376149314L222.83333333333331,157.43710301603588L224,157.60415508065904L225.16666666666669,160.11379434381212L226.33333333333334,159.3780358007976L227.5,161.69237908295224L228.66666666666666,161.57274183205197L229.83333333333331,161.04902366229464L231,162.1938819204058L232.16666666666669,162.19248027460915L233.33333333333334,159.9609546661377L234.5,159.15163232598985L235.66666666666666,162.93982877050126L236.83333333333334,163.68398211683544L238,163.2747015442167L239.16666666666666,161.8085800409317L240.33333333333331,162.0280807869775L241.5,164.14049664565493L242.66666666666669,162.94694249970573L243.83333333333334,165.26879136902946L245,159.6738132068089L246.16666666666666,164.54715478420258L247.33333333333331,164.51993572711945L248.5,165.91728615760803L249.66666666666669,165.8475203684398L250.83333333333334,166.8431259563991L252,166.08334350585938L253.16666666666666,166.82829563958305L254.33333333333334,163.42329107012065L255.5,166.48300848688396" style="fill: none;" fill="none"></path></g><g><path stroke="rgb(255, 112, 67)" stroke-width="2px" d="M28,-0.08152454239982077L29.166666666666668,4.737514563969217L30.333333333333336,8.503932748522095L31.5,11.73642938477653L32.666666666666664,16.858314411980775L33.833333333333336,20.424131461552225L35,23.33093384334021L36.16666666666667,28.747074059077676L37.333333333333336,29.677736725125996L38.5,34.722697019577026L39.666666666666664,37.55724682126727L40.833333333333336,40.41494638579234L42,40.67728022166663L43.16666666666667,44.40143803187779L44.33333333333333,48.263770989009316L45.5,51.103113515036455L46.666666666666664,52.88552468163627L47.833333333333336,54.304593086242676L49,58.962246997015825L50.166666666666664,61.95444427217757L51.33333333333333,64.70492546898979L52.5,63.86659056799754L53.66666666666667,67.65190836361477L54.833333333333336,68.67456722259521L56,69.56209536961147L57.166666666666664,71.04015346935817L58.333333333333336,72.90557823862349L59.5,75.30640155928475L60.66666666666667,76.65314202649253L61.83333333333333,77.3129404102053L63,79.35295297418322L64.16666666666666,79.25563655580794L65.33333333333333,83.24931728839874L66.5,80.7966330732618L67.66666666666667,87.26543942519596L68.83333333333333,85.58066117763519L70,85.77533922876631L71.16666666666666,89.65269843169622L72.33333333333334,90.85728488649642L73.5,92.92421507835388L74.66666666666667,92.33817642075675L75.83333333333333,90.25159304482597L77,92.96447094849178L78.16666666666667,93.12222392218453L79.33333333333333,94.3569985117231L80.5,93.86429740701402L81.66666666666667,97.26566975457328L82.83333333333333,98.12985220977238L84,100.5377139023372L85.16666666666666,100.28155936513627L86.33333333333334,98.30674593789237L87.5,100.99204306943076L88.66666666666666,104.36993408203125L89.83333333333334,106.9121276991708L91,105.22444065979549L92.16666666666667,103.34909886973244L93.33333333333333,105.88707247802189L94.5,104.98494008609227L95.66666666666667,106.90332596642631L96.83333333333333,106.38800259998867L98,110.73824393749237L99.16666666666667,108.78178754874638L100.33333333333333,111.4487577847072L101.5,111.28960316521781L102.66666666666666,111.23481840746743L103.83333333333334,110.73996208395278L105,112.52926090785435L106.16666666666666,115.2672177212579L107.33333333333334,110.8960873399462L108.5,113.84397452218192L109.66666666666667,115.30073664869582L110.83333333333333,117.06519770622253L112,113.14336262430464L113.16666666666667,113.63666658742088L114.33333333333333,117.95641836098262L115.5,118.69204126085555L116.66666666666667,116.1902391569955L117.83333333333333,121.66791614464351L119,120.97496054853713L120.16666666666666,119.96077185017722L121.33333333333334,121.00801226070949L122.5,123.80437098230635L123.66666666666666,122.03330862522125L124.83333333333334,120.57800843034471L126,120.39057975155967L127.16666666666667,121.29524414879936L128.33333333333331,123.71270636149815L129.5,125.86069086619786L130.66666666666666,124.33640859808241L131.83333333333334,127.80679316180093L133,126.37434130055564L134.16666666666669,127.3217785017831L135.33333333333334,123.89383516992842L136.5,128.03777836050307L137.66666666666666,127.92646055562156L138.83333333333334,128.14903587954385L140,129.3830267531531L141.16666666666666,131.27897122928073L142.33333333333331,129.60004070826938L143.5,128.6501167161124L144.66666666666669,129.93553141185214L145.83333333333334,132.40357344491142L147,131.6622987474714L148.16666666666666,134.65897224630626L149.33333333333334,130.03390283243996L150.5,132.3633326462337L151.66666666666666,134.48504759584154L152.83333333333331,134.79255059787204L154,134.1078390904835L155.16666666666669,137.12216126918793L156.33333333333334,134.98621886117118L157.5,135.61233253138406L158.66666666666666,132.1145781959806L159.83333333333331,139.53412239892143L161,138.65853084836687L162.16666666666669,138.3271094390324L163.33333333333334,137.3689112152372L164.5,138.62332391738892L165.66666666666666,138.31538384301322L166.83333333333334,138.44668640409196L168,141.59895765781403L169.16666666666666,139.790668794087L170.33333333333331,141.9801148857389L171.5,141.2184485026768L172.66666666666669,145.0795305286135L173.83333333333334,140.51946432249886L175,143.28691598347257L176.16666666666666,145.51152379172188L177.33333333333331,141.9228584085192L178.5,140.73869378226144L179.66666666666669,146.12226457255227L180.83333333333334,144.7881087745939L182,144.852810553142L183.16666666666666,146.92448825495583L184.33333333333334,143.90730249881744L185.5,145.00105343546184L186.66666666666666,146.6074902330126L187.83333333333331,146.26878930841173L189,148.604835493224L190.16666666666669,146.84283108370644L191.33333333333334,147.6487774167742L192.5,150.42590495518277L193.66666666666666,145.63102539948056L194.83333333333331,149.20668411254883L196,149.832737496921L197.16666666666669,148.489855323519L198.33333333333334,151.06145335946763L199.5,149.33201837539673L200.66666666666666,151.00318709441592L201.83333333333334,154.49587741919925L203,153.51790543964933L204.16666666666666,153.75790337153842L205.33333333333331,155.6194246326174L206.5,154.18624934128354L207.66666666666669,153.70727833679746L208.83333333333334,152.29741859436035L210,154.07759918485368L211.16666666666666,157.47457066604068L212.33333333333331,154.7661087002073L213.5,155.16598468167442L214.66666666666669,154.3101668868746L215.83333333333334,154.60787343978882L217,157.982539159911L218.16666666666666,158.43590375355313L219.33333333333334,156.3253868988582L220.5,156.9159620659692L221.66666666666666,158.14051820550645L222.83333333333331,161.14903787204196L224,160.8259208372661L225.16666666666669,158.75023412704468L226.33333333333334,159.18135324546267L227.5,162.72756232534135L228.66666666666666,161.55387236390794L229.83333333333331,159.0648056438991L231,164.08916325228554L232.16666666666669,160.38636170114788L233.33333333333334,162.15784605911801L234.5,162.02532270976474L235.66666666666666,164.56917418752397L236.83333333333334,163.79023591109683L238,163.55599527699607L239.16666666666666,163.21889192717416L240.33333333333331,164.81816978113991L241.5,164.11119772706712L242.66666666666669,164.80676068578447L243.83333333333334,166.1438855613981L245,163.8235890524728L246.16666666666666,163.85701755114962L247.33333333333331,166.34826963288444L248.5,165.80492842197418L249.66666666666669,166.93670465265L250.83333333333334,171.85432618004933L252,168.74490308761597L253.16666666666666,166.4613357271467L254.33333333333334,169.18205079010556L255.5,168.48760311944145" style="fill: none;" fill="none"></path></g></g></g></g></g></g><g transform="translate(50, 177)" clip-path="url(#clip_1)"><clipPath id="clip_1"><rect width="280" height="23"></rect></clipPath><g><g><line x1="0" y1="0" x2="0" y2="5" style="visibility: inherit;" fill="rgb(0, 0, 0)" stroke="rgb(204, 204, 204)" stroke-width="1px"></line><line x1="23.333333333333332" y1="0" x2="23.333333333333332" y2="5" style="visibility: inherit;" fill="rgb(0, 0, 0)" stroke="rgb(204, 204, 204)" stroke-width="1px"></line><line x1="46.666666666666664" y1="0" x2="46.666666666666664" y2="5" style="visibility: inherit;" fill="rgb(0, 0, 0)" stroke="rgb(204, 204, 204)" stroke-width="1px"></line><line x1="70" y1="0" x2="70" y2="5" style="visibility: inherit;" fill="rgb(0, 0, 0)" stroke="rgb(204, 204, 204)" stroke-width="1px"></line><line x1="93.33333333333333" y1="0" x2="93.33333333333333" y2="5" style="visibility: inherit;" fill="rgb(0, 0, 0)" stroke="rgb(204, 204, 204)" stroke-width="1px"></line><line x1="116.66666666666667" y1="0" x2="116.66666666666667" y2="5" style="visibility: inherit;" fill="rgb(0, 0, 0)" stroke="rgb(204, 204, 204)" stroke-width="1px"></line><line x1="140" y1="0" x2="140" y2="5" style="visibility: inherit;" fill="rgb(0, 0, 0)" stroke="rgb(204, 204, 204)" stroke-width="1px"></line><line x1="163.33333333333334" y1="0" x2="163.33333333333334" y2="5" style="visibility: inherit;" fill="rgb(0, 0, 0)" stroke="rgb(204, 204, 204)" stroke-width="1px"></line><line x1="186.66666666666666" y1="0" x2="186.66666666666666" y2="5" style="visibility: inherit;" fill="rgb(0, 0, 0)" stroke="rgb(204, 204, 204)" stroke-width="1px"></line><line x1="210" y1="0" x2="210" y2="5" style="visibility: inherit;" fill="rgb(0, 0, 0)" stroke="rgb(204, 204, 204)" stroke-width="1px"></line><line x1="233.33333333333334" y1="0" x2="233.33333333333334" y2="5" style="visibility: inherit;" fill="rgb(0, 0, 0)" stroke="rgb(204, 204, 204)" stroke-width="1px"></line><line x1="256.66666666666663" y1="0" x2="256.66666666666663" y2="5" style="visibility: inherit;" fill="rgb(0, 0, 0)" stroke="rgb(204, 204, 204)" stroke-width="1px"></line><line x1="280" y1="0" x2="280" y2="5" style="visibility: inherit;" fill="rgb(0, 0, 0)" stroke="rgb(204, 204, 204)" stroke-width="1px"></line></g><g transform="translate(0, 8)"><text x="0" y="0" dx="0em" dy="0.95em" style="text-anchor: middle; visibility: hidden; font-family: Roboto, sans-serif; font-size: 12px; font-weight: 200;" fill="rgb(33, 33, 33)" stroke="none" stroke-width="1px">-20</text><text x="23.333333333333332" y="0" dx="0em" dy="0.95em" style="text-anchor: middle; visibility: inherit; font-family: Roboto, sans-serif; font-size: 12px; font-weight: 200;" fill="rgb(33, 33, 33)" stroke="none" stroke-width="1px">0</text><text x="46.666666666666664" y="0" dx="0em" dy="0.95em" style="text-anchor: middle; visibility: hidden; font-family: Roboto, sans-serif; font-size: 12px; font-weight: 200;" fill="rgb(33, 33, 33)" stroke="none" stroke-width="1px">20</text><text x="70" y="0" dx="0em" dy="0.95em" style="text-anchor: middle; visibility: inherit; font-family: Roboto, sans-serif; font-size: 12px; font-weight: 200;" fill="rgb(33, 33, 33)" stroke="none" stroke-width="1px">40</text><text x="93.33333333333333" y="0" dx="0em" dy="0.95em" style="text-anchor: middle; visibility: hidden; font-family: Roboto, sans-serif; font-size: 12px; font-weight: 200;" fill="rgb(33, 33, 33)" stroke="none" stroke-width="1px">60</text><text x="116.66666666666667" y="0" dx="0em" dy="0.95em" style="text-anchor: middle; visibility: inherit; font-family: Roboto, sans-serif; font-size: 12px; font-weight: 200;" fill="rgb(33, 33, 33)" stroke="none" stroke-width="1px">80</text><text x="140" y="0" dx="0em" dy="0.95em" style="text-anchor: middle; visibility: hidden; font-family: Roboto, sans-serif; font-size: 12px; font-weight: 200;" fill="rgb(33, 33, 33)" stroke="none" stroke-width="1px">100</text><text x="163.33333333333334" y="0" dx="0em" dy="0.95em" style="text-anchor: middle; visibility: inherit; font-family: Roboto, sans-serif; font-size: 12px; font-weight: 200;" fill="rgb(33, 33, 33)" stroke="none" stroke-width="1px">120</text><text x="186.66666666666666" y="0" dx="0em" dy="0.95em" style="text-anchor: middle; visibility: hidden; font-family: Roboto, sans-serif; font-size: 12px; font-weight: 200;" fill="rgb(33, 33, 33)" stroke="none" stroke-width="1px">140</text><text x="210" y="0" dx="0em" dy="0.95em" style="text-anchor: middle; visibility: inherit; font-family: Roboto, sans-serif; font-size: 12px; font-weight: 200;" fill="rgb(33, 33, 33)" stroke="none" stroke-width="1px">160</text><text x="233.33333333333334" y="0" dx="0em" dy="0.95em" style="text-anchor: middle; visibility: hidden; font-family: Roboto, sans-serif; font-size: 12px; font-weight: 200;" fill="rgb(33, 33, 33)" stroke="none" stroke-width="1px">180</text><text x="256.66666666666663" y="0" dx="0em" dy="0.95em" style="text-anchor: middle; visibility: inherit; font-family: Roboto, sans-serif; font-size: 12px; font-weight: 200;" fill="rgb(33, 33, 33)" stroke="none" stroke-width="1px">200</text><text x="280" y="0" dx="0em" dy="0.95em" style="text-anchor: middle; visibility: hidden; font-family: Roboto, sans-serif; font-size: 12px; font-weight: 200;" fill="rgb(33, 33, 33)" stroke="none" stroke-width="1px">220</text></g><line x1="0" y1="0" x2="280" y2="0" fill="rgb(0, 0, 0)" stroke="rgb(204, 204, 204)" stroke-width="1px"></line></g></g></g></g></svg>