<svg viewBox="0 0 330 200" xmlns="http://www.w3.org/2000/svg"><g><g><g><g><g><line x1="50" y1="177" x2="45" y2="177" style="visibility: inherit;" fill="rgb(0, 0, 0)" stroke="rgb(204, 204, 204)" stroke-width="1px"></line><line x1="50" y1="157.33333333333331" x2="45" y2="157.33333333333331" style="visibility: inherit;" fill="rgb(0, 0, 0)" stroke="rgb(204, 204, 204)" stroke-width="1px"></line><line x1="50" y1="137.66666666666666" x2="45" y2="137.66666666666666" style="visibility: inherit;" fill="rgb(0, 0, 0)" stroke="rgb(204, 204, 204)" stroke-width="1px"></line><line x1="50" y1="117.99999999999997" x2="45" y2="117.99999999999997" style="visibility: inherit;" fill="rgb(0, 0, 0)" stroke="rgb(204, 204, 204)" stroke-width="1px"></line><line x1="50" y1="98.3333333333333" x2="45" y2="98.3333333333333" style="visibility: inherit;" fill="rgb(0, 0, 0)" stroke="rgb(204, 204, 204)" stroke-width="1px"></line><line x1="50" y1="78.66666666666673" x2="45" y2="78.66666666666673" style="visibility: inherit;" fill="rgb(0, 0, 0)" stroke="rgb(204, 204, 204)" stroke-width="1px"></line><line x1="50" y1="59.00000000000004" x2="45" y2="59.00000000000004" style="visibility: inherit;" fill="rgb(0, 0, 0)" stroke="rgb(204, 204, 204)" stroke-width="1px"></line><line x1="50" y1="39.33333333333335" x2="45" y2="39.33333333333335" style="visibility: inherit;" fill="rgb(0, 0, 0)" stroke="rgb(204, 204, 204)" stroke-width="1px"></line><line x1="50" y1="19.666666666666675" x2="45" y2="19.666666666666675" style="visibility: inherit;" fill="rgb(0, 0, 0)" stroke="rgb(204, 204, 204)" stroke-width="1px"></line><line x1="50" y1="0" x2="45" y2="0" style="visibility: inherit;" fill="rgb(0, 0, 0)" stroke="rgb(204, 204, 204)" stroke-width="1px"></line></g><g transform="translate(40, 0)"><text x="0" y="177" dx="0em" dy="0.3em" style="text-anchor: end; visibility: hidden; font-family: Roboto, sans-serif; font-size: 12px; font-weight: 200;" fill="rgb(33, 33, 33)" stroke="none" stroke-width="1px">0.72</text><text x="0" y="157.33333333333331" dx="0em" dy="0.3em" style="text-anchor: end; visibility: inherit; font-family: Roboto, sans-serif; font-size: 12px; font-weight: 200;" fill="rgb(33, 33, 33)" stroke="none" stroke-width="1px">0.74</text><text x="0" y="137.66666666666666" dx="0em" dy="0.3em" style="text-anchor: end; visibility: hidden; font-family: Roboto, sans-serif; font-size: 12px; font-weight: 200;" fill="rgb(33, 33, 33)" stroke="none" stroke-width="1px">0.76</text><text x="0" y="117.99999999999997" dx="0em" dy="0.3em" style="text-anchor: end; visibility: inherit; font-family: Roboto, sans-serif; font-size: 12px; font-weight: 200;" fill="rgb(33, 33, 33)" stroke="none" stroke-width="1px">0.78</text><text x="0" y="98.3333333333333" dx="0em" dy="0.3em" style="text-anchor: end; visibility: hidden; font-family: Roboto, sans-serif; font-size: 12px; font-weight: 200;" fill="rgb(33, 33, 33)" stroke="none" stroke-width="1px">0.8</text><text x="0" y="78.66666666666673" dx="0em" dy="0.3em" style="text-anchor: end; visibility: inherit; font-family: Roboto, sans-serif; font-size: 12px; font-weight: 200;" fill="rgb(33, 33, 33)" stroke="none" stroke-width="1px">0.82</text><text x="0" y="59.00000000000004" dx="0em" dy="0.3em" style="text-anchor: end; visibility: hidden; font-family: Roboto, sans-serif; font-size: 12px; font-weight: 200;" fill="rgb(33, 33, 33)" stroke="none" stroke-width="1px">0.84</text><text x="0" y="39.33333333333335" dx="0em" dy="0.3em" style="text-anchor: end; visibility: inherit; font-family: Roboto, sans-serif; font-size: 12px; font-weight: 200;" fill="rgb(33, 33, 33)" stroke="none" stroke-width="1px">0.86</text><text x="0" y="19.666666666666675" dx="0em" dy="0.3em" style="text-anchor: end; visibility: hidden; font-family: Roboto, sans-serif; font-size: 12px; font-weight: 200;" fill="rgb(33, 33, 33)" stroke="none" stroke-width="1px">0.88</text><text x="0" y="0" dx="0em" dy="0.3em" style="text-anchor: end; visibility: hidden; font-family: Roboto, sans-serif; font-size: 12px; font-weight: 200;" fill="rgb(33, 33, 33)" stroke="none" stroke-width="1px">0.9</text></g><line x1="50" y1="0" x2="50" y2="177" fill="rgb(0, 0, 0)" stroke="rgb(204, 204, 204)" stroke-width="1px"></line></g></g><g transform="translate(50, 0)" clip-path="url(#clip_0)"><clipPath id="clip_0"><rect width="280" height="177"></rect></clipPath><g><g><g><line x1="0" y1="0" x2="0" y2="177" fill="rgb(0, 0, 0)" stroke="rgb(66, 66, 66)" stroke-width="1px" opacity="0.25"></line><line x1="23.333333333333332" y1="0" x2="23.333333333333332" y2="177" fill="rgb(0, 0, 0)" stroke="rgb(66, 66, 66)" stroke-width="1px" opacity="0.25"></line><line x1="46.666666666666664" y1="0" x2="46.666666666666664" y2="177" fill="rgb(0, 0, 0)" stroke="rgb(66, 66, 66)" stroke-width="1px" opacity="0.25"></line><line x1="70" y1="0" x2="70" y2="177" fill="rgb(0, 0, 0)" stroke="rgb(66, 66, 66)" stroke-width="1px" opacity="0.25"></line><line x1="93.33333333333333" y1="0" x2="93.33333333333333" y2="177" fill="rgb(0, 0, 0)" stroke="rgb(66, 66, 66)" stroke-width="1px" opacity="0.25"></line><line x1="116.66666666666667" y1="0" x2="116.66666666666667" y2="177" fill="rgb(0, 0, 0)" stroke="rgb(66, 66, 66)" stroke-width="1px" opacity="0.25"></line><line x1="140" y1="0" x2="140" y2="177" fill="rgb(0, 0, 0)" stroke="rgb(66, 66, 66)" stroke-width="1px" opacity="0.25"></line><line x1="163.33333333333334" y1="0" x2="163.33333333333334" y2="177" fill="rgb(0, 0, 0)" stroke="rgb(66, 66, 66)" stroke-width="1px" opacity="0.25"></line><line x1="186.66666666666666" y1="0" x2="186.66666666666666" y2="177" fill="rgb(0, 0, 0)" stroke="rgb(66, 66, 66)" stroke-width="1px" opacity="0.25"></line><line x1="210" y1="0" x2="210" y2="177" fill="rgb(0, 0, 0)" stroke="rgb(66, 66, 66)" stroke-width="1px" opacity="0.25"></line><line x1="233.33333333333334" y1="0" x2="233.33333333333334" y2="177" fill="rgb(0, 0, 0)" stroke="rgb(66, 66, 66)" stroke-width="1px" opacity="0.25"></line><line x1="256.66666666666663" y1="0" x2="256.66666666666663" y2="177" fill="rgb(0, 0, 0)" stroke="rgb(66, 66, 66)" stroke-width="1px" opacity="0.25"></line><line x1="280" y1="0" x2="280" y2="177" fill="rgb(0, 0, 0)" stroke="rgb(66, 66, 66)" stroke-width="1px" opacity="0.25"></line></g><g><line x1="0" y1="177" x2="280" y2="177" fill="rgb(0, 0, 0)" stroke="rgb(66, 66, 66)" stroke-width="1px" opacity="0.25"></line><line x1="0" y1="157.33333333333331" x2="280" y2="157.33333333333331" fill="rgb(0, 0, 0)" stroke="rgb(66, 66, 66)" stroke-width="1px" opacity="0.25"></line><line x1="0" y1="137.66666666666666" x2="280" y2="137.66666666666666" fill="rgb(0, 0, 0)" stroke="rgb(66, 66, 66)" stroke-width="1px" opacity="0.25"></line><line x1="0" y1="117.99999999999997" x2="280" y2="117.99999999999997" fill="rgb(0, 0, 0)" stroke="rgb(66, 66, 66)" stroke-width="1px" opacity="0.25"></line><line x1="0" y1="98.3333333333333" x2="280" y2="98.3333333333333" fill="rgb(0, 0, 0)" stroke="rgb(66, 66, 66)" stroke-width="1px" opacity="0.25"></line><line x1="0" y1="78.66666666666673" x2="280" y2="78.66666666666673" fill="rgb(0, 0, 0)" stroke="rgb(66, 66, 66)" stroke-width="1px" opacity="0.25"></line><line x1="0" y1="59.00000000000004" x2="280" y2="59.00000000000004" fill="rgb(0, 0, 0)" stroke="rgb(66, 66, 66)" stroke-width="1px" opacity="0.25"></line><line x1="0" y1="39.33333333333335" x2="280" y2="39.33333333333335" fill="rgb(0, 0, 0)" stroke="rgb(66, 66, 66)" stroke-width="1px" opacity="0.25"></line><line x1="0" y1="19.666666666666675" x2="280" y2="19.666666666666675" fill="rgb(0, 0, 0)" stroke="rgb(66, 66, 66)" stroke-width="1px" opacity="0.25"></line><line x1="0" y1="0" x2="280" y2="0" fill="rgb(0, 0, 0)" stroke="rgb(66, 66, 66)" stroke-width="1px" opacity="0.25"></line></g></g></g><g><g><line x1="0" y1="884.9999999999997" x2="280" y2="884.9999999999997" fill="rgb(0, 0, 0)" stroke="rgb(153, 153, 153)" stroke-width="1.5px"></line></g></g><g><g><line x1="23.333333333333332" y1="0" x2="23.333333333333332" y2="177" fill="rgb(0, 0, 0)" stroke="rgb(153, 153, 153)" stroke-width="1.5px"></line></g></g><g><g><g><g><g><path stroke="rgb(0, 119, 187)" stroke-width="2px" d="M25.666666666666664,210.09401091912972L26.833333333333336,176.80939011275765L28,209.46099336351918L29.166666666666668,186.08918903113428L30.333333333333336,155.12613041741537L31.5,143.65883717742992L32.666666666666664,132.5683729552615L33.833333333333336,125.98606001964505L35,112.73142473021845L36.16666666666667,106.24290856205411L37.333333333333336,100.2105918248362L38.5,97.31195975115202L39.666666666666664,112.74595226688L40.833333333333336,128.4398758712895L42,109.95776826562664L43.16666666666667,93.8639417854125L44.33333333333333,83.49349761935802L45.5,77.27163557170695L46.666666666666664,69.96283132572344L47.833333333333336,82.02633705491634L49,74.24605277153033L50.166666666666664,66.71730463815597L51.33333333333333,69.35160725290802L52.5,60.92003184132203L53.66666666666667,67.30354428513272L54.833333333333336,59.69120376868953L56,55.83895354726115L57.166666666666664,52.81245333158063L58.333333333333336,48.13594991842133L59.5,46.760350047618005L60.66666666666667,43.07438672608367L61.83333333333333,48.014340826503336L63,44.54193214286368L64.16666666666666,58.906979747021126L65.33333333333333,54.653269694192204L66.5,49.95559117198664L67.66666666666667,57.14911920044513L68.83333333333333,50.737950051481654L70,46.17609773388504L71.16666666666666,48.44504217998684L72.33333333333334,45.51550384693096L73.5,43.75778084763887L74.66666666666667,44.848599547871025L75.83333333333333,44.787939934763415L77,44.03639333374454L78.16666666666667,44.300616206297185L79.33333333333333,43.7439990966856L80.5,44.12517966405893L81.66666666666667,47.929642170147666L82.83333333333333,45.921414674997365L84,45.431629011042084L85.16666666666666,48.713511778322655L86.33333333333334,44.24628394051576L87.5,42.281098070963544L88.66666666666666,41.81713738236276L89.83333333333334,42.96906263546231L91,41.51476528793207L92.16666666666667,44.21794104506378L93.33333333333333,42.26409233369311L94.5,41.09178310687069L95.66666666666667,40.388397570777215L96.83333333333333,42.11181874851097L98,41.00041895576146L99.16666666666667,41.763880746371434L100.33333333333333,41.50680698760772L101.5,41.35256273234938L102.66666666666666,40.54486534606456L103.83333333333334,43.63600107994285L105,41.914928354620585L106.16666666666666,44.458038885076675L107.33333333333334,41.693000204570936L108.5,39.31882616313775L109.66666666666667,40.75492507079728L110.83333333333333,40.186282749133284L112,40.560248189264755L113.16666666666667,43.645230785863106L114.33333333333333,41.205315345042834L115.5,41.88681857994045L116.66666666666667,39.43511718835942L117.83333333333333,37.96409635341084L119,37.08148385244153L120.16666666666666,38.69736885124968L121.33333333333334,36.09114568488517L122.5,33.812260951936594L123.66666666666666,36.020684277816805L124.83333333333334,37.345738273345006L126,42.43167566944114L127.16666666666667,37.61657894267013L128.33333333333331,35.44267173973737L129.5,40.5746849161467L130.66666666666666,35.07208282443362L131.83333333333334,33.20082323566566L133,34.22351998179452L134.16666666666669,32.69168553008217L135.33333333333334,33.20288652531445L136.5,33.50960712245398L137.66666666666666,32.978488647607676L138.83333333333334,31.944666729570024L140,31.324373578747508L141.16666666666666,30.95219768825395L142.33333333333331,30.72889215395781L143.5,36.316115498419116L144.66666666666669,32.51694117379712L145.83333333333334,34.52834157780329L147,32.8745784876874L148.16666666666666,32.59747146674776L149.33333333333334,34.576659753573686L150.5,36.47932355879906L151.66666666666666,30.469413510635498L152.83333333333331,34.014975813036216L154,31.13625736256748L155.16666666666669,30.124177125416104L156.33333333333334,30.23207981625517L157.5,28.151368931368875L158.66666666666666,30.478696566086587L159.83333333333331,29.729640647527578L161,29.28020709639209L162.16666666666669,26.149943633191278L163.33333333333334,30.708143053439795L164.5,25.576403541160207L165.66666666666666,23.212510666922284L166.83333333333334,21.079024109249566L168,20.514083007775902L169.16666666666666,21.60542001315144L170.33333333333331,20.114769716987173L171.5,19.935530372418537L172.66666666666669,20.543137598807203L173.83333333333334,21.62285276777028L175,24.41613436853776L176.16666666666666,23.23149999647875L177.33333333333331,25.38132270576287L178.5,28.101517997593078L179.66666666666669,24.01242850765221L180.83333333333334,22.274125646817488L182,18.370540597797103L183.16666666666666,26.755652065333162L184.33333333333334,23.204908948296215L185.5,22.50476474433377L186.66666666666666,27.80588488699538L187.83333333333331,27.410802806942918L189,25.028301059521755L190.16666666666669,28.604855842978278L191.33333333333334,24.314431214883278L192.5,26.746232269935394L193.66666666666666,23.19925707105759L194.83333333333331,20.355921118600865L196,25.086277045295876L197.16666666666669,23.633585602533543L198.33333333333334,20.616518237486524L199.5,20.951730317847943L200.66666666666666,21.8680083991947L201.83333333333334,26.708680246782112L203,25.322178356555145L204.16666666666666,26.635729721808726L205.33333333333331,24.563257208441325L206.5,21.174321201031265L207.66666666666669,18.425808763455276L208.83333333333334,18.207002967169533L210,21.65147365504732L211.16666666666666,25.148457734033872L212.33333333333331,22.240592349516586L213.5,25.501928950715428L214.66666666666669,26.743580078304895L215.83333333333334,24.627967422338987L217,33.37071149257784L218.16666666666666,28.604246270902742L219.33333333333334,24.314065471637925L220.5,20.3096553258193L221.66666666666666,17.907009238328026L222.83333333333331,23.61692991713212L224,27.758033157544453L225.16666666666669,25.236639269882723L226.33333333333334,25.869255436675402L227.5,20.52761847171188L228.66666666666666,17.322636292733772L229.83333333333331,16.114797818476717L231,17.535547233312197L232.16666666666669,14.812242716564045L233.33333333333334,21.044919170943864L234.5,26.214826709831627L235.66666666666666,22.165262901865283L236.83333333333334,17.590072117695993L238,14.8449576471944L239.16666666666666,18.919095629932364L240.33333333333331,22.07872925270511L241.5,19.683604427589543L242.66666666666669,21.822283698169496L243.83333333333334,16.66913376234852L245,23.589355464674338L246.16666666666666,20.589980154770902L247.33333333333331,20.935807468218545L248.5,16.13724802437809L249.66666666666669,16.83386652372309L250.83333333333334,17.251837623330054L252,16.787469449964515L253.16666666666666,16.50884854594511L254.33333333333334,22.778033501702403L255.5,20.103186976987878" style="fill: none;" fill="none"></path></g><g><path stroke="rgb(255, 112, 67)" stroke-width="2px" d="M35,182.0472530659736L36.16666666666667,176.16437821606348L37.333333333333336,170.6754070573062L38.5,160.5935257443986L39.666666666666664,159.9107547482963L40.833333333333336,154.14100723182042L42,157.46911678180658L43.16666666666667,154.64224807404406L44.33333333333333,151.51721129977926L45.5,145.17651102666477L46.666666666666664,142.08677274121047L47.833333333333336,141.48335478487436L49,140.40680906424708L50.166666666666664,133.5089612266117L51.33333333333333,129.90614575623727L52.5,128.101710832539L53.66666666666667,126.84042806861825L54.833333333333336,125.54778811689233L56,124.77220465389085L57.166666666666664,123.59236021371704L58.333333333333336,122.88445371654582L59.5,115.85056593625276L60.66666666666667,113.77374033512746L61.83333333333333,113.06351584375766L63,111.02974531838426L64.16666666666666,110.34537726603861L65.33333333333333,108.32712061326136L66.5,106.40167223962702L67.66666666666667,103.99601459495254L68.83333333333333,104.33887942673113L70,103.2942097022183L71.16666666666666,99.80940687294277L72.33333333333334,99.50478458973198L73.5,95.21362160313755L74.66666666666667,95.67554840252808L75.83333333333333,95.59545728845511L77,94.6542846358451L78.16666666666667,93.19643961565198L79.33333333333333,93.03625043536906L80.5,94.01187850817249L81.66666666666667,88.88122991987092L82.83333333333333,86.6959821955381L84,84.67033917363237L85.16666666666666,85.41981292559238L86.33333333333334,86.76263860539808L87.5,85.06758021320563L88.66666666666666,81.90703857147018L89.83333333333334,80.01071358642945L91,80.48053096684993L92.16666666666667,82.54868080786787L93.33333333333333,81.82468770288575L94.5,76.21016064292084L95.66666666666667,78.02157560391758L96.83333333333333,76.07179998995974L98,75.97369964704185L99.16666666666667,75.02169801266159L100.33333333333333,74.27187343520623L101.5,72.03571927596751L102.66666666666666,70.5154031835972L103.83333333333334,73.53297954736021L105,73.0213951623709L106.16666666666666,68.42743131853767L107.33333333333334,69.95806622507739L108.5,68.19706977209992L109.66666666666667,67.85496628762218L110.83333333333333,66.5779626159724L112,66.52625480029126L113.16666666666667,67.20972449819132L114.33333333333333,64.7618053232027L115.5,63.65030101186388L116.66666666666667,64.41241064417173L117.83333333333333,62.90479341396387L119,63.60785889177738L120.16666666666666,62.24343876569999L121.33333333333334,62.31790467418946L122.5,59.14733603190022L123.66666666666666,59.74574864660084L124.83333333333334,58.318536802655835L126,58.17670408359745L127.16666666666667,61.1282524872118L128.33333333333331,56.82590890377524L129.5,57.817021579244376L130.66666666666666,57.33992415906903L131.83333333333334,54.19566471323526L133,53.38085062669806L134.16666666666669,54.14235079705964L135.33333333333334,57.457251893005264L136.5,55.33780293456007L137.66666666666666,54.95927498812252L138.83333333333334,54.553534623432725L140,49.48718295680406L141.16666666666666,50.198514379184914L142.33333333333331,50.08944244213188L143.5,52.70337667680159L144.66666666666669,53.199995636640324L145.83333333333334,53.497967012543405L147,52.60498481262867L148.16666666666666,50.64018327356857L149.33333333333334,51.78343255337964L150.5,51.57626413713032L151.66666666666666,50.20159790959034L152.83333333333331,52.23479916679504L154,50.418071886068425L155.16666666666669,47.00590531438541L156.33333333333334,45.315876009523606L157.5,46.62398862985361L158.66666666666666,48.480597783014794L159.83333333333331,46.20069149070119L161,45.54724210262182L162.16666666666669,46.22691405073734L163.33333333333334,43.598092629050875L164.5,43.9856827856316L165.66666666666666,44.39686047640724L166.83333333333334,44.8221906876998L168,42.755258611228314L169.16666666666666,42.586840946308484L170.33333333333331,41.41404876639346L171.5,42.496632871209876L172.66666666666669,41.002676727680004L173.83333333333334,43.14292763211781L175,41.92632437470628L176.16666666666666,42.08948040439535L177.33333333333331,41.65150323172722L178.5,41.74596412178074L179.66666666666669,40.37365188119523L180.83333333333334,39.19301734318957L182,37.591495191756664L183.16666666666666,38.23821771683513L184.33333333333334,37.55448620642562L185.5,36.7870001065255L186.66666666666666,34.89751967196794L187.83333333333331,35.728690976332416L189,33.36939276522249L190.16666666666669,33.56144965449489L191.33333333333334,34.56980177219417L192.5,33.209930033221L193.66666666666666,34.18026640260264L194.83333333333331,34.762468224231704L196,34.75454212355478L197.16666666666669,32.07040906624712L198.33333333333334,30.99580002234409L199.5,32.6731647992494L200.66666666666666,32.07194784945431L201.83333333333334,27.06695727308304L203,28.529599736927217L204.16666666666666,28.87131442475224L205.33333333333331,28.183225253311313L206.5,27.77037175044673L207.66666666666669,27.879906842382255L208.83333333333334,29.731887310309123L210,27.98505115284301L211.16666666666666,29.616350299758274L212.33333333333331,29.34474116562365L213.5,29.539022878797276L214.66666666666669,30.19146269718298L215.83333333333334,27.367678400831373L217,27.638290832613116L218.16666666666666,27.622034694854992L219.33333333333334,25.46877440578028L220.5,24.891312619644037L221.66666666666666,25.616600573419163L222.83333333333331,25.515879110708966L224,25.098199039428422L225.16666666666669,25.74073242528966L226.33333333333334,22.553733631275495L227.5,22.427793767632448L228.66666666666666,21.459088420817146L229.83333333333331,21.77100664135752L231,21.600910380027265L232.16666666666669,23.28508859150107L233.33333333333334,20.90172373417521L234.5,20.54344640074274L235.66666666666666,17.113231813300338L236.83333333333334,17.377233264081898L238,16.463892553587726L239.16666666666666,18.41664192736539L240.33333333333331,17.623408542039375L241.5,15.718456291732668L242.66666666666669,16.8976151447956L243.83333333333334,15.461603850213601L245,17.27937447036582L246.16666666666666,16.762424471012473L247.33333333333331,18.417137480993155L248.5,17.445082277388813L249.66666666666669,15.611460532942335L250.83333333333334,13.26092230848414L252,13.458211745253884L253.16666666666666,15.00559762642689L254.33333333333334,15.040911170994697L255.5,16.312464475525655" style="fill: none;" fill="none"></path></g></g></g></g><g opacity="0.2"><g><g><g><path stroke="rgb(0, 119, 187)" stroke-width="2px" d="M25.666666666666664,200.24243255456284L26.833333333333336,137.66667604446408L28,252.09092656771338L29.166666666666668,153.75756978988645L30.333333333333336,110.84846119085947L31.5,126.93941354751584L32.666666666666664,116.21209243933359L33.833333333333336,116.21209243933359L35,92.9696903626124L36.16666666666667,96.5454445282618L37.333333333333336,91.18181327978768L38.5,92.9696903626124L39.666666666666664,135.87879896163938L40.833333333333336,151.96969270706174L42,82.24242786566415L43.16666666666667,69.72728828589122L44.33333333333333,67.93941120306651L45.5,67.93941120306651L46.666666666666664,59.00002578894298L47.833333333333336,100.12119869391124L49,62.5757799545924L50.166666666666664,55.42427162329357L51.33333333333333,73.30304245154063L52.5,48.27270468076072L53.66666666666667,76.87879661719003L54.833333333333336,48.27270468076072L56,50.06058176358542L57.166666666666664,48.27270468076072L58.333333333333336,41.121196349461876L59.5,44.6969505151113L60.66666666666667,37.545442183812476L61.83333333333333,55.42427162329357L63,39.333319266637176L64.16666666666666,80.45455078283946L65.33333333333333,48.27270468076072L66.5,42.9090734322866L67.66666666666667,67.93941120306651L68.83333333333333,41.121196349461876L70,39.333319266637176L71.16666666666666,51.84845884641012L72.33333333333334,41.121196349461876L73.5,41.121196349461876L74.66666666666667,46.484827597936L75.83333333333333,44.6969505151113L77,42.9090734322866L78.16666666666667,44.6969505151113L79.33333333333333,42.9090734322866L80.5,44.6969505151113L81.66666666666667,53.63633592923482L82.83333333333333,42.9090734322866L84,44.6969505151113L85.16666666666666,53.63633592923482L86.33333333333334,37.545442183812476L87.5,39.333319266637176L88.66666666666666,41.121196349461876L89.83333333333334,44.6969505151113L91,39.333319266637176L92.16666666666667,48.27270468076072L93.33333333333333,39.333319266637176L94.5,39.333319266637176L95.66666666666667,39.333319266637176L96.83333333333333,44.6969505151113L98,39.333319266637176L99.16666666666667,42.9090734322866L100.33333333333333,41.121196349461876L101.5,41.121196349461876L102.66666666666666,39.333319266637176L103.83333333333334,48.27270468076072L105,39.333319266637176L106.16666666666666,48.27270468076072L107.33333333333334,37.545442183812476L108.5,35.757565100987755L109.66666666666667,42.9090734322866L110.83333333333333,39.333319266637176L112,41.121196349461876L113.16666666666667,48.27270468076072L114.33333333333333,37.545442183812476L115.5,42.9090734322866L116.66666666666667,35.757565100987755L117.83333333333333,35.757565100987755L119,35.757565100987755L120.16666666666666,41.121196349461876L121.33333333333334,32.181810935338355L122.5,30.393933852513637L123.66666666666666,39.333319266637176L124.83333333333334,39.333319266637176L126,50.06058176358542L127.16666666666667,30.393933852513637L128.33333333333331,32.181810935338355L129.5,48.27270468076072L130.66666666666666,26.818179686864234L131.83333333333334,30.393933852513637L133,35.757565100987755L134.16666666666669,30.393933852513637L135.33333333333334,33.969688018163055L136.5,33.969688018163055L137.66666666666666,32.181810935338355L138.83333333333334,30.393933852513637L140,30.393933852513637L141.16666666666666,30.393933852513637L142.33333333333331,30.393933852513637L143.5,44.6969505151113L144.66666666666669,26.818179686864234L145.83333333333334,37.545442183812476L147,30.393933852513637L148.16666666666666,32.181810935338355L149.33333333333334,37.545442183812476L150.5,39.333319266637176L151.66666666666666,21.454548438390113L152.83333333333331,39.333319266637176L154,26.818179686864234L155.16666666666669,28.606056769688934L156.33333333333334,30.393933852513637L157.5,25.030302604039534L158.66666666666666,33.969688018163055L159.83333333333331,28.606056769688934L161,28.606056769688934L162.16666666666669,21.454548438390113L163.33333333333334,37.545442183812476L164.5,17.87879427274069L165.66666666666666,19.666671355565413L166.83333333333334,17.87879427274069L168,19.666671355565413L169.16666666666666,23.242425521214813L170.33333333333331,17.87879427274069L171.5,19.666671355565413L172.66666666666669,21.454548438390113L173.83333333333334,23.242425521214813L175,28.606056769688934L176.16666666666666,21.454548438390113L177.33333333333331,28.606056769688934L178.5,32.181810935338355L179.66666666666669,17.87879427274069L180.83333333333334,19.666671355565413L182,12.515163024266572L183.16666666666666,39.333319266637176L184.33333333333334,17.87879427274069L185.5,21.454548438390113L186.66666666666666,35.757565100987755L187.83333333333331,26.818179686864234L189,21.454548438390113L190.16666666666669,33.969688018163055L191.33333333333334,17.87879427274069L192.5,30.393933852513637L193.66666666666666,17.87879427274069L194.83333333333331,16.09091718991599L196,32.181810935338355L197.16666666666669,21.454548438390113L198.33333333333334,16.09091718991599L199.5,21.454548438390113L200.66666666666666,23.242425521214813L201.83333333333334,33.969688018163055L203,23.242425521214813L204.16666666666666,28.606056769688934L205.33333333333331,21.454548438390113L206.5,16.09091718991599L207.66666666666669,14.303040107091292L208.83333333333334,17.87879427274069L210,26.818179686864234L211.16666666666666,30.393933852513637L212.33333333333331,17.87879427274069L213.5,30.393933852513637L214.66666666666669,28.606056769688934L215.83333333333334,21.454548438390113L217,46.484827597936L218.16666666666666,21.454548438390113L219.33333333333334,17.87879427274069L220.5,14.303040107091292L221.66666666666666,14.303040107091292L222.83333333333331,32.181810935338355L224,33.969688018163055L225.16666666666669,21.454548438390113L226.33333333333334,26.818179686864234L227.5,12.515163024266572L228.66666666666666,12.515163024266572L229.83333333333331,14.303040107091292L231,19.666671355565413L232.16666666666669,10.72728594144187L233.33333333333334,30.393933852513637L234.5,33.969688018163055L235.66666666666666,16.09091718991599L236.83333333333334,10.72728594144187L238,10.72728594144187L239.16666666666666,25.030302604039534L240.33333333333331,26.818179686864234L241.5,16.09091718991599L242.66666666666669,25.030302604039534L243.83333333333334,8.93940885861717L245,33.969688018163055L246.16666666666666,16.09091718991599L247.33333333333331,21.454548438390113L248.5,8.93940885861717L249.66666666666669,17.87879427274069L250.83333333333334,17.87879427274069L252,16.09091718991599L253.16666666666666,16.09091718991599L254.33333333333334,32.181810935338355L255.5,16.09091718991599" style="fill: none;" fill="none"></path></g><g><path stroke="rgb(255, 112, 67)" stroke-width="2px" d="M33.833333333333336,179.87584928671518L35,171.83772881825763L36.16666666666667,167.37208028634387L37.333333333333336,162.45987276236215L38.5,145.4904552300771L39.666666666666664,158.88740082581836L40.833333333333336,145.4904552300771L42,162.45987276236215L43.16666666666667,150.4026627540588L44.33333333333333,146.830132206281L45.5,135.66604018211365L46.666666666666664,137.45233476161954L47.833333333333336,140.57824770609537L49,138.7920117378235L50.166666666666664,123.16227118174234L51.33333333333333,124.50194815794625L52.5,125.3950661420822L53.66666666666667,124.94850715001422L54.833333333333336,123.6088301738103L56,123.6088301738103L57.166666666666664,121.82259420553842L58.333333333333336,121.82259420553842L59.5,105.29973566532135L60.66666666666667,110.65850218137106L61.83333333333333,111.99817915757497L63,107.97908961772917L64.16666666666666,109.31882520516712L65.33333333333333,105.29973566532135L66.5,103.51349969704947L67.66666666666667,100.38752814133963L68.83333333333333,104.85317667325337L70,101.72720511754353L71.16666666666666,94.58220263322194L72.33333333333334,99.0478511651357L73.5,88.77687712510426L74.66666666666667,96.36843860149384L75.83333333333333,95.47532061735788L77,93.24252565701804L78.16666666666667,91.00967208544414L79.33333333333333,92.79596666495003L80.5,95.47532061735788L81.66666666666667,81.18525703748067L82.83333333333333,83.41811060905457L84,81.63187464078267L85.16666666666666,86.54402355353038L86.33333333333334,88.77687712510426L87.5,82.52499262491862L88.66666666666666,77.16622610886891L89.83333333333334,77.16622610886891L91,81.18525703748067L92.16666666666667,85.65090556939442L93.33333333333333,80.7386980454127L94.5,67.78837005297342L95.66666666666667,80.7386980454127L96.83333333333333,73.14713656902313L98,75.82654913266501L99.16666666666667,73.59369556109111L100.33333333333333,73.14713656902313L101.5,68.68148803710938L102.66666666666666,68.2349290450414L103.83333333333334,78.05934409300485L105,72.25401858488719L106.16666666666666,61.53648555278778L107.33333333333334,72.25401858488719L108.5,65.55557509263357L109.66666666666667,67.34181106090547L110.83333333333333,64.66245710849762L112,66.44869307676952L113.16666666666667,68.2349290450414L114.33333333333333,61.0899265607198L115.5,61.98304454485576L116.66666666666667,65.55557509263357L117.83333333333333,60.64336756865183L119,64.66245710849762L120.16666666666666,60.19680857658388L121.33333333333334,62.42960353692373L122.5,54.39148306846619L123.66666666666666,60.64336756865183L124.83333333333334,56.17771903673809L126,57.963955005009964L127.16666666666667,65.55557509263357L128.33333333333331,50.372393528620414L129.5,59.30369059244793L130.66666666666666,56.62427802880606L131.83333333333334,49.479275544484466L133,52.158629496892296L134.16666666666669,55.284601052602135L135.33333333333334,62.42960353692373L136.5,52.158629496892296L137.66666666666666,54.39148306846619L138.83333333333334,53.94492407639821L140,41.88765545686086L141.16666666666666,51.26551151275635L142.33333333333331,49.92583453655244L143.5,56.62427802880606L144.66666666666669,53.94492407639821L145.83333333333334,53.94492407639821L147,51.26551151275635L148.16666666666666,47.69298096497855L149.33333333333334,53.49830647309622L150.5,51.26551151275635L151.66666666666666,48.13959856828054L152.83333333333331,55.284601052602135L154,47.69298096497855L155.16666666666669,41.88765545686086L156.33333333333334,42.78083205223085L157.5,48.58615756034852L158.66666666666666,51.26551151275635L159.83333333333331,42.78083205223085L161,44.56706802050273L162.16666666666669,47.246421972910575L163.33333333333334,39.65486049652101L164.5,44.56706802050273L165.66666666666666,45.0136270125707L166.83333333333334,45.46018600463868L168,39.65486049652101L169.16666666666666,42.33421444892884L170.33333333333331,39.65486049652101L171.5,44.120509028434775L172.66666666666669,38.76174251238506L173.83333333333334,46.35330398877463L175,40.10141948858898L176.16666666666666,42.33421444892884L177.33333333333331,40.994537472724936L178.5,41.88765545686086L179.66666666666669,38.315183520317085L180.83333333333334,37.42206553618114L182,35.189211964607246L183.16666666666666,39.20830150445303L184.33333333333334,36.52888894081117L185.5,35.63577095667522L186.66666666666666,32.06329902013144L187.83333333333331,36.97544793287914L189,29.83044544855755L190.16666666666669,33.84953498840334L191.33333333333334,36.082329948743194L192.5,31.170122424761477L193.66666666666666,35.63577095667522L194.83333333333331,35.63577095667522L196,34.74265297253927L197.16666666666669,28.04420948028565L198.33333333333334,29.383886456489577L199.5,35.189211964607246L200.66666666666666,31.170122424761477L201.83333333333334,19.559471408526118L203,30.723563432693503L204.16666666666666,29.383886456489577L205.33333333333331,27.15109149614972L206.5,27.15109149614972L207.66666666666669,28.04420948028565L208.83333333333334,32.509858012199416L210,25.364796916643787L211.16666666666666,32.06329902013144L212.33333333333331,28.9373274644216L213.5,29.83044544855755L214.66666666666669,31.170122424761477L215.83333333333334,23.13200195630393L217,28.04420948028565L218.16666666666666,27.597650488217695L219.33333333333334,22.238883972167983L220.5,24.025119940439883L221.66666666666666,26.704532504081747L222.83333333333331,25.364796916643787L224,24.471678932507857L225.16666666666669,26.704532504081747L226.33333333333334,17.773235440254236L227.5,22.238883972167983L228.66666666666666,20.006030400594092L229.83333333333331,22.238883972167983L231,21.34576598803203L232.16666666666669,25.81135590871176L233.33333333333334,17.326676448186262L234.5,20.006030400594092L235.66666666666666,11.967909932136548L236.83333333333334,17.773235440254236L238,15.093881487846387L239.16666666666666,21.34576598803203L240.33333333333331,16.433558464050314L241.5,12.861027916272498L242.66666666666669,18.666353424390167L243.83333333333334,13.307586908340474L245,20.006030400594092L246.16666666666666,15.986999471982337L247.33333333333331,20.899206995964057L248.5,15.986999471982337L249.66666666666669,12.861027916272498L250.83333333333334,9.735114971796694L252,13.75414590040845L253.16666666666666,17.326676448186262L254.33333333333334,15.093881487846387L255.5,18.219794432322193" style="fill: none;" fill="none"></path></g></g></g></g></g></g><g transform="translate(50, 177)" clip-path="url(#clip_1)"><clipPath id="clip_1"><rect width="280" height="23"></rect></clipPath><g><g><line x1="0" y1="0" x2="0" y2="5" style="visibility: inherit;" fill="rgb(0, 0, 0)" stroke="rgb(204, 204, 204)" stroke-width="1px"></line><line x1="23.333333333333332" y1="0" x2="23.333333333333332" y2="5" style="visibility: inherit;" fill="rgb(0, 0, 0)" stroke="rgb(204, 204, 204)" stroke-width="1px"></line><line x1="46.666666666666664" y1="0" x2="46.666666666666664" y2="5" style="visibility: inherit;" fill="rgb(0, 0, 0)" stroke="rgb(204, 204, 204)" stroke-width="1px"></line><line x1="70" y1="0" x2="70" y2="5" style="visibility: inherit;" fill="rgb(0, 0, 0)" stroke="rgb(204, 204, 204)" stroke-width="1px"></line><line x1="93.33333333333333" y1="0" x2="93.33333333333333" y2="5" style="visibility: inherit;" fill="rgb(0, 0, 0)" stroke="rgb(204, 204, 204)" stroke-width="1px"></line><line x1="116.66666666666667" y1="0" x2="116.66666666666667" y2="5" style="visibility: inherit;" fill="rgb(0, 0, 0)" stroke="rgb(204, 204, 204)" stroke-width="1px"></line><line x1="140" y1="0" x2="140" y2="5" style="visibility: inherit;" fill="rgb(0, 0, 0)" stroke="rgb(204, 204, 204)" stroke-width="1px"></line><line x1="163.33333333333334" y1="0" x2="163.33333333333334" y2="5" style="visibility: inherit;" fill="rgb(0, 0, 0)" stroke="rgb(204, 204, 204)" stroke-width="1px"></line><line x1="186.66666666666666" y1="0" x2="186.66666666666666" y2="5" style="visibility: inherit;" fill="rgb(0, 0, 0)" stroke="rgb(204, 204, 204)" stroke-width="1px"></line><line x1="210" y1="0" x2="210" y2="5" style="visibility: inherit;" fill="rgb(0, 0, 0)" stroke="rgb(204, 204, 204)" stroke-width="1px"></line><line x1="233.33333333333334" y1="0" x2="233.33333333333334" y2="5" style="visibility: inherit;" fill="rgb(0, 0, 0)" stroke="rgb(204, 204, 204)" stroke-width="1px"></line><line x1="256.66666666666663" y1="0" x2="256.66666666666663" y2="5" style="visibility: inherit;" fill="rgb(0, 0, 0)" stroke="rgb(204, 204, 204)" stroke-width="1px"></line><line x1="280" y1="0" x2="280" y2="5" style="visibility: inherit;" fill="rgb(0, 0, 0)" stroke="rgb(204, 204, 204)" stroke-width="1px"></line></g><g transform="translate(0, 8)"><text x="0" y="0" dx="0em" dy="0.95em" style="text-anchor: middle; visibility: hidden; font-family: Roboto, sans-serif; font-size: 12px; font-weight: 200;" fill="rgb(33, 33, 33)" stroke="none" stroke-width="1px">-20</text><text x="23.333333333333332" y="0" dx="0em" dy="0.95em" style="text-anchor: middle; visibility: inherit; font-family: Roboto, sans-serif; font-size: 12px; font-weight: 200;" fill="rgb(33, 33, 33)" stroke="none" stroke-width="1px">0</text><text x="46.666666666666664" y="0" dx="0em" dy="0.95em" style="text-anchor: middle; visibility: hidden; font-family: Roboto, sans-serif; font-size: 12px; font-weight: 200;" fill="rgb(33, 33, 33)" stroke="none" stroke-width="1px">20</text><text x="70" y="0" dx="0em" dy="0.95em" style="text-anchor: middle; visibility: inherit; font-family: Roboto, sans-serif; font-size: 12px; font-weight: 200;" fill="rgb(33, 33, 33)" stroke="none" stroke-width="1px">40</text><text x="93.33333333333333" y="0" dx="0em" dy="0.95em" style="text-anchor: middle; visibility: hidden; font-family: Roboto, sans-serif; font-size: 12px; font-weight: 200;" fill="rgb(33, 33, 33)" stroke="none" stroke-width="1px">60</text><text x="116.66666666666667" y="0" dx="0em" dy="0.95em" style="text-anchor: middle; visibility: inherit; font-family: Roboto, sans-serif; font-size: 12px; font-weight: 200;" fill="rgb(33, 33, 33)" stroke="none" stroke-width="1px">80</text><text x="140" y="0" dx="0em" dy="0.95em" style="text-anchor: middle; visibility: hidden; font-family: Roboto, sans-serif; font-size: 12px; font-weight: 200;" fill="rgb(33, 33, 33)" stroke="none" stroke-width="1px">100</text><text x="163.33333333333334" y="0" dx="0em" dy="0.95em" style="text-anchor: middle; visibility: inherit; font-family: Roboto, sans-serif; font-size: 12px; font-weight: 200;" fill="rgb(33, 33, 33)" stroke="none" stroke-width="1px">120</text><text x="186.66666666666666" y="0" dx="0em" dy="0.95em" style="text-anchor: middle; visibility: hidden; font-family: Roboto, sans-serif; font-size: 12px; font-weight: 200;" fill="rgb(33, 33, 33)" stroke="none" stroke-width="1px">140</text><text x="210" y="0" dx="0em" dy="0.95em" style="text-anchor: middle; visibility: inherit; font-family: Roboto, sans-serif; font-size: 12px; font-weight: 200;" fill="rgb(33, 33, 33)" stroke="none" stroke-width="1px">160</text><text x="233.33333333333334" y="0" dx="0em" dy="0.95em" style="text-anchor: middle; visibility: hidden; font-family: Roboto, sans-serif; font-size: 12px; font-weight: 200;" fill="rgb(33, 33, 33)" stroke="none" stroke-width="1px">180</text><text x="256.66666666666663" y="0" dx="0em" dy="0.95em" style="text-anchor: middle; visibility: inherit; font-family: Roboto, sans-serif; font-size: 12px; font-weight: 200;" fill="rgb(33, 33, 33)" stroke="none" stroke-width="1px">200</text><text x="280" y="0" dx="0em" dy="0.95em" style="text-anchor: middle; visibility: hidden; font-family: Roboto, sans-serif; font-size: 12px; font-weight: 200;" fill="rgb(33, 33, 33)" stroke="none" stroke-width="1px">220</text></g><line x1="0" y1="0" x2="280" y2="0" fill="rgb(0, 0, 0)" stroke="rgb(204, 204, 204)" stroke-width="1px"></line></g></g></g></g></svg>