<svg viewBox="0 0 640 400" xmlns="http://www.w3.org/2000/svg"><g><g><g><g><g><line x1="50" y1="377" x2="45" y2="377" style="visibility: inherit;" fill="rgb(0, 0, 0)" stroke="rgb(204, 204, 204)" stroke-width="1px"></line><line x1="50" y1="335.11111111111114" x2="45" y2="335.11111111111114" style="visibility: inherit;" fill="rgb(0, 0, 0)" stroke="rgb(204, 204, 204)" stroke-width="1px"></line><line x1="50" y1="293.2222222222223" x2="45" y2="293.2222222222223" style="visibility: inherit;" fill="rgb(0, 0, 0)" stroke="rgb(204, 204, 204)" stroke-width="1px"></line><line x1="50" y1="251.33333333333337" x2="45" y2="251.33333333333337" style="visibility: inherit;" fill="rgb(0, 0, 0)" stroke="rgb(204, 204, 204)" stroke-width="1px"></line><line x1="50" y1="209.44444444444446" x2="45" y2="209.44444444444446" style="visibility: inherit;" fill="rgb(0, 0, 0)" stroke="rgb(204, 204, 204)" stroke-width="1px"></line><line x1="50" y1="167.55555555555554" x2="45" y2="167.55555555555554" style="visibility: inherit;" fill="rgb(0, 0, 0)" stroke="rgb(204, 204, 204)" stroke-width="1px"></line><line x1="50" y1="125.66666666666669" x2="45" y2="125.66666666666669" style="visibility: inherit;" fill="rgb(0, 0, 0)" stroke="rgb(204, 204, 204)" stroke-width="1px"></line><line x1="50" y1="83.77777777777777" x2="45" y2="83.77777777777777" style="visibility: inherit;" fill="rgb(0, 0, 0)" stroke="rgb(204, 204, 204)" stroke-width="1px"></line><line x1="50" y1="41.88888888888891" x2="45" y2="41.88888888888891" style="visibility: inherit;" fill="rgb(0, 0, 0)" stroke="rgb(204, 204, 204)" stroke-width="1px"></line><line x1="50" y1="0" x2="45" y2="0" style="visibility: inherit;" fill="rgb(0, 0, 0)" stroke="rgb(204, 204, 204)" stroke-width="1px"></line></g><g transform="translate(40, 0)"><text x="0" y="377" dx="0em" dy="0.3em" style="text-anchor: end; visibility: hidden; font-family: Roboto, sans-serif; font-size: 12px; font-weight: 200;" fill="rgb(33, 33, 33)" stroke="none" stroke-width="1px">0.2</text><text x="0" y="335.11111111111114" dx="0em" dy="0.3em" style="text-anchor: end; visibility: inherit; font-family: Roboto, sans-serif; font-size: 12px; font-weight: 200;" fill="rgb(33, 33, 33)" stroke="none" stroke-width="1px">0.25</text><text x="0" y="293.2222222222223" dx="0em" dy="0.3em" style="text-anchor: end; visibility: inherit; font-family: Roboto, sans-serif; font-size: 12px; font-weight: 200;" fill="rgb(33, 33, 33)" stroke="none" stroke-width="1px">0.3</text><text x="0" y="251.33333333333337" dx="0em" dy="0.3em" style="text-anchor: end; visibility: inherit; font-family: Roboto, sans-serif; font-size: 12px; font-weight: 200;" fill="rgb(33, 33, 33)" stroke="none" stroke-width="1px">0.35</text><text x="0" y="209.44444444444446" dx="0em" dy="0.3em" style="text-anchor: end; visibility: inherit; font-family: Roboto, sans-serif; font-size: 12px; font-weight: 200;" fill="rgb(33, 33, 33)" stroke="none" stroke-width="1px">0.4</text><text x="0" y="167.55555555555554" dx="0em" dy="0.3em" style="text-anchor: end; visibility: inherit; font-family: Roboto, sans-serif; font-size: 12px; font-weight: 200;" fill="rgb(33, 33, 33)" stroke="none" stroke-width="1px">0.45</text><text x="0" y="125.66666666666669" dx="0em" dy="0.3em" style="text-anchor: end; visibility: inherit; font-family: Roboto, sans-serif; font-size: 12px; font-weight: 200;" fill="rgb(33, 33, 33)" stroke="none" stroke-width="1px">0.5</text><text x="0" y="83.77777777777777" dx="0em" dy="0.3em" style="text-anchor: end; visibility: inherit; font-family: Roboto, sans-serif; font-size: 12px; font-weight: 200;" fill="rgb(33, 33, 33)" stroke="none" stroke-width="1px">0.55</text><text x="0" y="41.88888888888891" dx="0em" dy="0.3em" style="text-anchor: end; visibility: inherit; font-family: Roboto, sans-serif; font-size: 12px; font-weight: 200;" fill="rgb(33, 33, 33)" stroke="none" stroke-width="1px">0.6</text><text x="0" y="0" dx="0em" dy="0.3em" style="text-anchor: end; visibility: hidden; font-family: Roboto, sans-serif; font-size: 12px; font-weight: 200;" fill="rgb(33, 33, 33)" stroke="none" stroke-width="1px">0.65</text></g><line x1="50" y1="0" x2="50" y2="377" fill="rgb(0, 0, 0)" stroke="rgb(204, 204, 204)" stroke-width="1px"></line></g></g><g transform="translate(50, 0)" clip-path="url(#clip_0)"><clipPath id="clip_0"><rect width="590" height="377"></rect></clipPath><g><g><g><line x1="0" y1="0" x2="0" y2="377" fill="rgb(0, 0, 0)" stroke="rgb(66, 66, 66)" stroke-width="1px" opacity="0.25"></line><line x1="59" y1="0" x2="59" y2="377" fill="rgb(0, 0, 0)" stroke="rgb(66, 66, 66)" stroke-width="1px" opacity="0.25"></line><line x1="118" y1="0" x2="118" y2="377" fill="rgb(0, 0, 0)" stroke="rgb(66, 66, 66)" stroke-width="1px" opacity="0.25"></line><line x1="177" y1="0" x2="177" y2="377" fill="rgb(0, 0, 0)" stroke="rgb(66, 66, 66)" stroke-width="1px" opacity="0.25"></line><line x1="236" y1="0" x2="236" y2="377" fill="rgb(0, 0, 0)" stroke="rgb(66, 66, 66)" stroke-width="1px" opacity="0.25"></line><line x1="295" y1="0" x2="295" y2="377" fill="rgb(0, 0, 0)" stroke="rgb(66, 66, 66)" stroke-width="1px" opacity="0.25"></line><line x1="354" y1="0" x2="354" y2="377" fill="rgb(0, 0, 0)" stroke="rgb(66, 66, 66)" stroke-width="1px" opacity="0.25"></line><line x1="413" y1="0" x2="413" y2="377" fill="rgb(0, 0, 0)" stroke="rgb(66, 66, 66)" stroke-width="1px" opacity="0.25"></line><line x1="472" y1="0" x2="472" y2="377" fill="rgb(0, 0, 0)" stroke="rgb(66, 66, 66)" stroke-width="1px" opacity="0.25"></line><line x1="531" y1="0" x2="531" y2="377" fill="rgb(0, 0, 0)" stroke="rgb(66, 66, 66)" stroke-width="1px" opacity="0.25"></line><line x1="590" y1="0" x2="590" y2="377" fill="rgb(0, 0, 0)" stroke="rgb(66, 66, 66)" stroke-width="1px" opacity="0.25"></line></g><g><line x1="0" y1="377" x2="590" y2="377" fill="rgb(0, 0, 0)" stroke="rgb(66, 66, 66)" stroke-width="1px" opacity="0.25"></line><line x1="0" y1="335.11111111111114" x2="590" y2="335.11111111111114" fill="rgb(0, 0, 0)" stroke="rgb(66, 66, 66)" stroke-width="1px" opacity="0.25"></line><line x1="0" y1="293.2222222222223" x2="590" y2="293.2222222222223" fill="rgb(0, 0, 0)" stroke="rgb(66, 66, 66)" stroke-width="1px" opacity="0.25"></line><line x1="0" y1="251.33333333333337" x2="590" y2="251.33333333333337" fill="rgb(0, 0, 0)" stroke="rgb(66, 66, 66)" stroke-width="1px" opacity="0.25"></line><line x1="0" y1="209.44444444444446" x2="590" y2="209.44444444444446" fill="rgb(0, 0, 0)" stroke="rgb(66, 66, 66)" stroke-width="1px" opacity="0.25"></line><line x1="0" y1="167.55555555555554" x2="590" y2="167.55555555555554" fill="rgb(0, 0, 0)" stroke="rgb(66, 66, 66)" stroke-width="1px" opacity="0.25"></line><line x1="0" y1="125.66666666666669" x2="590" y2="125.66666666666669" fill="rgb(0, 0, 0)" stroke="rgb(66, 66, 66)" stroke-width="1px" opacity="0.25"></line><line x1="0" y1="83.77777777777777" x2="590" y2="83.77777777777777" fill="rgb(0, 0, 0)" stroke="rgb(66, 66, 66)" stroke-width="1px" opacity="0.25"></line><line x1="0" y1="41.88888888888891" x2="590" y2="41.88888888888891" fill="rgb(0, 0, 0)" stroke="rgb(66, 66, 66)" stroke-width="1px" opacity="0.25"></line><line x1="0" y1="0" x2="590" y2="0" fill="rgb(0, 0, 0)" stroke="rgb(66, 66, 66)" stroke-width="1px" opacity="0.25"></line></g></g></g><g><g><line x1="0" y1="544.5555555555555" x2="590" y2="544.5555555555555" fill="rgb(0, 0, 0)" stroke="rgb(153, 153, 153)" stroke-width="1.5px"></line></g></g><g><g><line x1="59" y1="0" x2="59" y2="377" fill="rgb(0, 0, 0)" stroke="rgb(153, 153, 153)" stroke-width="1.5px"></line></g></g><g><g><g><g><g><path stroke="rgb(0, 119, 187)" stroke-width="2px" d="M70.8,-6.338749980169579L76.7,29.00630478794673L82.60000000000001,49.9194881694155L88.5,57.71540642077032L94.4,81.22681343826332L100.30000000000001,100.38532281582343L106.2,120.0438285274142L112.1,136.11845389077973L118,156.15796548027714L123.89999999999999,174.92132967926116L129.8,186.09175308420677L135.70000000000002,204.17493548117463L141.6,214.9745053011031L147.5,230.05323601920097L153.4,227.30176131560995L159.3,236.4216265444553L165.20000000000002,244.88334954578102L171.1,257.7055140822769L177,262.44625439833464L182.9,263.4501270522644L188.8,265.46255044638747L194.70000000000002,271.7045298921323L200.60000000000002,270.22493797276877L206.5,272.35755614213826L212.4,279.94045266092104L218.3,281.1102928227572L224.2,275.8565233526206L230.1,282.48392259430676L236,274.4553388848246L241.89999999999998,278.62882757056167L247.79999999999998,282.0603616808784L253.7,291.22627480843204L259.6,291.249571747761L265.5,290.1033297529559L271.40000000000003,293.6239243338274L277.3,294.08435655809814L283.2,297.9504751732629L289.1,296.3255955789365L295,295.8308670551577L300.9,292.5667058947471L306.8,290.5189445946998L312.7,299.1610975042684L318.6,299.45912716909254L324.5,299.6106802139881L330.40000000000003,303.9728404869799L336.29999999999995,305.99418705382834L342.2,312.1129129563666L348.09999999999997,282.0092104440089L354,295.04630585177705L359.9,298.1638450364202L365.8,290.0559679459018L371.7,296.0060810017273L377.6,301.52698692420915L383.5,308.34088416540754L389.40000000000003,316.4086681530211L395.3,314.2692818888556L401.20000000000005,309.2385341474527L407.09999999999997,296.37714978153133L413,307.6592486360683L418.9,313.28990985109505L424.8,303.3312977594711L430.7,292.6487059433142L436.6,296.59658147063465L442.5,305.73131015731195L448.4,302.2506322075921L454.3,304.2767564514609L460.2,305.9212965894672L466.1,306.4896614986022L472,308.05669553502554L477.90000000000003,304.547348056116L483.79999999999995,306.0221510559257L489.7,306.0494215175141L495.59999999999997,308.2433288121333L501.5,306.8634586719473L507.4,307.8043100376275L513.3,307.3013907581841L519.2,306.68172017463365L525.1,305.9111033847298L531,305.40145442971453L536.9,305.39030416727053" style="fill: none;" fill="none"></path></g><g><path stroke="rgb(255, 112, 67)" stroke-width="2px" d="M70.8,-21.937054938469885L76.7,1.541570361046277L82.60000000000001,23.368405637896338L88.5,40.38519109033472L94.4,56.32329781522327L100.30000000000001,74.7137567807553L106.2,87.01210891952437L112.1,101.03300333660299L118,117.78616776573263L123.89999999999999,133.22981869734767L129.8,144.6784690573569L135.70000000000002,158.7193733678454L141.6,168.32231633335488L147.5,172.8148509238575L153.4,185.1248900219625L159.3,192.28077231025927L165.20000000000002,200.0920031473429L171.1,204.4049861084376L177,208.70570809599562L182.9,210.0283402528252L188.8,216.09765000275652L194.70000000000002,220.649342930488L200.60000000000002,225.68449279705428L206.5,230.17848199507662L212.4,234.43069094323639L218.3,236.69509426011143L224.2,239.8750415712247L230.1,240.3665999322175L236,246.11261881209887L241.89999999999998,246.71205135676078L247.79999999999998,252.39903430573415L253.7,256.3008409716618L259.6,259.4017426719297L265.5,262.2368737841034L271.40000000000003,262.4027869808309L277.3,261.518267030668L283.2,262.68880580503037L289.1,268.29288242065644L295,270.344922388076L300.9,271.57549720666503L306.8,273.9366342623927L312.7,273.9721619579528L318.6,274.8668395536081L324.5,280.3351509966051L330.40000000000003,281.48942712932745L336.29999999999995,283.02197693451325L342.2,283.07762358716985L348.09999999999997,285.11745778137555L354,284.94157783900744L359.9,287.0352469010119L365.8,292.8131829467627L371.7,295.09085175266057L377.6,298.11020646879047L383.5,299.8709250910426L389.40000000000003,302.9965813107637L395.3,301.68753167474335L401.20000000000005,304.42784405308095L407.09999999999997,308.15561796096597L413,306.50323979577L418.9,310.7251334698235L424.8,314.22560916345066L430.7,315.46776391268224L436.6,317.54390633027026L442.5,314.87968624120447L448.4,315.1599653882248L454.3,324.0058748808316L460.2,329.48604741613934L466.1,332.9954049152055L472,335.01138528755814L477.90000000000003,335.83037844574693L483.79999999999995,334.5277235676753L489.7,332.577002010936L495.59999999999997,335.6256099872953L501.5,337.40984285803967L507.4,334.50577568239044L513.3,332.8105842968057L519.2,334.27626986968573L525.1,332.5977379487703L531,332.31170662284393L536.9,335.4471926267707" style="fill: none;" fill="none"></path></g></g></g></g><g opacity="0.2"><g><g><g><path stroke="rgb(0, 119, 187)" stroke-width="2px" d="M64.9,-22.235135926140643L70.8,13.329538477791685L76.7,70.57208919525146L82.60000000000001,77.2237403922611L88.5,68.4999678929647L94.4,114.84850165579057L100.30000000000001,128.31861340999603L106.2,149.03630598386133L112.1,159.98739915423926L118,186.03547596931458L123.89999999999999,202.96426657835644L129.8,202.81091482109497L135.70000000000002,231.26428223980798L141.6,231.16116554207275L147.5,252.66069740719263L153.4,223.17571359210547L159.3,250.09910885492963L165.20000000000002,257.5746449894375L171.1,276.9375888903936L177,269.55710487895544L182.9,264.95590300030176L188.8,268.4811458057827L194.70000000000002,281.06742511855236L200.60000000000002,268.0055606100294L206.5,275.5564743015501L212.4,291.31477803654144L218.3,282.86505126953125L224.2,267.97587398688L230.1,292.4250177939733L236,262.412465982967L241.89999999999998,284.8890597687828L247.79999999999998,287.2076624366972L253.7,304.975143843227L259.6,291.2845171557533L265.5,288.3839667903053L271.40000000000003,298.9048161506653L277.3,294.77500489023L283.2,303.74965307447644L289.1,293.888276192877L295,295.08877427048157L300.9,287.67046415805817L306.8,287.4473026461072L312.7,312.12432686487836L318.6,299.90617166625134L324.5,299.8380097813077L330.40000000000003,310.5160808960597L336.29999999999995,309.0262069039875L342.2,321.2910018099679L348.09999999999997,236.8536566760805L354,314.60194896327124L359.9,302.8401538133621L365.8,277.8941523101595L371.7,304.9312505854501L377.6,309.8083458079232L383.5,318.5617300271988L389.40000000000003,328.5103441344367L395.3,311.06020249260797L401.20000000000005,301.69241253534955L407.09999999999997,277.08507323265076L413,324.582396917873L418.9,321.7359016736349L424.8,288.3933796220356L430.7,276.6248182190789L436.6,302.51839476161535L442.5,319.43340318732794L448.4,297.0296152830124L454.3,307.31594281726416L460.2,308.38810679647656L466.1,307.3422088623047L472,310.40724658966064L477.90000000000003,299.2833268377516L483.79999999999995,308.2343555556403L489.7,306.09032720989654L495.59999999999997,311.53418975406225L501.5,304.7936534616682L507.4,309.21558708614776L513.3,306.5470118390189L519.2,305.752214299308L525.1,304.7551781998741L531,304.6369809971916L536.9,305.37357877360455" style="fill: none;" fill="none"></path></g><g><path stroke="rgb(255, 112, 67)" stroke-width="2px" d="M70.8,-9.55687552028234L76.7,29.15243371327721L82.60000000000001,51.86552177535167L88.5,63.92553141382007L94.4,79.11504544152154L100.30000000000001,101.52722250090704L106.2,105.14978949228924L112.1,121.85239749484595L118,142.76396444108752L123.89999999999999,156.3112514283922L129.8,161.81406276755865L135.70000000000002,179.75322224034204L141.6,182.7154428826438L147.5,179.5504843261507L153.4,203.58473947313098L159.3,203.01277886496655L165.20000000000002,211.80765944057043L171.1,210.87406632635327L177,215.1565552155177L182.9,212.01224496629504L188.8,225.20149479971997L194.70000000000002,227.4768284029431L200.60000000000002,233.23718180921344L206.5,236.919446627299L212.4,240.80899348523883L218.3,240.0916957590315L224.2,244.6449596087138L230.1,241.10393720202978L236,254.73164522647858L241.89999999999998,247.61120005448663L247.79999999999998,260.92950805028283L253.7,262.15355069107477L259.6,264.05309508906475L265.5,266.4895703792572L271.40000000000003,262.6516567733553L277.3,260.19148711363476L283.2,264.4446139600542L289.1,276.6989973253674L295,273.42298233509064L300.9,273.4213594330682L306.8,277.47833984427984L312.7,274.0254535012775L318.6,276.20885594685876L324.5,288.5376181602478L330.40000000000003,283.22084132830304L336.29999999999995,285.320801642206L342.2,283.1610935661528L348.09999999999997,288.1772090726429L354,284.67775792545746L359.9,290.1757504940033L365.8,301.4800870153639L371.7,298.5073549615013L377.6,302.63923854298065L383.5,302.5120030244192L389.40000000000003,307.68506564034357L395.3,299.7239572207133L401.20000000000005,308.53831262058685L407.09999999999997,313.7472788227929L413,304.0246725479762L418.9,317.0579739809036L424.8,319.47632270389136L430.7,317.33099603652954L436.6,320.65811995665234L442.5,310.88335610760583L448.4,315.5803841087553L454.3,337.27473911974164L460.2,337.70630621910095L466.1,338.2594411638048L472,338.03535584608716L477.90000000000003,337.05886818303003L483.79999999999995,332.573741250568L489.7,329.650919675827L495.59999999999997,340.1985219518344L501.5,340.08619216415616L507.4,330.1496749189165L513.3,330.2677972184287L519.2,336.4747982290056L525.1,330.0799400673972L531,331.8826596339544L536.9,340.15042163266077" style="fill: none;" fill="none"></path></g></g></g></g></g><g><g opacity="0.136869"><span fill="rgb(0, 0, 0)" stroke="none" stroke-width="1px">Alt + Scroll to Zoom</span></g></g></g><g transform="translate(50, 377)" clip-path="url(#clip_1)"><clipPath id="clip_1"><rect width="590" height="23"></rect></clipPath><g><g><line x1="0" y1="0" x2="0" y2="5" style="visibility: inherit;" fill="rgb(0, 0, 0)" stroke="rgb(204, 204, 204)" stroke-width="1px"></line><line x1="59" y1="0" x2="59" y2="5" style="visibility: inherit;" fill="rgb(0, 0, 0)" stroke="rgb(204, 204, 204)" stroke-width="1px"></line><line x1="118" y1="0" x2="118" y2="5" style="visibility: inherit;" fill="rgb(0, 0, 0)" stroke="rgb(204, 204, 204)" stroke-width="1px"></line><line x1="177" y1="0" x2="177" y2="5" style="visibility: inherit;" fill="rgb(0, 0, 0)" stroke="rgb(204, 204, 204)" stroke-width="1px"></line><line x1="236" y1="0" x2="236" y2="5" style="visibility: inherit;" fill="rgb(0, 0, 0)" stroke="rgb(204, 204, 204)" stroke-width="1px"></line><line x1="295" y1="0" x2="295" y2="5" style="visibility: inherit;" fill="rgb(0, 0, 0)" stroke="rgb(204, 204, 204)" stroke-width="1px"></line><line x1="354" y1="0" x2="354" y2="5" style="visibility: inherit;" fill="rgb(0, 0, 0)" stroke="rgb(204, 204, 204)" stroke-width="1px"></line><line x1="413" y1="0" x2="413" y2="5" style="visibility: inherit;" fill="rgb(0, 0, 0)" stroke="rgb(204, 204, 204)" stroke-width="1px"></line><line x1="472" y1="0" x2="472" y2="5" style="visibility: inherit;" fill="rgb(0, 0, 0)" stroke="rgb(204, 204, 204)" stroke-width="1px"></line><line x1="531" y1="0" x2="531" y2="5" style="visibility: inherit;" fill="rgb(0, 0, 0)" stroke="rgb(204, 204, 204)" stroke-width="1px"></line><line x1="590" y1="0" x2="590" y2="5" style="visibility: inherit;" fill="rgb(0, 0, 0)" stroke="rgb(204, 204, 204)" stroke-width="1px"></line></g><g transform="translate(0, 8)"><text x="0" y="0" dx="0em" dy="0.95em" style="text-anchor: middle; visibility: hidden; font-family: Roboto, sans-serif; font-size: 12px; font-weight: 200;" fill="rgb(33, 33, 33)" stroke="none" stroke-width="1px">-10</text><text x="59" y="0" dx="0em" dy="0.95em" style="text-anchor: middle; visibility: inherit; font-family: Roboto, sans-serif; font-size: 12px; font-weight: 200;" fill="rgb(33, 33, 33)" stroke="none" stroke-width="1px">0</text><text x="118" y="0" dx="0em" dy="0.95em" style="text-anchor: middle; visibility: inherit; font-family: Roboto, sans-serif; font-size: 12px; font-weight: 200;" fill="rgb(33, 33, 33)" stroke="none" stroke-width="1px">10</text><text x="177" y="0" dx="0em" dy="0.95em" style="text-anchor: middle; visibility: inherit; font-family: Roboto, sans-serif; font-size: 12px; font-weight: 200;" fill="rgb(33, 33, 33)" stroke="none" stroke-width="1px">20</text><text x="236" y="0" dx="0em" dy="0.95em" style="text-anchor: middle; visibility: inherit; font-family: Roboto, sans-serif; font-size: 12px; font-weight: 200;" fill="rgb(33, 33, 33)" stroke="none" stroke-width="1px">30</text><text x="295" y="0" dx="0em" dy="0.95em" style="text-anchor: middle; visibility: inherit; font-family: Roboto, sans-serif; font-size: 12px; font-weight: 200;" fill="rgb(33, 33, 33)" stroke="none" stroke-width="1px">40</text><text x="354" y="0" dx="0em" dy="0.95em" style="text-anchor: middle; visibility: inherit; font-family: Roboto, sans-serif; font-size: 12px; font-weight: 200;" fill="rgb(33, 33, 33)" stroke="none" stroke-width="1px">50</text><text x="413" y="0" dx="0em" dy="0.95em" style="text-anchor: middle; visibility: inherit; font-family: Roboto, sans-serif; font-size: 12px; font-weight: 200;" fill="rgb(33, 33, 33)" stroke="none" stroke-width="1px">60</text><text x="472" y="0" dx="0em" dy="0.95em" style="text-anchor: middle; visibility: inherit; font-family: Roboto, sans-serif; font-size: 12px; font-weight: 200;" fill="rgb(33, 33, 33)" stroke="none" stroke-width="1px">70</text><text x="531" y="0" dx="0em" dy="0.95em" style="text-anchor: middle; visibility: inherit; font-family: Roboto, sans-serif; font-size: 12px; font-weight: 200;" fill="rgb(33, 33, 33)" stroke="none" stroke-width="1px">80</text><text x="590" y="0" dx="0em" dy="0.95em" style="text-anchor: middle; visibility: hidden; font-family: Roboto, sans-serif; font-size: 12px; font-weight: 200;" fill="rgb(33, 33, 33)" stroke="none" stroke-width="1px">90</text></g><line x1="0" y1="0" x2="590" y2="0" fill="rgb(0, 0, 0)" stroke="rgb(204, 204, 204)" stroke-width="1px"></line></g></g></g></g></svg>