<svg viewBox="0 0 640 400" xmlns="http://www.w3.org/2000/svg"><g><g><g><g><g><line x1="50" y1="377" x2="45" y2="377" style="visibility: inherit;" fill="rgb(0, 0, 0)" stroke="rgb(204, 204, 204)" stroke-width="1px"></line><line x1="50" y1="345.5833333333335" x2="45" y2="345.5833333333335" style="visibility: inherit;" fill="rgb(0, 0, 0)" stroke="rgb(204, 204, 204)" stroke-width="1px"></line><line x1="50" y1="314.1666666666668" x2="45" y2="314.1666666666668" style="visibility: inherit;" fill="rgb(0, 0, 0)" stroke="rgb(204, 204, 204)" stroke-width="1px"></line><line x1="50" y1="282.75000000000006" x2="45" y2="282.75000000000006" style="visibility: inherit;" fill="rgb(0, 0, 0)" stroke="rgb(204, 204, 204)" stroke-width="1px"></line><line x1="50" y1="251.33333333333337" x2="45" y2="251.33333333333337" style="visibility: inherit;" fill="rgb(0, 0, 0)" stroke="rgb(204, 204, 204)" stroke-width="1px"></line><line x1="50" y1="219.9166666666667" x2="45" y2="219.9166666666667" style="visibility: inherit;" fill="rgb(0, 0, 0)" stroke="rgb(204, 204, 204)" stroke-width="1px"></line><line x1="50" y1="188.5" x2="45" y2="188.5" style="visibility: inherit;" fill="rgb(0, 0, 0)" stroke="rgb(204, 204, 204)" stroke-width="1px"></line><line x1="50" y1="157.08333333333348" x2="45" y2="157.08333333333348" style="visibility: inherit;" fill="rgb(0, 0, 0)" stroke="rgb(204, 204, 204)" stroke-width="1px"></line><line x1="50" y1="125.66666666666677" x2="45" y2="125.66666666666677" style="visibility: inherit;" fill="rgb(0, 0, 0)" stroke="rgb(204, 204, 204)" stroke-width="1px"></line><line x1="50" y1="94.25000000000009" x2="45" y2="94.25000000000009" style="visibility: inherit;" fill="rgb(0, 0, 0)" stroke="rgb(204, 204, 204)" stroke-width="1px"></line><line x1="50" y1="62.8333333333334" x2="45" y2="62.8333333333334" style="visibility: inherit;" fill="rgb(0, 0, 0)" stroke="rgb(204, 204, 204)" stroke-width="1px"></line><line x1="50" y1="31.416666666666682" x2="45" y2="31.416666666666682" style="visibility: inherit;" fill="rgb(0, 0, 0)" stroke="rgb(204, 204, 204)" stroke-width="1px"></line><line x1="50" y1="0" x2="45" y2="0" style="visibility: inherit;" fill="rgb(0, 0, 0)" stroke="rgb(204, 204, 204)" stroke-width="1px"></line></g><g transform="translate(40, 0)"><text x="0" y="377" dx="0em" dy="0.3em" style="text-anchor: end; visibility: hidden; font-family: Roboto, sans-serif; font-size: 12px; font-weight: 200;" fill="rgb(33, 33, 33)" stroke="none" stroke-width="1px">0.68</text><text x="0" y="345.5833333333335" dx="0em" dy="0.3em" style="text-anchor: end; visibility: inherit; font-family: Roboto, sans-serif; font-size: 12px; font-weight: 200;" fill="rgb(33, 33, 33)" stroke="none" stroke-width="1px">0.7</text><text x="0" y="314.1666666666668" dx="0em" dy="0.3em" style="text-anchor: end; visibility: inherit; font-family: Roboto, sans-serif; font-size: 12px; font-weight: 200;" fill="rgb(33, 33, 33)" stroke="none" stroke-width="1px">0.72</text><text x="0" y="282.75000000000006" dx="0em" dy="0.3em" style="text-anchor: end; visibility: inherit; font-family: Roboto, sans-serif; font-size: 12px; font-weight: 200;" fill="rgb(33, 33, 33)" stroke="none" stroke-width="1px">0.74</text><text x="0" y="251.33333333333337" dx="0em" dy="0.3em" style="text-anchor: end; visibility: inherit; font-family: Roboto, sans-serif; font-size: 12px; font-weight: 200;" fill="rgb(33, 33, 33)" stroke="none" stroke-width="1px">0.76</text><text x="0" y="219.9166666666667" dx="0em" dy="0.3em" style="text-anchor: end; visibility: inherit; font-family: Roboto, sans-serif; font-size: 12px; font-weight: 200;" fill="rgb(33, 33, 33)" stroke="none" stroke-width="1px">0.78</text><text x="0" y="188.5" dx="0em" dy="0.3em" style="text-anchor: end; visibility: inherit; font-family: Roboto, sans-serif; font-size: 12px; font-weight: 200;" fill="rgb(33, 33, 33)" stroke="none" stroke-width="1px">0.8</text><text x="0" y="157.08333333333348" dx="0em" dy="0.3em" style="text-anchor: end; visibility: inherit; font-family: Roboto, sans-serif; font-size: 12px; font-weight: 200;" fill="rgb(33, 33, 33)" stroke="none" stroke-width="1px">0.82</text><text x="0" y="125.66666666666677" dx="0em" dy="0.3em" style="text-anchor: end; visibility: inherit; font-family: Roboto, sans-serif; font-size: 12px; font-weight: 200;" fill="rgb(33, 33, 33)" stroke="none" stroke-width="1px">0.84</text><text x="0" y="94.25000000000009" dx="0em" dy="0.3em" style="text-anchor: end; visibility: inherit; font-family: Roboto, sans-serif; font-size: 12px; font-weight: 200;" fill="rgb(33, 33, 33)" stroke="none" stroke-width="1px">0.86</text><text x="0" y="62.8333333333334" dx="0em" dy="0.3em" style="text-anchor: end; visibility: inherit; font-family: Roboto, sans-serif; font-size: 12px; font-weight: 200;" fill="rgb(33, 33, 33)" stroke="none" stroke-width="1px">0.88</text><text x="0" y="31.416666666666682" dx="0em" dy="0.3em" style="text-anchor: end; visibility: inherit; font-family: Roboto, sans-serif; font-size: 12px; font-weight: 200;" fill="rgb(33, 33, 33)" stroke="none" stroke-width="1px">0.9</text><text x="0" y="0" dx="0em" dy="0.3em" style="text-anchor: end; visibility: hidden; font-family: Roboto, sans-serif; font-size: 12px; font-weight: 200;" fill="rgb(33, 33, 33)" stroke="none" stroke-width="1px">0.92</text></g><line x1="50" y1="0" x2="50" y2="377" fill="rgb(0, 0, 0)" stroke="rgb(204, 204, 204)" stroke-width="1px"></line></g></g><g transform="translate(50, 0)" clip-path="url(#clip_0)"><clipPath id="clip_0"><rect width="590" height="377"></rect></clipPath><g><g><g><line x1="0" y1="0" x2="0" y2="377" fill="rgb(0, 0, 0)" stroke="rgb(66, 66, 66)" stroke-width="1px" opacity="0.25"></line><line x1="59" y1="0" x2="59" y2="377" fill="rgb(0, 0, 0)" stroke="rgb(66, 66, 66)" stroke-width="1px" opacity="0.25"></line><line x1="118" y1="0" x2="118" y2="377" fill="rgb(0, 0, 0)" stroke="rgb(66, 66, 66)" stroke-width="1px" opacity="0.25"></line><line x1="177" y1="0" x2="177" y2="377" fill="rgb(0, 0, 0)" stroke="rgb(66, 66, 66)" stroke-width="1px" opacity="0.25"></line><line x1="236" y1="0" x2="236" y2="377" fill="rgb(0, 0, 0)" stroke="rgb(66, 66, 66)" stroke-width="1px" opacity="0.25"></line><line x1="295" y1="0" x2="295" y2="377" fill="rgb(0, 0, 0)" stroke="rgb(66, 66, 66)" stroke-width="1px" opacity="0.25"></line><line x1="354" y1="0" x2="354" y2="377" fill="rgb(0, 0, 0)" stroke="rgb(66, 66, 66)" stroke-width="1px" opacity="0.25"></line><line x1="413" y1="0" x2="413" y2="377" fill="rgb(0, 0, 0)" stroke="rgb(66, 66, 66)" stroke-width="1px" opacity="0.25"></line><line x1="472" y1="0" x2="472" y2="377" fill="rgb(0, 0, 0)" stroke="rgb(66, 66, 66)" stroke-width="1px" opacity="0.25"></line><line x1="531" y1="0" x2="531" y2="377" fill="rgb(0, 0, 0)" stroke="rgb(66, 66, 66)" stroke-width="1px" opacity="0.25"></line><line x1="590" y1="0" x2="590" y2="377" fill="rgb(0, 0, 0)" stroke="rgb(66, 66, 66)" stroke-width="1px" opacity="0.25"></line></g><g><line x1="0" y1="377" x2="590" y2="377" fill="rgb(0, 0, 0)" stroke="rgb(66, 66, 66)" stroke-width="1px" opacity="0.25"></line><line x1="0" y1="345.5833333333335" x2="590" y2="345.5833333333335" fill="rgb(0, 0, 0)" stroke="rgb(66, 66, 66)" stroke-width="1px" opacity="0.25"></line><line x1="0" y1="314.1666666666668" x2="590" y2="314.1666666666668" fill="rgb(0, 0, 0)" stroke="rgb(66, 66, 66)" stroke-width="1px" opacity="0.25"></line><line x1="0" y1="282.75000000000006" x2="590" y2="282.75000000000006" fill="rgb(0, 0, 0)" stroke="rgb(66, 66, 66)" stroke-width="1px" opacity="0.25"></line><line x1="0" y1="251.33333333333337" x2="590" y2="251.33333333333337" fill="rgb(0, 0, 0)" stroke="rgb(66, 66, 66)" stroke-width="1px" opacity="0.25"></line><line x1="0" y1="219.9166666666667" x2="590" y2="219.9166666666667" fill="rgb(0, 0, 0)" stroke="rgb(66, 66, 66)" stroke-width="1px" opacity="0.25"></line><line x1="0" y1="188.5" x2="590" y2="188.5" fill="rgb(0, 0, 0)" stroke="rgb(66, 66, 66)" stroke-width="1px" opacity="0.25"></line><line x1="0" y1="157.08333333333348" x2="590" y2="157.08333333333348" fill="rgb(0, 0, 0)" stroke="rgb(66, 66, 66)" stroke-width="1px" opacity="0.25"></line><line x1="0" y1="125.66666666666677" x2="590" y2="125.66666666666677" fill="rgb(0, 0, 0)" stroke="rgb(66, 66, 66)" stroke-width="1px" opacity="0.25"></line><line x1="0" y1="94.25000000000009" x2="590" y2="94.25000000000009" fill="rgb(0, 0, 0)" stroke="rgb(66, 66, 66)" stroke-width="1px" opacity="0.25"></line><line x1="0" y1="62.8333333333334" x2="590" y2="62.8333333333334" fill="rgb(0, 0, 0)" stroke="rgb(66, 66, 66)" stroke-width="1px" opacity="0.25"></line><line x1="0" y1="31.416666666666682" x2="590" y2="31.416666666666682" fill="rgb(0, 0, 0)" stroke="rgb(66, 66, 66)" stroke-width="1px" opacity="0.25"></line><line x1="0" y1="0" x2="590" y2="0" fill="rgb(0, 0, 0)" stroke="rgb(66, 66, 66)" stroke-width="1px" opacity="0.25"></line></g></g></g><g><g><line x1="0" y1="1445.1666666666667" x2="590" y2="1445.1666666666667" fill="rgb(0, 0, 0)" stroke="rgb(153, 153, 153)" stroke-width="1.5px"></line></g></g><g><g><line x1="59" y1="0" x2="59" y2="377" fill="rgb(0, 0, 0)" stroke="rgb(153, 153, 153)" stroke-width="1.5px"></line></g></g><g><g><g><g><g><path stroke="rgb(0, 119, 187)" stroke-width="2px" d="M70.8,456.9114123809907L76.7,338.8106772810147L82.60000000000001,308.30192395294677L88.5,322.74597362394485L94.4,274.55302137347246L100.30000000000001,238.38184532046859L106.2,219.38002831970638L112.1,198.90725640808017L118,178.6770275388412L123.89999999999999,153.99185851842807L129.8,136.92735761773778L135.70000000000002,123.27297489815253L141.6,105.94351213271023L147.5,97.83654176703297L153.4,116.96880872972172L159.3,94.16988295645618L165.20000000000002,77.06453116036724L171.1,77.08417150838068L177,70.24126596908417L182.9,61.56586595919958L188.8,73.49718165942184L194.70000000000002,61.23462514997914L200.60000000000002,72.15595084540334L206.5,62.714774967163535L212.4,63.90462568048241L218.3,74.90035001939621L224.2,82.64020387505713L230.1,78.14472711943239L236,90.29894466008523L241.89999999999998,83.88239522653409L247.79999999999998,77.74761947828003L253.7,66.06979191722681L259.6,70.48732732035482L265.5,75.42269484304349L271.40000000000003,73.81422268410294L277.3,73.99156255227473L283.2,66.10100438447489L289.1,69.36363157620083L295,73.60605419612492L300.9,78.43635407284819L306.8,81.33453399739447L312.7,77.36132618597921L318.6,80.6895172647822L324.5,83.82885506483775L330.40000000000003,65.14884099135146L336.29999999999995,67.64991038309785L342.2,50.87178157108629L348.09999999999997,79.64732893532488L354,82.06111891405561L359.9,80.08212344250573L365.8,91.46138084176084L371.7,91.43439636375251L377.6,84.56366675940161L383.5,78.15638269094572L389.40000000000003,59.46051126186374L395.3,59.667219933654856L401.20000000000005,66.64578405427164L407.09999999999997,81.114730902954L413,70.37490541246146L418.9,60.50374065939544L424.8,76.28708171310403L430.7,90.32677895702355L436.6,88.46878892706295L442.5,78.21460968569781L448.4,84.62875682303839L454.3,85.0499756466718L460.2,86.44513009377548L466.1,87.28222276203758L472,86.6420552100715L477.90000000000003,85.11553152596817L483.79999999999995,85.34204046842963L489.7,85.47794583390687L495.59999999999997,86.70191220611639L501.5,86.29386887651862L507.4,86.04904287876003L513.3,87.04457043302845L519.2,87.64188696558934L525.1,88.00027688512597L531,87.07288768392448L536.9,87.65887731612726" style="fill: none;" fill="none"></path></g><g><path stroke="rgb(255, 112, 67)" stroke-width="2px" d="M82.60000000000001,415.5721931594916L88.5,376.44902664366174L94.4,345.3700228209098L100.30000000000001,311.6170070028806L106.2,288.56094927541983L112.1,266.8386235195014L118,252.45764531035212L123.89999999999999,226.13243575899324L129.8,209.5168823319944L135.70000000000002,192.7077570567939L141.6,182.0597604397922L147.5,171.39276786326272L153.4,164.9944985799371L159.3,154.59258527805522L165.20000000000002,149.20819649322036L171.1,143.98029479498015L177,140.5583262217149L182.9,137.36376613784205L188.8,131.4521772177838L194.70000000000002,124.48107654241511L200.60000000000002,116.87426656534268L206.5,119.4438721703012L212.4,114.9933729735361L218.3,109.18425709310586L224.2,107.41085224157975L230.1,101.49592956357188L236,97.66163312866946L241.89999999999998,96.78777384245313L247.79999999999998,87.98841783000032L253.7,86.41830920206928L259.6,83.19345754619377L265.5,78.40507283578194L271.40000000000003,78.10017215283682L277.3,82.4827672469747L283.2,79.12007065827301L289.1,75.67569712067943L295,71.89701123688737L300.9,68.77376882673485L306.8,68.32654151769194L312.7,70.05561052263948L318.6,70.52236467108733L324.5,66.80756892840112L330.40000000000003,65.72010344310537L336.29999999999995,63.92621219180328L342.2,64.27663302832694L348.09999999999997,63.91616082437859L354,61.13178485778436L359.9,59.175815650700706L365.8,54.86341677637878L371.7,54.84407009600782L377.6,52.549713070704215L383.5,47.46359425118198L389.40000000000003,45.55329746801014L395.3,50.39941047111223L401.20000000000005,53.30707827297321L407.09999999999997,50.77148709547984L413,49.535476016118864L418.9,42.51623466836307L424.8,43.15556897258895L430.7,39.829664950784846L436.6,37.83412253770262L442.5,41.48771365431732L448.4,42.53845636416163L454.3,31.18435729564447L460.2,26.369303244478665L466.1,28.045843751108887L472,26.198294332152305L477.90000000000003,28.22858203084822L483.79999999999995,29.161411022930643L489.7,28.294352830920314L495.59999999999997,20.92579596130477L501.5,21.070234776865025L507.4,25.72243355194575L513.3,26.516309975464072L519.2,24.995230439630486L525.1,25.509300853805097L531,24.961712220905028L536.9,21.208998063960337" style="fill: none;" fill="none"></path></g></g></g></g><g opacity="0.2"><g><g><g><path stroke="rgb(0, 119, 187)" stroke-width="2px" d="M64.9,639.7575948238374L70.8,274.18181137243914L76.7,199.92421280344334L82.60000000000001,268.4696956078212L88.5,342.727294176817L94.4,205.63632856806126L100.30000000000001,185.64392339189854L106.2,191.35603915651646L112.1,168.50757609804478L118,148.51517092188206L123.89999999999999,117.09844058752068L129.8,111.38632482290276L135.70000000000002,102.81815117597588L141.6,79.9696881175042L147.5,85.68180388212213L153.4,145.6591130395731L159.3,59.977282941341485L165.20000000000002,51.409109294414606L171.1,77.11363023519525L177,59.977282941341485L182.9,48.553051412105646L188.8,91.39391964674004L194.70000000000002,42.840935647487726L200.60000000000002,88.53786176443109L206.5,48.553051412105646L212.4,65.6893987059594L218.3,91.39391964674004L224.2,94.249977529049L230.1,71.40151447057733L236,108.5302669405938L241.89999999999998,74.25757235288629L247.79999999999998,68.54545658826837L253.7,48.553051412105646L259.6,77.11363023519525L265.5,82.82574599981317L271.40000000000003,71.40151447057733L277.3,74.25757235288629L283.2,54.265167176723565L289.1,74.25757235288629L295,79.9696881175042L300.9,85.68180388212213L306.8,85.68180388212213L312.7,71.40151447057733L318.6,85.68180388212213L324.5,88.53786176443109L330.40000000000003,37.128819882869806L336.29999999999995,71.40151447057733L342.2,25.704588353633966L348.09999999999997,122.81064998110142L354,85.68180388212213L359.9,77.11363023519525L365.8,108.5302669405938L371.7,91.39391964674004L377.6,74.25757235288629L383.5,68.54545658826837L389.40000000000003,31.416704118251886L395.3,59.977282941341485L401.20000000000005,77.11363023519525L407.09999999999997,102.81815117597588L413,54.265167176723565L418.9,45.696993529796686L424.8,99.96209329366692L430.7,111.38632482290276L436.6,85.68180388212213L442.5,62.833340823650445L448.4,94.249977529049L454.3,85.68180388212213L460.2,88.53786176443109L466.1,88.53786176443109L472,85.68180388212213L477.90000000000003,82.82574599981317L483.79999999999995,85.68180388212213L489.7,85.68180388212213L495.59999999999997,88.53786176443109L501.5,85.68180388212213L507.4,85.68180388212213L513.3,88.53786176443109L519.2,88.53786176443109L525.1,88.53786176443109L531,85.68180388212213L536.9,88.53786176443109" style="fill: none;" fill="none"></path></g><g><path stroke="rgb(255, 112, 67)" stroke-width="2px" d="M70.8,455.01379406452185L76.7,375.83009487390524L82.60000000000001,357.99593092004466L88.5,322.32760301232344L94.4,300.926550090313L100.30000000000001,262.40478591124224L106.2,254.55774253606805L112.1,234.58350137869522L118,231.01661241054543L123.89999999999999,186.78788205981263L129.8,184.64780485630044L135.70000000000002,167.52699997027722L141.6,166.10028183460244L147.5,155.3998021880786L153.4,155.3998021880786L159.3,138.9923563698928L165.20000000000002,141.132433573405L171.1,136.13892009854325L177,135.42556103070584L182.9,132.5720311303934L188.8,122.58491055170701L194.70000000000002,114.02450810869541L200.60000000000002,105.46410566568383L206.5,123.29826961954441L212.4,108.31763556599626L218.3,100.47059219082203L224.2,104.75074659784642L230.1,92.62354881564782L236,91.91018974781045L241.89999999999998,95.47698508699742L247.79999999999998,74.78938486178723L253.7,84.06314637263623L259.6,78.35618020097421L265.5,71.2224958936374L271.40000000000003,77.64282113313683L277.3,89.05665984749803L283.2,74.07602579394982L289.1,70.50913682580003L295,66.22898241877564L300.9,64.08890521526345L306.8,67.65570055445042L312.7,72.64921402931222L318.6,71.2224958936374L324.5,61.23537531495103L330.40000000000003,64.08890521526345L336.29999999999995,61.23537531495103L342.2,64.80226428310083L348.09999999999997,63.37545251846322L354,56.955220907926645L359.9,56.24186184008923L365.8,48.39481846491501L371.7,54.81505007545159L377.6,49.10817753275242L383.5,39.83441602190342L389.40000000000003,42.68785229325303L395.3,57.66857997576401L401.20000000000005,57.66857997576401L407.09999999999997,46.96810032924023L413,47.681459397077646L418.9,31.987372646729206L424.8,44.114570428927806L430.7,34.84080891807881L436.6,34.84080891807881L442.5,46.96810032924023L448.4,44.114570428927806L454.3,14.15320869286862L460.2,19.146722167730417L466.1,30.560654511054427L472,23.42697020371762L477.90000000000003,31.27401357889184L483.79999999999995,30.560654511054427L489.7,26.99376554290459L495.59999999999997,9.872960656881416L501.5,21.286893000205428L507.4,32.700731714566615L513.3,27.707124610742003L519.2,22.713611135880207L525.1,26.280406475067224L531,24.140329271555032L536.9,15.579926828543401" style="fill: none;" fill="none"></path></g></g></g></g></g></g><g transform="translate(50, 377)" clip-path="url(#clip_1)"><clipPath id="clip_1"><rect width="590" height="23"></rect></clipPath><g><g><line x1="0" y1="0" x2="0" y2="5" style="visibility: inherit;" fill="rgb(0, 0, 0)" stroke="rgb(204, 204, 204)" stroke-width="1px"></line><line x1="59" y1="0" x2="59" y2="5" style="visibility: inherit;" fill="rgb(0, 0, 0)" stroke="rgb(204, 204, 204)" stroke-width="1px"></line><line x1="118" y1="0" x2="118" y2="5" style="visibility: inherit;" fill="rgb(0, 0, 0)" stroke="rgb(204, 204, 204)" stroke-width="1px"></line><line x1="177" y1="0" x2="177" y2="5" style="visibility: inherit;" fill="rgb(0, 0, 0)" stroke="rgb(204, 204, 204)" stroke-width="1px"></line><line x1="236" y1="0" x2="236" y2="5" style="visibility: inherit;" fill="rgb(0, 0, 0)" stroke="rgb(204, 204, 204)" stroke-width="1px"></line><line x1="295" y1="0" x2="295" y2="5" style="visibility: inherit;" fill="rgb(0, 0, 0)" stroke="rgb(204, 204, 204)" stroke-width="1px"></line><line x1="354" y1="0" x2="354" y2="5" style="visibility: inherit;" fill="rgb(0, 0, 0)" stroke="rgb(204, 204, 204)" stroke-width="1px"></line><line x1="413" y1="0" x2="413" y2="5" style="visibility: inherit;" fill="rgb(0, 0, 0)" stroke="rgb(204, 204, 204)" stroke-width="1px"></line><line x1="472" y1="0" x2="472" y2="5" style="visibility: inherit;" fill="rgb(0, 0, 0)" stroke="rgb(204, 204, 204)" stroke-width="1px"></line><line x1="531" y1="0" x2="531" y2="5" style="visibility: inherit;" fill="rgb(0, 0, 0)" stroke="rgb(204, 204, 204)" stroke-width="1px"></line><line x1="590" y1="0" x2="590" y2="5" style="visibility: inherit;" fill="rgb(0, 0, 0)" stroke="rgb(204, 204, 204)" stroke-width="1px"></line></g><g transform="translate(0, 8)"><text x="0" y="0" dx="0em" dy="0.95em" style="text-anchor: middle; visibility: hidden; font-family: Roboto, sans-serif; font-size: 12px; font-weight: 200;" fill="rgb(33, 33, 33)" stroke="none" stroke-width="1px">-10</text><text x="59" y="0" dx="0em" dy="0.95em" style="text-anchor: middle; visibility: inherit; font-family: Roboto, sans-serif; font-size: 12px; font-weight: 200;" fill="rgb(33, 33, 33)" stroke="none" stroke-width="1px">0</text><text x="118" y="0" dx="0em" dy="0.95em" style="text-anchor: middle; visibility: inherit; font-family: Roboto, sans-serif; font-size: 12px; font-weight: 200;" fill="rgb(33, 33, 33)" stroke="none" stroke-width="1px">10</text><text x="177" y="0" dx="0em" dy="0.95em" style="text-anchor: middle; visibility: inherit; font-family: Roboto, sans-serif; font-size: 12px; font-weight: 200;" fill="rgb(33, 33, 33)" stroke="none" stroke-width="1px">20</text><text x="236" y="0" dx="0em" dy="0.95em" style="text-anchor: middle; visibility: inherit; font-family: Roboto, sans-serif; font-size: 12px; font-weight: 200;" fill="rgb(33, 33, 33)" stroke="none" stroke-width="1px">30</text><text x="295" y="0" dx="0em" dy="0.95em" style="text-anchor: middle; visibility: inherit; font-family: Roboto, sans-serif; font-size: 12px; font-weight: 200;" fill="rgb(33, 33, 33)" stroke="none" stroke-width="1px">40</text><text x="354" y="0" dx="0em" dy="0.95em" style="text-anchor: middle; visibility: inherit; font-family: Roboto, sans-serif; font-size: 12px; font-weight: 200;" fill="rgb(33, 33, 33)" stroke="none" stroke-width="1px">50</text><text x="413" y="0" dx="0em" dy="0.95em" style="text-anchor: middle; visibility: inherit; font-family: Roboto, sans-serif; font-size: 12px; font-weight: 200;" fill="rgb(33, 33, 33)" stroke="none" stroke-width="1px">60</text><text x="472" y="0" dx="0em" dy="0.95em" style="text-anchor: middle; visibility: inherit; font-family: Roboto, sans-serif; font-size: 12px; font-weight: 200;" fill="rgb(33, 33, 33)" stroke="none" stroke-width="1px">70</text><text x="531" y="0" dx="0em" dy="0.95em" style="text-anchor: middle; visibility: inherit; font-family: Roboto, sans-serif; font-size: 12px; font-weight: 200;" fill="rgb(33, 33, 33)" stroke="none" stroke-width="1px">80</text><text x="590" y="0" dx="0em" dy="0.95em" style="text-anchor: middle; visibility: hidden; font-family: Roboto, sans-serif; font-size: 12px; font-weight: 200;" fill="rgb(33, 33, 33)" stroke="none" stroke-width="1px">90</text></g><line x1="0" y1="0" x2="590" y2="0" fill="rgb(0, 0, 0)" stroke="rgb(204, 204, 204)" stroke-width="1px"></line></g></g></g></g></svg>