<svg viewBox="0 0 330 200" xmlns="http://www.w3.org/2000/svg"><g><g><g><g><g><line x1="50" y1="177" x2="45" y2="177" style="visibility: inherit;" fill="rgb(0, 0, 0)" stroke="rgb(204, 204, 204)" stroke-width="1px"></line><line x1="50" y1="154.875" x2="45" y2="154.875" style="visibility: inherit;" fill="rgb(0, 0, 0)" stroke="rgb(204, 204, 204)" stroke-width="1px"></line><line x1="50" y1="132.75" x2="45" y2="132.75" style="visibility: inherit;" fill="rgb(0, 0, 0)" stroke="rgb(204, 204, 204)" stroke-width="1px"></line><line x1="50" y1="110.625" x2="45" y2="110.625" style="visibility: inherit;" fill="rgb(0, 0, 0)" stroke="rgb(204, 204, 204)" stroke-width="1px"></line><line x1="50" y1="88.5" x2="45" y2="88.5" style="visibility: inherit;" fill="rgb(0, 0, 0)" stroke="rgb(204, 204, 204)" stroke-width="1px"></line><line x1="50" y1="66.375" x2="45" y2="66.375" style="visibility: inherit;" fill="rgb(0, 0, 0)" stroke="rgb(204, 204, 204)" stroke-width="1px"></line><line x1="50" y1="44.24999999999998" x2="45" y2="44.24999999999998" style="visibility: inherit;" fill="rgb(0, 0, 0)" stroke="rgb(204, 204, 204)" stroke-width="1px"></line><line x1="50" y1="22.12500000000002" x2="45" y2="22.12500000000002" style="visibility: inherit;" fill="rgb(0, 0, 0)" stroke="rgb(204, 204, 204)" stroke-width="1px"></line><line x1="50" y1="0" x2="45" y2="0" style="visibility: inherit;" fill="rgb(0, 0, 0)" stroke="rgb(204, 204, 204)" stroke-width="1px"></line></g><g transform="translate(40, 0)"><text x="0" y="177" dx="0em" dy="0.3em" style="text-anchor: end; visibility: hidden; font-family: Roboto, sans-serif; font-size: 12px; font-weight: 200;" fill="rgb(33, 33, 33)" stroke="none" stroke-width="1px">0.15</text><text x="0" y="154.875" dx="0em" dy="0.3em" style="text-anchor: end; visibility: inherit; font-family: Roboto, sans-serif; font-size: 12px; font-weight: 200;" fill="rgb(33, 33, 33)" stroke="none" stroke-width="1px">0.2</text><text x="0" y="132.75" dx="0em" dy="0.3em" style="text-anchor: end; visibility: hidden; font-family: Roboto, sans-serif; font-size: 12px; font-weight: 200;" fill="rgb(33, 33, 33)" stroke="none" stroke-width="1px">0.25</text><text x="0" y="110.625" dx="0em" dy="0.3em" style="text-anchor: end; visibility: inherit; font-family: Roboto, sans-serif; font-size: 12px; font-weight: 200;" fill="rgb(33, 33, 33)" stroke="none" stroke-width="1px">0.3</text><text x="0" y="88.5" dx="0em" dy="0.3em" style="text-anchor: end; visibility: hidden; font-family: Roboto, sans-serif; font-size: 12px; font-weight: 200;" fill="rgb(33, 33, 33)" stroke="none" stroke-width="1px">0.35</text><text x="0" y="66.375" dx="0em" dy="0.3em" style="text-anchor: end; visibility: inherit; font-family: Roboto, sans-serif; font-size: 12px; font-weight: 200;" fill="rgb(33, 33, 33)" stroke="none" stroke-width="1px">0.4</text><text x="0" y="44.24999999999998" dx="0em" dy="0.3em" style="text-anchor: end; visibility: hidden; font-family: Roboto, sans-serif; font-size: 12px; font-weight: 200;" fill="rgb(33, 33, 33)" stroke="none" stroke-width="1px">0.45</text><text x="0" y="22.12500000000002" dx="0em" dy="0.3em" style="text-anchor: end; visibility: inherit; font-family: Roboto, sans-serif; font-size: 12px; font-weight: 200;" fill="rgb(33, 33, 33)" stroke="none" stroke-width="1px">0.5</text><text x="0" y="0" dx="0em" dy="0.3em" style="text-anchor: end; visibility: hidden; font-family: Roboto, sans-serif; font-size: 12px; font-weight: 200;" fill="rgb(33, 33, 33)" stroke="none" stroke-width="1px">0.55</text></g><line x1="50" y1="0" x2="50" y2="177" fill="rgb(0, 0, 0)" stroke="rgb(204, 204, 204)" stroke-width="1px"></line></g></g><g transform="translate(50, 0)" clip-path="url(#clip_0)"><clipPath id="clip_0"><rect width="280" height="177"></rect></clipPath><g><g><g><line x1="0" y1="0" x2="0" y2="177" fill="rgb(0, 0, 0)" stroke="rgb(66, 66, 66)" stroke-width="1px" opacity="0.25"></line><line x1="18.666666666666668" y1="0" x2="18.666666666666668" y2="177" fill="rgb(0, 0, 0)" stroke="rgb(66, 66, 66)" stroke-width="1px" opacity="0.25"></line><line x1="37.333333333333336" y1="0" x2="37.333333333333336" y2="177" fill="rgb(0, 0, 0)" stroke="rgb(66, 66, 66)" stroke-width="1px" opacity="0.25"></line><line x1="56" y1="0" x2="56" y2="177" fill="rgb(0, 0, 0)" stroke="rgb(66, 66, 66)" stroke-width="1px" opacity="0.25"></line><line x1="74.66666666666667" y1="0" x2="74.66666666666667" y2="177" fill="rgb(0, 0, 0)" stroke="rgb(66, 66, 66)" stroke-width="1px" opacity="0.25"></line><line x1="93.33333333333333" y1="0" x2="93.33333333333333" y2="177" fill="rgb(0, 0, 0)" stroke="rgb(66, 66, 66)" stroke-width="1px" opacity="0.25"></line><line x1="112" y1="0" x2="112" y2="177" fill="rgb(0, 0, 0)" stroke="rgb(66, 66, 66)" stroke-width="1px" opacity="0.25"></line><line x1="130.66666666666666" y1="0" x2="130.66666666666666" y2="177" fill="rgb(0, 0, 0)" stroke="rgb(66, 66, 66)" stroke-width="1px" opacity="0.25"></line><line x1="149.33333333333334" y1="0" x2="149.33333333333334" y2="177" fill="rgb(0, 0, 0)" stroke="rgb(66, 66, 66)" stroke-width="1px" opacity="0.25"></line><line x1="168" y1="0" x2="168" y2="177" fill="rgb(0, 0, 0)" stroke="rgb(66, 66, 66)" stroke-width="1px" opacity="0.25"></line><line x1="186.66666666666666" y1="0" x2="186.66666666666666" y2="177" fill="rgb(0, 0, 0)" stroke="rgb(66, 66, 66)" stroke-width="1px" opacity="0.25"></line><line x1="205.33333333333331" y1="0" x2="205.33333333333331" y2="177" fill="rgb(0, 0, 0)" stroke="rgb(66, 66, 66)" stroke-width="1px" opacity="0.25"></line><line x1="224" y1="0" x2="224" y2="177" fill="rgb(0, 0, 0)" stroke="rgb(66, 66, 66)" stroke-width="1px" opacity="0.25"></line><line x1="242.66666666666669" y1="0" x2="242.66666666666669" y2="177" fill="rgb(0, 0, 0)" stroke="rgb(66, 66, 66)" stroke-width="1px" opacity="0.25"></line><line x1="261.3333333333333" y1="0" x2="261.3333333333333" y2="177" fill="rgb(0, 0, 0)" stroke="rgb(66, 66, 66)" stroke-width="1px" opacity="0.25"></line><line x1="280" y1="0" x2="280" y2="177" fill="rgb(0, 0, 0)" stroke="rgb(66, 66, 66)" stroke-width="1px" opacity="0.25"></line></g><g><line x1="0" y1="177" x2="280" y2="177" fill="rgb(0, 0, 0)" stroke="rgb(66, 66, 66)" stroke-width="1px" opacity="0.25"></line><line x1="0" y1="154.875" x2="280" y2="154.875" fill="rgb(0, 0, 0)" stroke="rgb(66, 66, 66)" stroke-width="1px" opacity="0.25"></line><line x1="0" y1="132.75" x2="280" y2="132.75" fill="rgb(0, 0, 0)" stroke="rgb(66, 66, 66)" stroke-width="1px" opacity="0.25"></line><line x1="0" y1="110.625" x2="280" y2="110.625" fill="rgb(0, 0, 0)" stroke="rgb(66, 66, 66)" stroke-width="1px" opacity="0.25"></line><line x1="0" y1="88.5" x2="280" y2="88.5" fill="rgb(0, 0, 0)" stroke="rgb(66, 66, 66)" stroke-width="1px" opacity="0.25"></line><line x1="0" y1="66.375" x2="280" y2="66.375" fill="rgb(0, 0, 0)" stroke="rgb(66, 66, 66)" stroke-width="1px" opacity="0.25"></line><line x1="0" y1="44.24999999999998" x2="280" y2="44.24999999999998" fill="rgb(0, 0, 0)" stroke="rgb(66, 66, 66)" stroke-width="1px" opacity="0.25"></line><line x1="0" y1="22.12500000000002" x2="280" y2="22.12500000000002" fill="rgb(0, 0, 0)" stroke="rgb(66, 66, 66)" stroke-width="1px" opacity="0.25"></line><line x1="0" y1="0" x2="280" y2="0" fill="rgb(0, 0, 0)" stroke="rgb(66, 66, 66)" stroke-width="1px" opacity="0.25"></line></g></g></g><g><g><line x1="0" y1="243.375" x2="280" y2="243.375" fill="rgb(0, 0, 0)" stroke="rgb(153, 153, 153)" stroke-width="1.5px"></line></g></g><g><g><line x1="18.666666666666668" y1="0" x2="18.666666666666668" y2="177" fill="rgb(0, 0, 0)" stroke="rgb(153, 153, 153)" stroke-width="1.5px"></line></g></g><g><g><g><g><g><path stroke="rgb(0, 119, 187)" stroke-width="2px" d="M18.666666666666668,7.075657188892384L28,44.19460776820781L37.333333333333336,68.1448316647082L46.666666666666664,82.07198106283872L56,95.0565931498384L65.33333333333333,102.29516909146237L74.66666666666667,100.71279678419624L84,108.51508971890857L93.33333333333333,114.6487116876316L102.66666666666666,115.07669044394987L112,118.16756291868684L121.33333333333334,117.85928434297726L130.66666666666666,117.61717441996485L140,118.23703843270148L149.33333333333334,119.31969820495992L158.66666666666666,120.06612437166814L168,122.13217082765286L177.33333333333331,121.7405182171099L186.66666666666666,121.21360993212012L196,119.80576095615282L205.33333333333331,119.38654986480435L214.66666666666669,116.6021780960704L224,116.47361355178467L233.33333333333334,117.0696386514549L242.66666666666669,117.6096464798329L252,117.93638265468456L261.3333333333333,118.00920489336443" style="fill: none;" fill="none"></path></g><g><path stroke="rgb(255, 112, 67)" stroke-width="2px" d="M28,-22.738092117011508L37.333333333333336,11.558788435191532L46.666666666666664,35.56836511128965L56,54.90577894412008L65.33333333333333,67.36765363107199L74.66666666666667,79.37484913570893L84,87.33483933876552L93.33333333333333,99.2064557429467L102.66666666666666,109.20467307017992L112,115.68367864543733L121.33333333333334,123.92604806305653L130.66666666666666,129.8383585189204L140,134.18114414446228L149.33333333333334,137.2824042664916L158.66666666666666,139.22511010620735L168,143.840415189939L177.33333333333331,146.12237625843386L186.66666666666666,149.38325486577722L196,152.31698661181093L205.33333333333331,152.56509730685798L214.66666666666669,155.7805728973709L224,156.55709763152652L233.33333333333334,156.22293327828126L242.66666666666669,156.7414190941322L252,157.80463518806135L261.3333333333333,157.45158590367205" style="fill: none;" fill="none"></path></g></g></g></g><g opacity="0.2"><g><g><g><path stroke="rgb(0, 119, 187)" stroke-width="2px" d="M18.666666666666668,7.075657188892384L28,66.46597811579704L37.333333333333336,91.13704660534859L46.666666666666664,98.45030875504017L56,112.00930269062519L65.33333333333333,112.30872550606728L74.66666666666667,98.44997906684875L84,119.89090771973133L93.33333333333333,123.69461269676685L102.66666666666666,115.71218901872635L112,122.77583764493465L121.33333333333334,117.39854411780834L130.66666666666666,117.25480006635189L140,119.16562007367611L149.33333333333334,120.94241523742676L158.66666666666666,121.18523718416691L168,125.23036623001099L177.33333333333331,121.15313874185085L186.66666666666666,120.42332777380943L196,117.69411617517471L205.33333333333331,118.75775621831417L214.66666666666669,112.42571206390858L224,116.28076927363873L233.33333333333334,117.9636692404747L242.66666666666669,118.41965438425541L252,118.4264855235815L261.3333333333333,118.11843806505203" style="fill: none;" fill="none"></path></g><g><path stroke="rgb(255, 112, 67)" stroke-width="2px" d="M18.666666666666668,-86.47199562191959L28,15.502249985933323L37.333333333333336,44.483793765306494L46.666666666666664,63.80362728238108L56,80.15270644426346L65.33333333333333,84.60691259801388L74.66666666666667,96.5453308224678L84,98.94058147072792L93.33333333333333,116.71478399634361L102.66666666666666,124.05086056888103L112,125.34342290461063L121.33333333333334,136.24474757909775L130.66666666666666,138.68751948326826L140,140.6868146136403L149.33333333333334,141.93064903467894L158.66666666666666,142.1377987191081L168,150.7614197731018L177.33333333333331,149.54473847150803L186.66666666666666,154.27407601475716L196,156.71731607615948L205.33333333333331,152.93724974244833L214.66666666666669,160.6036804765463L224,157.72186940163374L233.33333333333334,155.7216907069087L242.66666666666669,157.51914413273335L252,159.39945479482412L261.3333333333333,156.92201288044453" style="fill: none;" fill="none"></path></g></g></g></g></g></g><g transform="translate(50, 177)" clip-path="url(#clip_1)"><clipPath id="clip_1"><rect width="280" height="23"></rect></clipPath><g><g><line x1="0" y1="0" x2="0" y2="5" style="visibility: inherit;" fill="rgb(0, 0, 0)" stroke="rgb(204, 204, 204)" stroke-width="1px"></line><line x1="18.666666666666668" y1="0" x2="18.666666666666668" y2="5" style="visibility: inherit;" fill="rgb(0, 0, 0)" stroke="rgb(204, 204, 204)" stroke-width="1px"></line><line x1="37.333333333333336" y1="0" x2="37.333333333333336" y2="5" style="visibility: inherit;" fill="rgb(0, 0, 0)" stroke="rgb(204, 204, 204)" stroke-width="1px"></line><line x1="56" y1="0" x2="56" y2="5" style="visibility: inherit;" fill="rgb(0, 0, 0)" stroke="rgb(204, 204, 204)" stroke-width="1px"></line><line x1="74.66666666666667" y1="0" x2="74.66666666666667" y2="5" style="visibility: inherit;" fill="rgb(0, 0, 0)" stroke="rgb(204, 204, 204)" stroke-width="1px"></line><line x1="93.33333333333333" y1="0" x2="93.33333333333333" y2="5" style="visibility: inherit;" fill="rgb(0, 0, 0)" stroke="rgb(204, 204, 204)" stroke-width="1px"></line><line x1="112" y1="0" x2="112" y2="5" style="visibility: inherit;" fill="rgb(0, 0, 0)" stroke="rgb(204, 204, 204)" stroke-width="1px"></line><line x1="130.66666666666666" y1="0" x2="130.66666666666666" y2="5" style="visibility: inherit;" fill="rgb(0, 0, 0)" stroke="rgb(204, 204, 204)" stroke-width="1px"></line><line x1="149.33333333333334" y1="0" x2="149.33333333333334" y2="5" style="visibility: inherit;" fill="rgb(0, 0, 0)" stroke="rgb(204, 204, 204)" stroke-width="1px"></line><line x1="168" y1="0" x2="168" y2="5" style="visibility: inherit;" fill="rgb(0, 0, 0)" stroke="rgb(204, 204, 204)" stroke-width="1px"></line><line x1="186.66666666666666" y1="0" x2="186.66666666666666" y2="5" style="visibility: inherit;" fill="rgb(0, 0, 0)" stroke="rgb(204, 204, 204)" stroke-width="1px"></line><line x1="205.33333333333331" y1="0" x2="205.33333333333331" y2="5" style="visibility: inherit;" fill="rgb(0, 0, 0)" stroke="rgb(204, 204, 204)" stroke-width="1px"></line><line x1="224" y1="0" x2="224" y2="5" style="visibility: inherit;" fill="rgb(0, 0, 0)" stroke="rgb(204, 204, 204)" stroke-width="1px"></line><line x1="242.66666666666669" y1="0" x2="242.66666666666669" y2="5" style="visibility: inherit;" fill="rgb(0, 0, 0)" stroke="rgb(204, 204, 204)" stroke-width="1px"></line><line x1="261.3333333333333" y1="0" x2="261.3333333333333" y2="5" style="visibility: inherit;" fill="rgb(0, 0, 0)" stroke="rgb(204, 204, 204)" stroke-width="1px"></line><line x1="280" y1="0" x2="280" y2="5" style="visibility: inherit;" fill="rgb(0, 0, 0)" stroke="rgb(204, 204, 204)" stroke-width="1px"></line></g><g transform="translate(0, 8)"><text x="0" y="0" dx="0em" dy="0.95em" style="text-anchor: middle; visibility: hidden; font-family: Roboto, sans-serif; font-size: 12px; font-weight: 200;" fill="rgb(33, 33, 33)" stroke="none" stroke-width="1px">-2</text><text x="18.666666666666668" y="0" dx="0em" dy="0.95em" style="text-anchor: middle; visibility: inherit; font-family: Roboto, sans-serif; font-size: 12px; font-weight: 200;" fill="rgb(33, 33, 33)" stroke="none" stroke-width="1px">0</text><text x="37.333333333333336" y="0" dx="0em" dy="0.95em" style="text-anchor: middle; visibility: inherit; font-family: Roboto, sans-serif; font-size: 12px; font-weight: 200;" fill="rgb(33, 33, 33)" stroke="none" stroke-width="1px">2</text><text x="56" y="0" dx="0em" dy="0.95em" style="text-anchor: middle; visibility: inherit; font-family: Roboto, sans-serif; font-size: 12px; font-weight: 200;" fill="rgb(33, 33, 33)" stroke="none" stroke-width="1px">4</text><text x="74.66666666666667" y="0" dx="0em" dy="0.95em" style="text-anchor: middle; visibility: inherit; font-family: Roboto, sans-serif; font-size: 12px; font-weight: 200;" fill="rgb(33, 33, 33)" stroke="none" stroke-width="1px">6</text><text x="93.33333333333333" y="0" dx="0em" dy="0.95em" style="text-anchor: middle; visibility: inherit; font-family: Roboto, sans-serif; font-size: 12px; font-weight: 200;" fill="rgb(33, 33, 33)" stroke="none" stroke-width="1px">8</text><text x="112" y="0" dx="0em" dy="0.95em" style="text-anchor: middle; visibility: inherit; font-family: Roboto, sans-serif; font-size: 12px; font-weight: 200;" fill="rgb(33, 33, 33)" stroke="none" stroke-width="1px">10</text><text x="130.66666666666666" y="0" dx="0em" dy="0.95em" style="text-anchor: middle; visibility: inherit; font-family: Roboto, sans-serif; font-size: 12px; font-weight: 200;" fill="rgb(33, 33, 33)" stroke="none" stroke-width="1px">12</text><text x="149.33333333333334" y="0" dx="0em" dy="0.95em" style="text-anchor: middle; visibility: inherit; font-family: Roboto, sans-serif; font-size: 12px; font-weight: 200;" fill="rgb(33, 33, 33)" stroke="none" stroke-width="1px">14</text><text x="168" y="0" dx="0em" dy="0.95em" style="text-anchor: middle; visibility: inherit; font-family: Roboto, sans-serif; font-size: 12px; font-weight: 200;" fill="rgb(33, 33, 33)" stroke="none" stroke-width="1px">16</text><text x="186.66666666666666" y="0" dx="0em" dy="0.95em" style="text-anchor: middle; visibility: inherit; font-family: Roboto, sans-serif; font-size: 12px; font-weight: 200;" fill="rgb(33, 33, 33)" stroke="none" stroke-width="1px">18</text><text x="205.33333333333331" y="0" dx="0em" dy="0.95em" style="text-anchor: middle; visibility: inherit; font-family: Roboto, sans-serif; font-size: 12px; font-weight: 200;" fill="rgb(33, 33, 33)" stroke="none" stroke-width="1px">20</text><text x="224" y="0" dx="0em" dy="0.95em" style="text-anchor: middle; visibility: inherit; font-family: Roboto, sans-serif; font-size: 12px; font-weight: 200;" fill="rgb(33, 33, 33)" stroke="none" stroke-width="1px">22</text><text x="242.66666666666669" y="0" dx="0em" dy="0.95em" style="text-anchor: middle; visibility: inherit; font-family: Roboto, sans-serif; font-size: 12px; font-weight: 200;" fill="rgb(33, 33, 33)" stroke="none" stroke-width="1px">24</text><text x="261.3333333333333" y="0" dx="0em" dy="0.95em" style="text-anchor: middle; visibility: inherit; font-family: Roboto, sans-serif; font-size: 12px; font-weight: 200;" fill="rgb(33, 33, 33)" stroke="none" stroke-width="1px">26</text><text x="280" y="0" dx="0em" dy="0.95em" style="text-anchor: middle; visibility: hidden; font-family: Roboto, sans-serif; font-size: 12px; font-weight: 200;" fill="rgb(33, 33, 33)" stroke="none" stroke-width="1px">28</text></g><line x1="0" y1="0" x2="280" y2="0" fill="rgb(0, 0, 0)" stroke="rgb(204, 204, 204)" stroke-width="1px"></line></g></g></g></g></svg>