<svg viewBox="0 0 330 200" xmlns="http://www.w3.org/2000/svg"><g><g><g><g><g><line x1="50" y1="177" x2="45" y2="177" style="visibility: inherit;" fill="rgb(0, 0, 0)" stroke="rgb(204, 204, 204)" stroke-width="1px"></line><line x1="50" y1="151.71428571428572" x2="45" y2="151.71428571428572" style="visibility: inherit;" fill="rgb(0, 0, 0)" stroke="rgb(204, 204, 204)" stroke-width="1px"></line><line x1="50" y1="126.42857142857142" x2="45" y2="126.42857142857142" style="visibility: inherit;" fill="rgb(0, 0, 0)" stroke="rgb(204, 204, 204)" stroke-width="1px"></line><line x1="50" y1="101.14285714285714" x2="45" y2="101.14285714285714" style="visibility: inherit;" fill="rgb(0, 0, 0)" stroke="rgb(204, 204, 204)" stroke-width="1px"></line><line x1="50" y1="75.85714285714286" x2="45" y2="75.85714285714286" style="visibility: inherit;" fill="rgb(0, 0, 0)" stroke="rgb(204, 204, 204)" stroke-width="1px"></line><line x1="50" y1="50.57142857142855" x2="45" y2="50.57142857142855" style="visibility: inherit;" fill="rgb(0, 0, 0)" stroke="rgb(204, 204, 204)" stroke-width="1px"></line><line x1="50" y1="25.285714285714313" x2="45" y2="25.285714285714313" style="visibility: inherit;" fill="rgb(0, 0, 0)" stroke="rgb(204, 204, 204)" stroke-width="1px"></line><line x1="50" y1="0" x2="45" y2="0" style="visibility: inherit;" fill="rgb(0, 0, 0)" stroke="rgb(204, 204, 204)" stroke-width="1px"></line></g><g transform="translate(40, 0)"><text x="0" y="177" dx="0em" dy="0.3em" style="text-anchor: end; visibility: hidden; font-family: Roboto, sans-serif; font-size: 12px; font-weight: 200;" fill="rgb(33, 33, 33)" stroke="none" stroke-width="1px">0.3</text><text x="0" y="151.71428571428572" dx="0em" dy="0.3em" style="text-anchor: end; visibility: inherit; font-family: Roboto, sans-serif; font-size: 12px; font-weight: 200;" fill="rgb(33, 33, 33)" stroke="none" stroke-width="1px">0.35</text><text x="0" y="126.42857142857142" dx="0em" dy="0.3em" style="text-anchor: end; visibility: inherit; font-family: Roboto, sans-serif; font-size: 12px; font-weight: 200;" fill="rgb(33, 33, 33)" stroke="none" stroke-width="1px">0.4</text><text x="0" y="101.14285714285714" dx="0em" dy="0.3em" style="text-anchor: end; visibility: inherit; font-family: Roboto, sans-serif; font-size: 12px; font-weight: 200;" fill="rgb(33, 33, 33)" stroke="none" stroke-width="1px">0.45</text><text x="0" y="75.85714285714286" dx="0em" dy="0.3em" style="text-anchor: end; visibility: inherit; font-family: Roboto, sans-serif; font-size: 12px; font-weight: 200;" fill="rgb(33, 33, 33)" stroke="none" stroke-width="1px">0.5</text><text x="0" y="50.57142857142855" dx="0em" dy="0.3em" style="text-anchor: end; visibility: inherit; font-family: Roboto, sans-serif; font-size: 12px; font-weight: 200;" fill="rgb(33, 33, 33)" stroke="none" stroke-width="1px">0.55</text><text x="0" y="25.285714285714313" dx="0em" dy="0.3em" style="text-anchor: end; visibility: inherit; font-family: Roboto, sans-serif; font-size: 12px; font-weight: 200;" fill="rgb(33, 33, 33)" stroke="none" stroke-width="1px">0.6</text><text x="0" y="0" dx="0em" dy="0.3em" style="text-anchor: end; visibility: hidden; font-family: Roboto, sans-serif; font-size: 12px; font-weight: 200;" fill="rgb(33, 33, 33)" stroke="none" stroke-width="1px">0.65</text></g><line x1="50" y1="0" x2="50" y2="177" fill="rgb(0, 0, 0)" stroke="rgb(204, 204, 204)" stroke-width="1px"></line></g></g><g transform="translate(50, 0)" clip-path="url(#clip_0)"><clipPath id="clip_0"><rect width="280" height="176"></rect></clipPath><g><g><g><line x1="0" y1="0" x2="0" y2="177" fill="rgb(0, 0, 0)" stroke="rgb(66, 66, 66)" stroke-width="1px" opacity="0.25"></line><line x1="23.333333333333332" y1="0" x2="23.333333333333332" y2="177" fill="rgb(0, 0, 0)" stroke="rgb(66, 66, 66)" stroke-width="1px" opacity="0.25"></line><line x1="46.666666666666664" y1="0" x2="46.666666666666664" y2="177" fill="rgb(0, 0, 0)" stroke="rgb(66, 66, 66)" stroke-width="1px" opacity="0.25"></line><line x1="70" y1="0" x2="70" y2="177" fill="rgb(0, 0, 0)" stroke="rgb(66, 66, 66)" stroke-width="1px" opacity="0.25"></line><line x1="93.33333333333333" y1="0" x2="93.33333333333333" y2="177" fill="rgb(0, 0, 0)" stroke="rgb(66, 66, 66)" stroke-width="1px" opacity="0.25"></line><line x1="116.66666666666667" y1="0" x2="116.66666666666667" y2="177" fill="rgb(0, 0, 0)" stroke="rgb(66, 66, 66)" stroke-width="1px" opacity="0.25"></line><line x1="140" y1="0" x2="140" y2="177" fill="rgb(0, 0, 0)" stroke="rgb(66, 66, 66)" stroke-width="1px" opacity="0.25"></line><line x1="163.33333333333334" y1="0" x2="163.33333333333334" y2="177" fill="rgb(0, 0, 0)" stroke="rgb(66, 66, 66)" stroke-width="1px" opacity="0.25"></line><line x1="186.66666666666666" y1="0" x2="186.66666666666666" y2="177" fill="rgb(0, 0, 0)" stroke="rgb(66, 66, 66)" stroke-width="1px" opacity="0.25"></line><line x1="210" y1="0" x2="210" y2="177" fill="rgb(0, 0, 0)" stroke="rgb(66, 66, 66)" stroke-width="1px" opacity="0.25"></line><line x1="233.33333333333334" y1="0" x2="233.33333333333334" y2="177" fill="rgb(0, 0, 0)" stroke="rgb(66, 66, 66)" stroke-width="1px" opacity="0.25"></line><line x1="256.66666666666663" y1="0" x2="256.66666666666663" y2="177" fill="rgb(0, 0, 0)" stroke="rgb(66, 66, 66)" stroke-width="1px" opacity="0.25"></line><line x1="280" y1="0" x2="280" y2="177" fill="rgb(0, 0, 0)" stroke="rgb(66, 66, 66)" stroke-width="1px" opacity="0.25"></line></g><g><line x1="0" y1="177" x2="280" y2="177" fill="rgb(0, 0, 0)" stroke="rgb(66, 66, 66)" stroke-width="1px" opacity="0.25"></line><line x1="0" y1="151.71428571428572" x2="280" y2="151.71428571428572" fill="rgb(0, 0, 0)" stroke="rgb(66, 66, 66)" stroke-width="1px" opacity="0.25"></line><line x1="0" y1="126.42857142857142" x2="280" y2="126.42857142857142" fill="rgb(0, 0, 0)" stroke="rgb(66, 66, 66)" stroke-width="1px" opacity="0.25"></line><line x1="0" y1="101.14285714285714" x2="280" y2="101.14285714285714" fill="rgb(0, 0, 0)" stroke="rgb(66, 66, 66)" stroke-width="1px" opacity="0.25"></line><line x1="0" y1="75.85714285714286" x2="280" y2="75.85714285714286" fill="rgb(0, 0, 0)" stroke="rgb(66, 66, 66)" stroke-width="1px" opacity="0.25"></line><line x1="0" y1="50.57142857142855" x2="280" y2="50.57142857142855" fill="rgb(0, 0, 0)" stroke="rgb(66, 66, 66)" stroke-width="1px" opacity="0.25"></line><line x1="0" y1="25.285714285714313" x2="280" y2="25.285714285714313" fill="rgb(0, 0, 0)" stroke="rgb(66, 66, 66)" stroke-width="1px" opacity="0.25"></line><line x1="0" y1="0" x2="280" y2="0" fill="rgb(0, 0, 0)" stroke="rgb(66, 66, 66)" stroke-width="1px" opacity="0.25"></line></g></g></g><g><g><line x1="0" y1="328.71428571428567" x2="280" y2="328.71428571428567" fill="rgb(0, 0, 0)" stroke="rgb(153, 153, 153)" stroke-width="1.5px"></line></g></g><g><g><line x1="23.333333333333332" y1="0" x2="23.333333333333332" y2="177" fill="rgb(0, 0, 0)" stroke="rgb(153, 153, 153)" stroke-width="1.5px"></line></g></g><g><g><g><g><g><path stroke="rgb(0, 119, 187)" stroke-width="2px" d="M24.5,-4.807369274752452L25.666666666666664,0.09005941802497497L26.833333333333336,4.919945058952884L28,9.974372805624425L29.166666666666668,14.639404190369524L30.333333333333336,18.73165678464141L31.5,22.649661084326247L32.666666666666664,24.287145947718063L33.833333333333336,30.45504535128744L35,35.3553080582895L36.16666666666667,40.05564481948989L37.333333333333336,40.04868998940348L38.5,42.88097595880162L39.666666666666664,47.35622640338009L40.833333333333336,51.536686108917635L42,53.305833687960586L43.16666666666667,55.49450588045991L44.33333333333333,59.571829109814516L45.5,62.863748551610634L46.666666666666664,64.78152626607677L47.833333333333336,65.4256135541185L49,68.86596033761315L50.166666666666664,70.70401775914415L51.33333333333333,73.28532491342398L52.5,75.73966569589257L53.66666666666667,76.3660463308534L54.833333333333336,78.93741362565343L56,81.52138793046586L57.166666666666664,80.94479654459151L58.333333333333336,82.4891889812083L59.5,85.9307568721941L60.66666666666667,88.89911696925677L61.83333333333333,91.09724465205603L63,93.35220962923383L64.16666666666666,94.53843795359174L65.33333333333333,96.53319629617938L66.5,98.71131789822003L67.66666666666667,100.11763837733437L68.83333333333333,101.8008808529653L70,103.60184288215284L71.16666666666666,105.34414160109093L72.33333333333334,106.86302391078708L73.5,108.16132810794508L74.66666666666667,110.40872902006485L75.83333333333333,112.23119713276415L77,113.96054290528342L78.16666666666667,115.27560992206965L79.33333333333333,116.58274061865595L80.5,116.21493250617418L81.66666666666667,117.7681042444979L82.83333333333333,119.35378914429857L84,120.50026697898008L85.16666666666666,121.65645409046765L86.33333333333334,122.48936636357196L87.5,123.57224057892499L88.66666666666666,124.18599254698157L89.83333333333334,124.9775709013209L91,126.229294942962L92.16666666666667,126.80433691314533L93.33333333333333,127.21567652004255L94.5,128.0624509995674L95.66666666666667,129.1325846946109L96.83333333333333,129.06370796349287L98,130.55853748926646L99.16666666666667,130.04439687410752L100.33333333333333,131.42038329478532L101.5,132.10296507584624L102.66666666666666,132.13891073239958L103.83333333333334,133.1992393333672L105,132.07396259982846L106.16666666666666,133.38177268978205L107.33333333333334,134.56993378991206L108.5,134.41235716731228L109.66666666666667,133.70173813031073L110.83333333333333,134.64732775678098L112,136.12806024817826L113.16666666666667,134.12816291423985L114.33333333333333,134.99625793661937L115.5,136.6390163600137L116.66666666666667,135.73226873106472L117.83333333333333,136.91893621188146L119,138.29746298390816L120.16666666666666,138.9126019739997L121.33333333333334,139.41860054090398L122.5,139.5351688888102L123.66666666666666,140.41992729208303L124.83333333333334,134.94770520168547L126,137.87462740001172L127.16666666666667,137.34164897544008L128.33333333333331,139.435622582776L129.5,141.11381471749704L130.66666666666666,140.77612666417522L131.83333333333334,141.7896781826918L133,142.7477201704837L134.16666666666669,143.2194806898713L135.33333333333334,144.05069203679528L136.5,144.42662864457995L137.66666666666666,144.84095160511566L138.83333333333334,143.99060684819906L140,144.13318110590254L141.16666666666666,144.97751339469255L142.33333333333331,145.0936896063237L143.5,144.608084368718L144.66666666666669,144.74247189045687L145.83333333333334,144.9796727604229L147,144.47185871895644L148.16666666666666,145.584050322665L149.33333333333334,143.85654643396418L150.5,145.1473789815725L151.66666666666666,145.6140047501866L152.83333333333331,146.45635064788726L154,146.71532172683007L155.16666666666669,147.38125913063277L156.33333333333334,148.46066499866512L157.5,149.19424598542477L158.66666666666666,147.70513916006547L159.83333333333331,147.53270577697754L161,148.65819069586615L162.16666666666669,149.34444161304145L163.33333333333334,150.48186488520943L164.5,148.63896306668258L165.66666666666666,149.60095999768953L166.83333333333334,150.36740143888426L168,151.09622555337006L169.16666666666666,148.18176593570334L170.33333333333331,150.3483540903832L171.5,150.00628948244997L172.66666666666669,150.14589778375185L173.83333333333334,149.8421272946604L175,151.8947455167128L176.16666666666666,151.5336730527492L177.33333333333331,152.837981049787L178.5,152.6851225147926L179.66666666666669,153.79978735235744L180.83333333333334,153.3606410170554L182,154.25238666717252L183.16666666666666,153.57099239186584L184.33333333333334,155.07691852798888L185.5,154.72044588144828L186.66666666666666,154.05775832373197L187.83333333333331,155.77134387379724L189,156.14288594109743L190.16666666666669,154.9830770530705L191.33333333333334,155.4440287749157L192.5,155.90166230202826L193.66666666666666,156.97522272246886L194.83333333333331,156.87396675437233L196,158.170633277405L197.16666666666669,158.5698090253354L198.33333333333334,157.97971499142105L199.5,158.47741310020803L200.66666666666666,159.1288548482687L201.83333333333334,159.49913228250074L203,160.0341038847614L204.16666666666666,157.720800578701L205.33333333333331,155.5085001520389L206.5,157.72308183844183L207.66666666666669,156.3479566369287L208.83333333333334,156.45224803649376L210,159.0238411952265L211.16666666666666,157.8797426266709L212.33333333333331,159.95720239624526L213.5,160.05267687270987L214.66666666666669,161.40204989689556L215.83333333333334,161.51096535618456L217,162.89973955006894L218.16666666666666,162.55586876916928L219.33333333333334,160.6152914635933L220.5,161.34855043128712L221.66666666666666,162.3840877180858L222.83333333333331,160.14001202378054L224,161.69281517314369L225.16666666666669,162.1356934376548L226.33333333333334,161.50032793518417L227.5,162.97024565871746L228.66666666666666,163.6539824771484L229.83333333333331,164.12634912706443L231,160.33964292410374L232.16666666666669,163.30584987352876L233.33333333333334,162.39499888629072L234.5,162.6616176849369L235.66666666666666,163.76801034893603L236.83333333333334,164.702957401618L238,166.22124669803998L239.16666666666666,159.74523946981492L240.33333333333331,162.31134140609507L241.5,165.0829437228881L242.66666666666669,161.9851322716466L243.83333333333334,160.8476629991356L245,163.43571240879095L246.16666666666666,165.83138633646197L247.33333333333331,164.20993536382352L248.5,166.90567521681618L249.66666666666669,168.44187190107928L250.83333333333334,168.4355376224918L252,169.9206707207511L253.16666666666666,171.0355617633637L254.33333333333334,171.23574383444642L255.5,170.1430888480028" style="fill: none;" fill="none"></path></g><g><path stroke="rgb(255, 112, 67)" stroke-width="2px" d="M28,-2.365087196306184L29.166666666666668,1.8750110807842502L30.333333333333336,5.0861334949728825L31.5,9.24823730139645L32.666666666666664,12.121009796496176L33.833333333333336,15.656878743756378L35,20.17094071958547L36.16666666666667,22.38468914209552L37.333333333333336,23.476782065286567L38.5,26.525468250633686L39.666666666666664,29.898074328729514L40.833333333333336,31.75725032116451L42,32.52825034838812L43.16666666666667,34.277554103445425L44.33333333333333,37.622051538830725L45.5,40.29483863259664L46.666666666666664,41.47706518970466L47.833333333333336,43.567201653176156L49,45.261416323317285L50.166666666666664,46.57497836420884L51.33333333333333,48.20512633641947L52.5,49.97192109593242L53.66666666666667,52.700577172724785L54.833333333333336,54.45181785493968L56,56.587393622219274L57.166666666666664,58.40143644248959L58.333333333333336,59.347297902952995L59.5,62.022866030516894L60.66666666666667,64.44933613203656L61.83333333333333,66.57029153262287L63,68.64311105466805L64.16666666666666,70.63828987169832L65.33333333333333,72.30596430994834L66.5,74.81381747571105L67.66666666666667,76.17393377993025L68.83333333333333,77.50297577985786L70,77.77008452322843L71.16666666666666,80.74821848003393L72.33333333333334,83.192407431881L73.5,85.30232746627121L74.66666666666667,88.27927001795322L75.83333333333333,89.38675563969714L77,91.54405102914085L78.16666666666667,92.65181947139993L79.33333333333333,92.91747267137333L80.5,93.34728878705553L81.66666666666667,95.8193085856064L82.83333333333333,97.37896893934094L84,98.22987665926686L85.16666666666666,98.6054774653634L86.33333333333334,99.09337072816983L87.5,100.72742444168942L88.66666666666666,102.02081252612409L89.83333333333334,101.96938604145743L91,102.95012655786667L92.16666666666667,104.33459716569018L93.33333333333333,104.65789580916883L94.5,106.00994188106799L95.66666666666667,107.1317802613269L96.83333333333333,107.32161993313717L98,109.26959383973241L99.16666666666667,111.15793189271972L100.33333333333333,111.22086708039286L101.5,111.74606935810336L102.66666666666666,112.26308800528648L103.83333333333334,113.03739768117784L105,113.54112708308939L106.16666666666666,114.43623979617063L107.33333333333334,114.9082590018871L108.5,116.75411568817186L109.66666666666667,117.8608761269338L110.83333333333333,117.65684039822146L112,119.444123680265L113.16666666666667,119.25912392685231L114.33333333333333,119.76634331417588L115.5,119.9556736768208L116.66666666666667,120.97969057514372L117.83333333333333,120.26358618095831L119,122.12297088783744L120.16666666666666,123.52804006182495L121.33333333333334,123.953487576164L122.5,125.05741795027429L123.66666666666666,125.7171175691649L124.83333333333334,125.53909450847893L126,124.61089814948434L127.16666666666667,125.18929534361342L128.33333333333331,127.2599661319929L129.5,128.48961212112516L130.66666666666666,129.61864879226522L131.83333333333334,129.30571911800828L133,130.06832539224837L134.16666666666669,129.99006860451146L135.33333333333334,131.36344893913073L136.5,131.60040156584486L137.66666666666666,132.2983422788471L138.83333333333334,132.59191110123422L140,133.28334561818377L141.16666666666666,133.90653610811464L142.33333333333331,135.30488769335477L143.5,135.00082484727287L144.66666666666669,134.83683460688275L145.83333333333334,135.09894979012847L147,135.83489062793757L148.16666666666666,136.81283031263857L149.33333333333334,136.31585967924966L150.5,138.07882607894913L151.66666666666666,139.23089297364817L152.83333333333331,139.47068259226822L154,139.80285918691567L155.16666666666669,139.33003830556498L156.33333333333334,140.04502895688242L157.5,141.210252120245L158.66666666666666,142.51815846639354L159.83333333333331,143.021831598914L161,144.13185971543228L162.16666666666669,143.90296342283935L163.33333333333334,145.03527559567615L164.5,144.3278112480503L165.66666666666666,143.9324868720449L166.83333333333334,143.8820758667311L168,143.6983535702488L169.16666666666666,145.16237037955204L170.33333333333331,145.764653228904L171.5,147.06900200182164L172.66666666666669,145.66221038830093L173.83333333333334,146.38609176561036L175,147.0431948591927L176.16666666666666,147.94491880815045L177.33333333333331,148.75814374835633L178.5,149.94191597177252L179.66666666666669,150.5700398478471L180.83333333333334,149.5040208046346L182,150.06650904257776L183.16666666666666,149.03580880171722L184.33333333333334,150.74738214360534L185.5,150.92585719792163L186.66666666666666,151.58944082615784L187.83333333333331,152.12741195347144L189,153.09774293073897L190.16666666666669,153.58066882319298L191.33333333333334,154.936983366855L192.5,154.83702563390864L193.66666666666666,154.62192949739537L194.83333333333331,155.44568952799872L196,156.937067323214L197.16666666666669,156.34080813041783L198.33333333333334,155.9591914789849L199.5,156.37096351758763L200.66666666666666,156.75509865678453L201.83333333333334,156.54041703528995L203,157.82689051620264L204.16666666666666,158.18156644407736L205.33333333333331,157.76212424629654L206.5,157.69627797446597L207.66666666666669,157.79501770129684L208.83333333333334,159.28627331200343L210,159.46761006798206L211.16666666666666,160.48831986257096L212.33333333333331,161.49913868910977L213.5,161.3610938236103L214.66666666666669,162.66201383484176L215.83333333333334,161.87506163996403L217,162.60137886504924L218.16666666666666,163.55922046636186L219.33333333333334,164.20395948830887L220.5,164.68967770883484L221.66666666666666,166.02276356854037L222.83333333333331,163.48643283066235L224,163.78794949746097L225.16666666666669,163.58465180607502L226.33333333333334,164.06239673468303L227.5,165.93424781629852L228.66666666666666,165.26597073698545L229.83333333333331,166.62939018962345L231,166.58111624436967L232.16666666666669,167.43067934821482L233.33333333333334,167.24623178326493L234.5,167.1386317935874L235.66666666666666,167.69803627977225L236.83333333333334,168.56575577305568L238,169.65106082467324L239.16666666666666,168.29624456299766L240.33333333333331,168.04000411624057L241.5,169.7755758961272L242.66666666666669,169.81944752932975L243.83333333333334,169.66418352843158L245,169.40387057734034L246.16666666666666,170.7305698022736L247.33333333333331,171.22527467675252L248.5,172.3327251300392L249.66666666666669,173.5274334854419L250.83333333333334,173.27475366546207L252,172.14067345591482L253.16666666666666,173.63946804329726L254.33333333333334,174.2362183898473L255.5,174.3483023676573" style="fill: none;" fill="none"></path></g></g></g></g><g opacity="0.2"><g><g><g><path stroke="rgb(0, 119, 187)" stroke-width="2px" d="M24.5,-2.481112003326416L25.666666666666664,4.791590963091186L26.833333333333336,10.599890572684163L28,16.57343367167883L29.166666666666668,21.092822006770547L30.333333333333336,24.583643470491698L31.5,28.36214896610805L32.666666666666664,26.702118056161073L33.833333333333336,39.61365713391986L35,42.66125709669932L36.16666666666667,47.080570936203L37.333333333333336,40.03828045300075L38.5,47.12385616983687L39.666666666666664,54.063841581344604L40.833333333333336,57.804427283150815L42,55.958806412560605L43.16666666666667,58.77695846557617L44.33333333333333,65.68719281469073L45.5,67.80132681982859L46.666666666666664,67.65808766228812L47.833333333333336,66.39172329221454L49,74.02641258920943L50.166666666666664,73.46108211789813L51.33333333333333,77.15726729801723L52.5,79.42116640295302L53.66666666666667,77.30561568055835L54.833333333333336,82.79446062019893L56,85.39734700747898L57.166666666666664,80.07990978445326L58.333333333333336,84.8057771239962L59.5,91.09310802391597L60.66666666666667,93.35165676048824L61.83333333333333,94.39443601880754L63,96.73465699808938L64.16666666666666,96.31778040954045L65.33333333333333,99.52533377919877L66.5,101.97850028106144L67.66666666666667,102.22711908817291L68.83333333333333,104.32574456078666L70,106.30328592232296L71.16666666666666,107.95758967740196L72.33333333333334,109.14134737423488L73.5,110.10878440311977L74.66666666666667,113.77983038766044L75.83333333333333,114.96489930152893L77,116.55456156390053L78.16666666666667,117.24821044717515L79.33333333333333,118.54343666349138L80.5,115.66322033745902L81.66666666666667,120.09786185196468L82.83333333333333,121.73231649398804L84,122.21998373099736L85.16666666666666,123.39073475769588L86.33333333333334,123.73873477322715L87.5,125.19655190195357L88.66666666666666,125.10662049906594L89.83333333333334,126.16493843282973L91,128.10688100542342L92.16666666666667,127.66689986842019L93.33333333333333,127.83268593038832L94.5,129.33261271885465L95.66666666666667,130.73778523717607L96.83333333333333,128.96039286681582L98,132.80078177792686L99.16666666666667,129.27318595136916L100.33333333333333,133.48436292580197L101.5,133.1268377474376L102.66666666666666,132.1928292172296L103.83333333333334,134.7897322348186L105,130.38604749952043L106.16666666666666,135.3434878247125L107.33333333333334,136.3521754401071L108.5,134.1759922334126L109.66666666666667,132.63580957480838L110.83333333333333,136.06571219648632L112,138.34915898527416L113.16666666666667,131.12831691333224L114.33333333333333,136.29840047018868L115.5,139.1031539951052L116.66666666666667,134.37214728764127L117.83333333333333,138.69893743310655L119,140.36525314194816L120.16666666666666,139.83531045913696L121.33333333333334,140.1775983912604L122.5,139.71002141066958L123.66666666666666,141.74706489699227L124.83333333333334,126.73937206608909L126,142.26501069750103L127.16666666666667,136.54218133858274L128.33333333333331,142.57658299377988L129.5,143.63110291957855L130.66666666666666,140.26959458419253L131.83333333333334,143.31000546046664L133,144.18478315217155L134.16666666666669,143.92712146895272L135.33333333333334,145.2975090571812L136.5,144.990533556257L137.66666666666666,145.46243604591916L138.83333333333334,142.71508971282412L140,144.3470424924578L141.16666666666666,146.24401182787759L142.33333333333331,145.26795392377036L143.5,143.8796765123095L144.66666666666669,144.94405317306519L145.83333333333334,145.33547406537193L147,143.7101376567568L148.16666666666666,147.25233772822787L149.33333333333334,141.2652906009129L150.5,147.08362780298503L151.66666666666666,146.31394340310777L152.83333333333331,147.71986949443817L154,147.10377834524425L155.16666666666669,148.38016523633684L156.33333333333334,150.07977380071367L157.5,150.2946174655642L158.66666666666666,145.47147892202648L159.83333333333331,147.2740557023457L161,150.34641807419914L162.16666666666669,150.3738179888044L163.33333333333334,152.1879997934614L164.5,145.87461033889224L165.66666666666666,151.0439553941999L166.83333333333334,151.51706360067638L168,152.18946172509874L169.16666666666666,143.8100765092032L170.33333333333331,153.59823632240295L171.5,149.4931925705501L172.66666666666669,150.35531023570468L173.83333333333334,149.38647156102317L175,154.97367284979137L176.16666666666666,150.9920643568039L177.33333333333331,154.79444304534366L178.5,152.455834712301L179.66666666666669,155.4717846087047L180.83333333333334,152.7019215141024L182,155.59000514234813L183.16666666666666,152.5489009789058L184.33333333333334,157.33580773217338L185.5,154.18573691163743L186.66666666666666,153.06372698715757L187.83333333333331,158.34172219889504L189,156.70019904204776L190.16666666666669,153.24336372103008L191.33333333333334,156.13545635768344L192.5,156.58811259269714L193.66666666666666,158.5855633531298L194.83333333333331,156.72208280222756L196,160.11563306195396L197.16666666666669,159.16857264723095L198.33333333333334,157.0945739405496L199.5,159.22396026338848L200.66666666666666,160.1060174703598L201.83333333333334,160.0545484338488L203,160.83656128815244L204.16666666666666,154.25084561961037L205.33333333333331,152.1900495120457L206.5,161.04495436804635L207.66666666666669,154.28526883465904L208.83333333333334,156.60868513584137L210,162.8812309333256L211.16666666666666,156.1635947738375L212.33333333333331,163.07339205060686L213.5,160.1958885874067L214.66666666666669,163.42610943317413L215.83333333333334,161.67433854511808L217,164.9829008408955L218.16666666666666,162.04006259781974L219.33333333333334,157.7044255052294L220.5,162.44843888282776L221.66666666666666,163.9373936482838L222.83333333333331,156.7738984823227L224,164.02201989718844L225.16666666666669,162.8000108344214L226.33333333333334,160.54727968147824L227.5,165.17512224401744L228.66666666666666,164.67958770479473L229.83333333333331,164.8348991019385L231,154.6595836196627L232.16666666666669,167.7551602976663L233.33333333333334,161.02872240543365L234.5,163.06154588290622L235.66666666666666,165.42759934493472L236.83333333333334,166.10537798064095L238,168.49868064267295L239.16666666666666,150.0312286274774L240.33333333333331,166.16049431051525L241.5,169.2403471980776L242.66666666666669,157.33841509478432L243.83333333333334,159.14145909036907L245,167.317786523274L246.16666666666666,169.42489722796847L247.33333333333331,161.7777589048658L248.5,170.9492849963052L249.66666666666669,170.74616692747387L250.83333333333334,168.42603620461057L252,172.14837036814006L253.16666666666666,172.7078983272825L254.33333333333334,171.53601694107056L255.5,168.50410636833737" style="fill: none;" fill="none"></path></g><g><path stroke="rgb(255, 112, 67)" stroke-width="2px" d="M26.833333333333336,-1.4169764859335539L28,3.4029066222054647L29.166666666666668,7.7405934333801465L30.333333333333336,9.678089925221048L31.5,15.316624607358662L32.666666666666664,16.35779121943884L33.833333333333336,20.90723204612732L35,26.901091473443177L36.16666666666667,25.693264654704507L37.333333333333336,25.11135557719641L38.5,31.092524835041605L39.666666666666664,34.95301907403129L40.833333333333336,34.544703074863996L42,33.684424127851216L43.16666666666667,36.90106558799744L44.33333333333333,42.638288191386636L45.5,44.30377496991839L46.666666666666664,43.25034018925258L47.833333333333336,46.70233757155284L49,47.8027048792158L50.166666666666664,48.54530586515155L51.33333333333333,50.65033670834133L52.5,52.622105700629106L53.66666666666667,56.79355430603027L54.833333333333336,57.07867618969509L56,59.790755305971416L57.166666666666664,61.12249967030117L58.333333333333336,60.76608977999007L59.5,66.03621768951416L60.66666666666667,68.08904099464417L61.83333333333333,69.75172448158264L63,71.75234024865287L64.16666666666666,73.631058045796L65.33333333333333,74.80747594152179L66.5,78.57559720107487L67.66666666666667,78.21410822868347L68.83333333333333,79.4965387753078L70,78.17074763774872L71.16666666666666,85.21541941165924L72.33333333333334,86.85869085788727L73.5,88.46720751694271L74.66666666666667,92.74468384470259L75.83333333333333,91.04798407214028L77,94.77999411310469L78.16666666666667,94.3134721347264L79.33333333333333,93.31595247132438L80.5,93.99201296057021L81.66666666666667,99.52733828340257L82.83333333333333,99.71845946993147L84,99.50623823915208L85.16666666666666,99.16887867450714L86.33333333333334,99.82521062237876L87.5,103.17850501196725L88.66666666666666,103.96089465277535L89.83333333333334,101.89224631445748L91,104.4212373324803L92.16666666666667,106.41130307742527L93.33333333333333,105.14284377438682L94.5,108.03801098891667L95.66666666666667,108.81453783171517L96.83333333333333,107.60637944085258L98,112.19155469962529L99.16666666666667,113.99043897220066L100.33333333333333,111.31526986190251L101.5,112.5338727746691L102.66666666666666,113.03861597606114L103.83333333333334,114.19886219501495L105,114.29672118595668L106.16666666666666,115.7789088657924L107.33333333333334,115.61628781046187L108.5,119.52290071759904L109.66666666666667,119.52101678507668L110.83333333333333,117.3507868051529L112,122.12504860333034L113.16666666666667,118.98162429673332L114.33333333333333,120.52717239516122L115.5,120.23966922078813L116.66666666666667,122.51571592262813L117.83333333333333,119.18942958968026L119,124.91204794815609L120.16666666666666,125.63564382280623L121.33333333333334,124.59165884767259L122.5,126.71331351143974L123.66666666666666,126.70666699750083L124.83333333333334,125.27205991744995L126,123.21860361099243L127.16666666666667,126.05689113480705L128.33333333333331,130.3659723145621L129.5,130.33408110482353L130.66666666666666,131.31220379897525L131.83333333333334,128.83632460662295L133,131.21223480360848L134.16666666666669,129.87268342290605L135.33333333333334,133.42351944105965L136.5,131.95583050591605L137.66666666666666,133.34525334835052L138.83333333333334,133.03226433481487L140,134.3204973936081L141.16666666666666,134.84132184301103L142.33333333333331,137.40241507121493L143.5,134.54473057815005L144.66666666666669,134.59084924629758L145.83333333333334,135.49212256499698L147,136.93880188465118L148.16666666666666,138.27973983969005L149.33333333333334,135.5704037291663L150.5,140.7232756784984L151.66666666666666,140.95899331569672L152.83333333333331,139.83036702019828L154,140.30112407888683L155.16666666666669,138.62080698353904L156.33333333333334,141.11751493385862L157.5,142.95808686528886L158.66666666666666,144.48001798561643L159.83333333333331,143.77734129769462L161,145.79690189020974L162.16666666666669,143.55961898394992L163.33333333333334,146.73374385493142L164.5,143.26661472661155L165.66666666666666,143.3395003080368L166.83333333333334,143.8064593587603L168,143.42277012552532L169.16666666666666,147.35839559350694L170.33333333333331,146.66807750293185L171.5,149.0255251611982L172.66666666666669,143.55202296801974L173.83333333333334,147.47191383157457L175,148.0288494995662L176.16666666666666,149.297504731587L177.33333333333331,149.97798115866524L178.5,151.71757430689675L179.66666666666669,151.51222566195895L180.83333333333334,147.90499223981584L182,150.91024139949252L183.16666666666666,147.4897584404264L184.33333333333334,153.31474215643746L185.5,151.19356977939606L186.66666666666666,152.58481626851218L187.83333333333331,152.93436864444186L189,154.55323939664024L190.16666666666669,154.30505766187395L191.33333333333334,156.971455182348L192.5,154.68708903448922L193.66666666666666,154.29928529262543L194.83333333333331,156.68132957390378L196,159.174134016037L197.16666666666669,155.44641934122356L198.33333333333334,155.3867665018354L199.5,156.98862157549175L200.66666666666666,157.33130136557986L201.83333333333334,156.21839460304807L203,159.75660073757172L204.16666666666666,158.71358033588956L205.33333333333331,157.13296094962527L206.5,157.59750856672014L207.66666666666669,157.94312729154314L208.83333333333334,161.52315672806333L210,159.73961520195007L211.16666666666666,162.01938455445426L212.33333333333331,163.015366928918L213.5,161.1540265253612L214.66666666666669,164.61339385168893L215.83333333333334,160.6946333476475L217,163.69085470267703L218.16666666666666,164.9959828683308L219.33333333333334,165.17106802122933L220.5,165.4182550396238L221.66666666666666,168.02239235809873L222.83333333333331,159.68193672384533L224,164.24022449765886L225.16666666666669,163.27970526899608L226.33333333333334,164.77901412759508L227.5,168.74202443872178L228.66666666666666,164.26355511801583L229.83333333333331,168.6745193685804L231,166.50870532648904L232.16666666666669,168.70502400398254L233.33333333333334,166.96956043584007L234.5,166.97723180907113L235.66666666666666,168.53714300904954L236.83333333333334,169.86733501298085L238,171.2790184020996L239.16666666666666,166.2640201704843L240.33333333333331,167.65564344610485L241.5,172.3789335659572L242.66666666666669,169.8852549791336L243.83333333333334,169.43128752708435L245,169.01340115070343L246.16666666666666,172.7206186396735L247.33333333333331,171.96733198847087L248.5,173.9939008099692L249.66666666666669,175.31949601854595L250.83333333333334,172.89573393549236L252,170.43955314159393L253.16666666666666,175.8876599243709L254.33333333333334,175.13134390967232L255.5,174.51642833437236" style="fill: none;" fill="none"></path></g></g></g></g></g></g><g transform="translate(50, 177)" clip-path="url(#clip_1)"><clipPath id="clip_1"><rect width="280" height="22"></rect></clipPath><g><g><line x1="0" y1="0" x2="0" y2="5" style="visibility: inherit;" fill="rgb(0, 0, 0)" stroke="rgb(204, 204, 204)" stroke-width="1px"></line><line x1="23.333333333333332" y1="0" x2="23.333333333333332" y2="5" style="visibility: inherit;" fill="rgb(0, 0, 0)" stroke="rgb(204, 204, 204)" stroke-width="1px"></line><line x1="46.666666666666664" y1="0" x2="46.666666666666664" y2="5" style="visibility: inherit;" fill="rgb(0, 0, 0)" stroke="rgb(204, 204, 204)" stroke-width="1px"></line><line x1="70" y1="0" x2="70" y2="5" style="visibility: inherit;" fill="rgb(0, 0, 0)" stroke="rgb(204, 204, 204)" stroke-width="1px"></line><line x1="93.33333333333333" y1="0" x2="93.33333333333333" y2="5" style="visibility: inherit;" fill="rgb(0, 0, 0)" stroke="rgb(204, 204, 204)" stroke-width="1px"></line><line x1="116.66666666666667" y1="0" x2="116.66666666666667" y2="5" style="visibility: inherit;" fill="rgb(0, 0, 0)" stroke="rgb(204, 204, 204)" stroke-width="1px"></line><line x1="140" y1="0" x2="140" y2="5" style="visibility: inherit;" fill="rgb(0, 0, 0)" stroke="rgb(204, 204, 204)" stroke-width="1px"></line><line x1="163.33333333333334" y1="0" x2="163.33333333333334" y2="5" style="visibility: inherit;" fill="rgb(0, 0, 0)" stroke="rgb(204, 204, 204)" stroke-width="1px"></line><line x1="186.66666666666666" y1="0" x2="186.66666666666666" y2="5" style="visibility: inherit;" fill="rgb(0, 0, 0)" stroke="rgb(204, 204, 204)" stroke-width="1px"></line><line x1="210" y1="0" x2="210" y2="5" style="visibility: inherit;" fill="rgb(0, 0, 0)" stroke="rgb(204, 204, 204)" stroke-width="1px"></line><line x1="233.33333333333334" y1="0" x2="233.33333333333334" y2="5" style="visibility: inherit;" fill="rgb(0, 0, 0)" stroke="rgb(204, 204, 204)" stroke-width="1px"></line><line x1="256.66666666666663" y1="0" x2="256.66666666666663" y2="5" style="visibility: inherit;" fill="rgb(0, 0, 0)" stroke="rgb(204, 204, 204)" stroke-width="1px"></line><line x1="280" y1="0" x2="280" y2="5" style="visibility: inherit;" fill="rgb(0, 0, 0)" stroke="rgb(204, 204, 204)" stroke-width="1px"></line></g><g transform="translate(0, 8)"><text x="0" y="0" dx="0em" dy="0.95em" style="text-anchor: middle; visibility: hidden; font-family: Roboto, sans-serif; font-size: 12px; font-weight: 200;" fill="rgb(33, 33, 33)" stroke="none" stroke-width="1px">-20</text><text x="23.333333333333332" y="0" dx="0em" dy="0.95em" style="text-anchor: middle; visibility: inherit; font-family: Roboto, sans-serif; font-size: 12px; font-weight: 200;" fill="rgb(33, 33, 33)" stroke="none" stroke-width="1px">0</text><text x="46.666666666666664" y="0" dx="0em" dy="0.95em" style="text-anchor: middle; visibility: hidden; font-family: Roboto, sans-serif; font-size: 12px; font-weight: 200;" fill="rgb(33, 33, 33)" stroke="none" stroke-width="1px">20</text><text x="70" y="0" dx="0em" dy="0.95em" style="text-anchor: middle; visibility: inherit; font-family: Roboto, sans-serif; font-size: 12px; font-weight: 200;" fill="rgb(33, 33, 33)" stroke="none" stroke-width="1px">40</text><text x="93.33333333333333" y="0" dx="0em" dy="0.95em" style="text-anchor: middle; visibility: hidden; font-family: Roboto, sans-serif; font-size: 12px; font-weight: 200;" fill="rgb(33, 33, 33)" stroke="none" stroke-width="1px">60</text><text x="116.66666666666667" y="0" dx="0em" dy="0.95em" style="text-anchor: middle; visibility: inherit; font-family: Roboto, sans-serif; font-size: 12px; font-weight: 200;" fill="rgb(33, 33, 33)" stroke="none" stroke-width="1px">80</text><text x="140" y="0" dx="0em" dy="0.95em" style="text-anchor: middle; visibility: hidden; font-family: Roboto, sans-serif; font-size: 12px; font-weight: 200;" fill="rgb(33, 33, 33)" stroke="none" stroke-width="1px">100</text><text x="163.33333333333334" y="0" dx="0em" dy="0.95em" style="text-anchor: middle; visibility: inherit; font-family: Roboto, sans-serif; font-size: 12px; font-weight: 200;" fill="rgb(33, 33, 33)" stroke="none" stroke-width="1px">120</text><text x="186.66666666666666" y="0" dx="0em" dy="0.95em" style="text-anchor: middle; visibility: hidden; font-family: Roboto, sans-serif; font-size: 12px; font-weight: 200;" fill="rgb(33, 33, 33)" stroke="none" stroke-width="1px">140</text><text x="210" y="0" dx="0em" dy="0.95em" style="text-anchor: middle; visibility: inherit; font-family: Roboto, sans-serif; font-size: 12px; font-weight: 200;" fill="rgb(33, 33, 33)" stroke="none" stroke-width="1px">160</text><text x="233.33333333333334" y="0" dx="0em" dy="0.95em" style="text-anchor: middle; visibility: hidden; font-family: Roboto, sans-serif; font-size: 12px; font-weight: 200;" fill="rgb(33, 33, 33)" stroke="none" stroke-width="1px">180</text><text x="256.66666666666663" y="0" dx="0em" dy="0.95em" style="text-anchor: middle; visibility: inherit; font-family: Roboto, sans-serif; font-size: 12px; font-weight: 200;" fill="rgb(33, 33, 33)" stroke="none" stroke-width="1px">200</text><text x="280" y="0" dx="0em" dy="0.95em" style="text-anchor: middle; visibility: hidden; font-family: Roboto, sans-serif; font-size: 12px; font-weight: 200;" fill="rgb(33, 33, 33)" stroke="none" stroke-width="1px">220</text></g><line x1="0" y1="0" x2="280" y2="0" fill="rgb(0, 0, 0)" stroke="rgb(204, 204, 204)" stroke-width="1px"></line></g></g></g></g></svg>