<svg viewBox="0 0 330 200" xmlns="http://www.w3.org/2000/svg"><g><g><g><g><g><line x1="50" y1="177" x2="45" y2="177" style="visibility: inherit;" fill="rgb(0, 0, 0)" stroke="rgb(204, 204, 204)" stroke-width="1px"></line><line x1="50" y1="159.29999999999998" x2="45" y2="159.29999999999998" style="visibility: inherit;" fill="rgb(0, 0, 0)" stroke="rgb(204, 204, 204)" stroke-width="1px"></line><line x1="50" y1="141.59999999999997" x2="45" y2="141.59999999999997" style="visibility: inherit;" fill="rgb(0, 0, 0)" stroke="rgb(204, 204, 204)" stroke-width="1px"></line><line x1="50" y1="123.89999999999998" x2="45" y2="123.89999999999998" style="visibility: inherit;" fill="rgb(0, 0, 0)" stroke="rgb(204, 204, 204)" stroke-width="1px"></line><line x1="50" y1="106.19999999999996" x2="45" y2="106.19999999999996" style="visibility: inherit;" fill="rgb(0, 0, 0)" stroke="rgb(204, 204, 204)" stroke-width="1px"></line><line x1="50" y1="88.49999999999996" x2="45" y2="88.49999999999996" style="visibility: inherit;" fill="rgb(0, 0, 0)" stroke="rgb(204, 204, 204)" stroke-width="1px"></line><line x1="50" y1="70.80000000000004" x2="45" y2="70.80000000000004" style="visibility: inherit;" fill="rgb(0, 0, 0)" stroke="rgb(204, 204, 204)" stroke-width="1px"></line><line x1="50" y1="53.10000000000003" x2="45" y2="53.10000000000003" style="visibility: inherit;" fill="rgb(0, 0, 0)" stroke="rgb(204, 204, 204)" stroke-width="1px"></line><line x1="50" y1="35.40000000000001" x2="45" y2="35.40000000000001" style="visibility: inherit;" fill="rgb(0, 0, 0)" stroke="rgb(204, 204, 204)" stroke-width="1px"></line><line x1="50" y1="17.700000000000017" x2="45" y2="17.700000000000017" style="visibility: inherit;" fill="rgb(0, 0, 0)" stroke="rgb(204, 204, 204)" stroke-width="1px"></line><line x1="50" y1="0" x2="45" y2="0" style="visibility: inherit;" fill="rgb(0, 0, 0)" stroke="rgb(204, 204, 204)" stroke-width="1px"></line></g><g transform="translate(40, 0)"><text x="0" y="177" dx="0em" dy="0.3em" style="text-anchor: end; visibility: hidden; font-family: Roboto, sans-serif; font-size: 12px; font-weight: 200;" fill="rgb(33, 33, 33)" stroke="none" stroke-width="1px">0.7</text><text x="0" y="159.29999999999998" dx="0em" dy="0.3em" style="text-anchor: end; visibility: inherit; font-family: Roboto, sans-serif; font-size: 12px; font-weight: 200;" fill="rgb(33, 33, 33)" stroke="none" stroke-width="1px">0.72</text><text x="0" y="141.59999999999997" dx="0em" dy="0.3em" style="text-anchor: end; visibility: hidden; font-family: Roboto, sans-serif; font-size: 12px; font-weight: 200;" fill="rgb(33, 33, 33)" stroke="none" stroke-width="1px">0.74</text><text x="0" y="123.89999999999998" dx="0em" dy="0.3em" style="text-anchor: end; visibility: inherit; font-family: Roboto, sans-serif; font-size: 12px; font-weight: 200;" fill="rgb(33, 33, 33)" stroke="none" stroke-width="1px">0.76</text><text x="0" y="106.19999999999996" dx="0em" dy="0.3em" style="text-anchor: end; visibility: hidden; font-family: Roboto, sans-serif; font-size: 12px; font-weight: 200;" fill="rgb(33, 33, 33)" stroke="none" stroke-width="1px">0.78</text><text x="0" y="88.49999999999996" dx="0em" dy="0.3em" style="text-anchor: end; visibility: inherit; font-family: Roboto, sans-serif; font-size: 12px; font-weight: 200;" fill="rgb(33, 33, 33)" stroke="none" stroke-width="1px">0.8</text><text x="0" y="70.80000000000004" dx="0em" dy="0.3em" style="text-anchor: end; visibility: hidden; font-family: Roboto, sans-serif; font-size: 12px; font-weight: 200;" fill="rgb(33, 33, 33)" stroke="none" stroke-width="1px">0.82</text><text x="0" y="53.10000000000003" dx="0em" dy="0.3em" style="text-anchor: end; visibility: inherit; font-family: Roboto, sans-serif; font-size: 12px; font-weight: 200;" fill="rgb(33, 33, 33)" stroke="none" stroke-width="1px">0.84</text><text x="0" y="35.40000000000001" dx="0em" dy="0.3em" style="text-anchor: end; visibility: hidden; font-family: Roboto, sans-serif; font-size: 12px; font-weight: 200;" fill="rgb(33, 33, 33)" stroke="none" stroke-width="1px">0.86</text><text x="0" y="17.700000000000017" dx="0em" dy="0.3em" style="text-anchor: end; visibility: inherit; font-family: Roboto, sans-serif; font-size: 12px; font-weight: 200;" fill="rgb(33, 33, 33)" stroke="none" stroke-width="1px">0.88</text><text x="0" y="0" dx="0em" dy="0.3em" style="text-anchor: end; visibility: hidden; font-family: Roboto, sans-serif; font-size: 12px; font-weight: 200;" fill="rgb(33, 33, 33)" stroke="none" stroke-width="1px">0.9</text></g><line x1="50" y1="0" x2="50" y2="177" fill="rgb(0, 0, 0)" stroke="rgb(204, 204, 204)" stroke-width="1px"></line></g></g><g transform="translate(50, 0)" clip-path="url(#clip_0)"><clipPath id="clip_0"><rect width="280" height="176"></rect></clipPath><g><g><g><line x1="0" y1="0" x2="0" y2="177" fill="rgb(0, 0, 0)" stroke="rgb(66, 66, 66)" stroke-width="1px" opacity="0.25"></line><line x1="23.333333333333332" y1="0" x2="23.333333333333332" y2="177" fill="rgb(0, 0, 0)" stroke="rgb(66, 66, 66)" stroke-width="1px" opacity="0.25"></line><line x1="46.666666666666664" y1="0" x2="46.666666666666664" y2="177" fill="rgb(0, 0, 0)" stroke="rgb(66, 66, 66)" stroke-width="1px" opacity="0.25"></line><line x1="70" y1="0" x2="70" y2="177" fill="rgb(0, 0, 0)" stroke="rgb(66, 66, 66)" stroke-width="1px" opacity="0.25"></line><line x1="93.33333333333333" y1="0" x2="93.33333333333333" y2="177" fill="rgb(0, 0, 0)" stroke="rgb(66, 66, 66)" stroke-width="1px" opacity="0.25"></line><line x1="116.66666666666667" y1="0" x2="116.66666666666667" y2="177" fill="rgb(0, 0, 0)" stroke="rgb(66, 66, 66)" stroke-width="1px" opacity="0.25"></line><line x1="140" y1="0" x2="140" y2="177" fill="rgb(0, 0, 0)" stroke="rgb(66, 66, 66)" stroke-width="1px" opacity="0.25"></line><line x1="163.33333333333334" y1="0" x2="163.33333333333334" y2="177" fill="rgb(0, 0, 0)" stroke="rgb(66, 66, 66)" stroke-width="1px" opacity="0.25"></line><line x1="186.66666666666666" y1="0" x2="186.66666666666666" y2="177" fill="rgb(0, 0, 0)" stroke="rgb(66, 66, 66)" stroke-width="1px" opacity="0.25"></line><line x1="210" y1="0" x2="210" y2="177" fill="rgb(0, 0, 0)" stroke="rgb(66, 66, 66)" stroke-width="1px" opacity="0.25"></line><line x1="233.33333333333334" y1="0" x2="233.33333333333334" y2="177" fill="rgb(0, 0, 0)" stroke="rgb(66, 66, 66)" stroke-width="1px" opacity="0.25"></line><line x1="256.66666666666663" y1="0" x2="256.66666666666663" y2="177" fill="rgb(0, 0, 0)" stroke="rgb(66, 66, 66)" stroke-width="1px" opacity="0.25"></line><line x1="280" y1="0" x2="280" y2="177" fill="rgb(0, 0, 0)" stroke="rgb(66, 66, 66)" stroke-width="1px" opacity="0.25"></line></g><g><line x1="0" y1="177" x2="280" y2="177" fill="rgb(0, 0, 0)" stroke="rgb(66, 66, 66)" stroke-width="1px" opacity="0.25"></line><line x1="0" y1="159.29999999999998" x2="280" y2="159.29999999999998" fill="rgb(0, 0, 0)" stroke="rgb(66, 66, 66)" stroke-width="1px" opacity="0.25"></line><line x1="0" y1="141.59999999999997" x2="280" y2="141.59999999999997" fill="rgb(0, 0, 0)" stroke="rgb(66, 66, 66)" stroke-width="1px" opacity="0.25"></line><line x1="0" y1="123.89999999999998" x2="280" y2="123.89999999999998" fill="rgb(0, 0, 0)" stroke="rgb(66, 66, 66)" stroke-width="1px" opacity="0.25"></line><line x1="0" y1="106.19999999999996" x2="280" y2="106.19999999999996" fill="rgb(0, 0, 0)" stroke="rgb(66, 66, 66)" stroke-width="1px" opacity="0.25"></line><line x1="0" y1="88.49999999999996" x2="280" y2="88.49999999999996" fill="rgb(0, 0, 0)" stroke="rgb(66, 66, 66)" stroke-width="1px" opacity="0.25"></line><line x1="0" y1="70.80000000000004" x2="280" y2="70.80000000000004" fill="rgb(0, 0, 0)" stroke="rgb(66, 66, 66)" stroke-width="1px" opacity="0.25"></line><line x1="0" y1="53.10000000000003" x2="280" y2="53.10000000000003" fill="rgb(0, 0, 0)" stroke="rgb(66, 66, 66)" stroke-width="1px" opacity="0.25"></line><line x1="0" y1="35.40000000000001" x2="280" y2="35.40000000000001" fill="rgb(0, 0, 0)" stroke="rgb(66, 66, 66)" stroke-width="1px" opacity="0.25"></line><line x1="0" y1="17.700000000000017" x2="280" y2="17.700000000000017" fill="rgb(0, 0, 0)" stroke="rgb(66, 66, 66)" stroke-width="1px" opacity="0.25"></line><line x1="0" y1="0" x2="280" y2="0" fill="rgb(0, 0, 0)" stroke="rgb(66, 66, 66)" stroke-width="1px" opacity="0.25"></line></g></g></g><g><g><line x1="0" y1="796.4999999999997" x2="280" y2="796.4999999999997" fill="rgb(0, 0, 0)" stroke="rgb(153, 153, 153)" stroke-width="1.5px"></line></g></g><g><g><line x1="23.333333333333332" y1="0" x2="23.333333333333332" y2="177" fill="rgb(0, 0, 0)" stroke="rgb(153, 153, 153)" stroke-width="1.5px"></line></g></g><g><g><g><g><g><path stroke="rgb(0, 119, 187)" stroke-width="2px" d="M24.5,184.03977656364444L25.666666666666664,146.7885096657034L26.833333333333336,126.65674686935895L28,123.36736165381076L29.166666666666668,118.86490342862078L30.333333333333336,130.86953452139147L31.5,140.47208938323115L32.666666666666664,163.0342615600479L33.833333333333336,138.86714515296347L35,127.0446771535848L36.16666666666667,109.6580479152828L37.333333333333336,132.11871791428538L38.5,136.558342196839L39.666666666666664,125.69718019046802L40.833333333333336,113.38937472634618L42,113.73187168620741L43.16666666666667,110.07510490880904L44.33333333333333,97.58248297628984L45.5,87.51275990256602L46.666666666666664,91.12590973210473L47.833333333333336,99.7302122178469L49,87.5143976409169L50.166666666666664,88.55227503221695L51.33333333333333,84.02589768198187L52.5,78.09189526905374L53.66666666666667,86.1169556538967L54.833333333333336,76.77199143657029L56,64.72863560919676L57.166666666666664,76.8117228160322L58.333333333333336,77.62521507861427L59.5,60.09148683789108L60.66666666666667,50.21488656709695L61.83333333333333,46.86346977949309L63,41.63444096397765L64.16666666666666,46.864309666166044L65.33333333333333,38.41676618450865L66.5,31.417332872352237L67.66666666666667,35.58493766795339L68.83333333333333,31.00550728192149L70,26.970577553554065L71.16666666666666,25.836891218857996L72.33333333333334,29.01849391840595L73.5,30.2838197876184L74.66666666666667,27.824836559586537L75.83333333333333,26.993082372788084L77,27.137665610583266L78.16666666666667,28.51168705291936L79.33333333333333,29.33609991830142L80.5,40.77257648454336L81.66666666666667,37.33626932706502L82.83333333333333,34.630849282769844L84,31.720325756561706L85.16666666666666,29.974011640840203L86.33333333333334,28.92622317140836L87.5,29.584821589383896L88.66666666666666,33.198159389254414L89.83333333333334,32.79161906990814L91,31.26042337866651L92.16666666666667,31.628977463555536L93.33333333333333,30.562838414855065L94.5,31.854062235085486L95.66666666666667,30.697889277773054L96.83333333333333,35.15327150192081L98,30.746507588423583L99.16666666666667,39.044278087256664L100.33333333333333,34.368383039258966L101.5,32.20648176027718L102.66666666666666,35.41479124160641L103.83333333333334,33.477962431502505L105,44.544965492005446L106.16666666666666,38.31243123192503L107.33333333333334,33.929274926059925L108.5,39.02301014034366L109.66666666666667,47.22835836749322L110.83333333333333,46.3588244553867L112,39.4007466099538L113.16666666666667,51.960450497977554L114.33333333333333,47.91080823404353L115.5,39.04466537751413L116.66666666666667,45.954080010161796L117.83333333333333,43.66335019153714L119,37.783462051644086L120.16666666666666,40.04825091606035L121.33333333333334,41.40712423471004L122.5,42.222448225899875L123.66666666666666,40.13709962134618L124.83333333333334,57.551348303348234L126,46.116260918730745L127.16666666666667,50.8406730847085L128.33333333333331,43.37712728718077L129.5,42.76081430756542L130.66666666666666,38.529212020894846L131.83333333333334,39.852065147793844L133,36.7839625250318L134.16666666666669,40.09218694990977L135.33333333333334,35.640764106667646L136.5,36.188089149806856L137.66666666666666,32.654669676789005L138.83333333333334,38.2582469907811L140,41.62039337917622L141.16666666666666,35.270416464593765L142.33333333333331,37.89678781401328L143.5,42.047153622932505L144.66666666666669,43.89373735846722L145.83333333333334,45.00168759978789L147,46.310093494397194L148.16666666666666,43.233322532261525L149.33333333333334,51.685453052094566L150.5,50.3203527657812L151.66666666666666,48.8576568441764L152.83333333333331,48.623675041030374L154,48.483285959142684L155.16666666666669,41.319059262024346L156.33333333333334,37.664158993570275L157.5,38.045761831765375L158.66666666666666,44.067466383078695L159.83333333333331,45.749560764371715L161,42.897002894246235L162.16666666666669,43.116375421621576L163.33333333333334,40.67345593877916L164.5,46.93135434692079L165.66666666666666,44.24971479359254L166.83333333333334,38.13528081287728L168,38.972070673166435L169.16666666666666,49.12870193663767L170.33333333333331,45.56812334742275L171.5,46.649954942978184L172.66666666666669,46.011782400677596L173.83333333333334,46.916150374931114L175,41.666049411131134L176.16666666666666,43.665074831386264L177.33333333333331,41.00267558463797L178.5,43.26705053549045L179.66666666666669,40.7638610071005L180.83333333333334,41.192854539517256L182,41.45025065896729L183.16666666666666,42.24832408045419L184.33333333333334,37.57808213481127L185.5,39.92502296596057L186.66666666666666,42.620458964284026L187.83333333333331,39.7322703145598L189,38.64299287454211L190.16666666666669,42.49487665924973L191.33333333333334,42.231463930806775L192.5,42.07341629374102L193.66666666666666,40.047680462050906L194.83333333333331,41.406781962304436L196,39.647699863188954L197.16666666666669,37.94861485390279L198.33333333333334,40.14734259741549L199.5,39.53567199407248L200.66666666666666,39.81230538188363L201.83333333333334,39.978285414570166L203,39.434237684365186L204.16666666666666,43.61328039500487L205.33333333333331,49.338884770473115L206.5,38.61423979973817L207.66666666666669,46.339460413313134L208.83333333333334,47.11275718251234L210,41.78401349567991L211.16666666666666,45.023145881793525L212.33333333333331,41.173882465065475L213.5,40.79523166447941L214.66666666666669,39.924405434310735L215.83333333333334,40.04554544602658L217,36.90005070397162L218.16666666666666,38.23093260782299L219.33333333333334,43.534933098896374L220.5,41.56822629496095L221.66666666666666,39.74456646278283L222.83333333333331,44.443113411872275L224,40.18222723329589L225.16666666666669,38.91296702578381L226.33333333333334,41.36958965036099L227.5,40.269020225839824L228.66666666666666,38.32140707149329L229.83333333333331,37.79647492870219L231,47.77970874014217L232.16666666666669,39.60964143099021L233.33333333333334,42.431230043301866L234.5,44.12418321068872L235.66666666666666,41.921776362036326L236.83333333333334,39.95669650302805L238,36.8467413381724L239.16666666666666,49.140775835274944L240.33333333333331,43.64446043715432L241.5,39.70303544846506L242.66666666666669,48.28000930218298L243.83333333333334,52.13892211477992L245,45.44334820485735L246.16666666666666,40.13873235926998L247.33333333333331,44.035977199947595L248.5,32.21431650833831L249.66666666666669,31.55767759154172L250.83333333333334,31.807329991280543L252,29.382578431856416L253.16666666666666,27.92772749620193L254.33333333333334,28.985724184259823L255.5,31.55142944654522" style="fill: none;" fill="none"></path></g><g><path stroke="rgb(255, 112, 67)" stroke-width="2px" d="M37.333333333333336,180.82920604924487L38.5,173.08600023711102L39.666666666666664,166.51389859905436L40.833333333333336,163.3766699588145L42,163.5851702964148L43.16666666666667,159.8515441283654L44.33333333333333,156.968526986412L45.5,151.54114329253926L46.666666666666664,151.82168598143642L47.833333333333336,147.16706486118466L49,145.3389064392971L50.166666666666664,142.9559246350519L51.33333333333333,140.56155151379838L52.5,142.34020442535285L53.66666666666667,137.94144327309414L54.833333333333336,136.10601724247078L56,129.05653107931394L57.166666666666664,125.95216995256708L58.333333333333336,124.25031497421524L59.5,118.56708368335828L60.66666666666667,117.89010746032655L61.83333333333333,113.78637098684635L63,111.32412917800742L64.16666666666666,108.39993297056999L65.33333333333333,104.55549806955472L66.5,100.80196490445533L67.66666666666667,96.62068906424L68.83333333333333,92.82581256715339L70,95.05026461593643L71.16666666666666,93.4911913739827L72.33333333333334,91.2696364317194L73.5,88.81137480656567L74.66666666666667,83.96038965127264L75.83333333333333,83.13971574147236L77,82.48655015847439L78.16666666666667,80.16549486287006L79.33333333333333,81.34508367997559L80.5,82.85664315595741L81.66666666666667,81.0306167100252L82.83333333333333,78.97041231955774L84,76.76972226241253L85.16666666666666,75.7708307024172L86.33333333333334,74.84997329213155L87.5,72.68982537447087L88.66666666666666,71.23297538673054L89.83333333333334,74.05641604849842L91,72.8567359768696L92.16666666666667,71.33312174817006L93.33333333333333,72.83039286816174L94.5,70.51348859717878L95.66666666666667,72.49937421471142L96.83333333333333,68.70724393361964L98,66.91427057644225L99.16666666666667,62.783980856302286L100.33333333333333,63.19955149290729L101.5,63.28813263772588L102.66666666666666,63.50204256176156L103.83333333333334,63.63038851618293L105,61.1351740944356L106.16666666666666,63.65711857008755L107.33333333333334,64.68800154404532L108.5,61.608980674008656L109.66666666666667,58.31471701768646L110.83333333333333,59.231882192537846L112,56.24539188018184L113.16666666666667,55.739608689968236L114.33333333333333,57.68681719590687L115.5,59.015903536614594L116.66666666666667,55.95504344948336L117.83333333333333,56.20844458012695L119,56.199724021368716L120.16666666666666,55.06916302610246L121.33333333333334,57.44531103473185L122.5,52.60124829114243L123.66666666666666,51.302444116477716L124.83333333333334,52.613078794601236L126,54.3640270243423L127.16666666666667,53.16391754212007L128.33333333333331,50.03241219557535L129.5,49.92190369628194L130.66666666666666,49.69483735956144L131.83333333333334,48.43324779747362L133,47.515532823076356L134.16666666666669,48.0902535984937L135.33333333333334,46.988213829399506L136.5,48.8991908622988L137.66666666666666,46.02670395333816L138.83333333333334,44.785495519395134L140,44.362314033362544L141.16666666666666,44.75145009032081L142.33333333333331,43.53805949015141L143.5,43.29230884148312L144.66666666666669,42.98409721513764L145.83333333333334,41.834602816463544L147,40.341078891492465L148.16666666666666,41.85642529376543L149.33333333333334,42.76563313512927L150.5,42.025046842747464L151.66666666666666,43.18832853880733L152.83333333333331,40.5102693763209L154,40.35030611317356L155.16666666666669,42.665767812496384L156.33333333333334,40.0359717033899L157.5,37.9758103264926L158.66666666666666,37.382758448932016L159.83333333333331,36.54464361096226L161,33.46957381382475L162.16666666666669,35.96512753853136L163.33333333333334,36.497871250444256L164.5,36.495995003303015L165.66666666666666,35.85182430644043L166.83333333333334,35.14379941403395L168,37.13042413580137L169.16666666666666,36.55400426022844L170.33333333333331,33.95747391481779L171.5,32.560316944715886L172.66666666666669,33.16889499699917L173.83333333333334,31.765647119735757L175,32.20978829053351L176.16666666666666,31.511705570145303L177.33333333333331,32.37896693511239L178.5,32.09549646832602L179.66666666666669,31.28236923967634L180.83333333333334,31.91982156249776L182,33.10612024195727L183.16666666666666,33.657138212488476L184.33333333333334,29.968675866106935L185.5,29.523993166911477L186.66666666666666,32.31166815318338L187.83333333333331,30.929788539157265L189,30.100660770741715L190.16666666666669,27.67402816391451L191.33333333333334,29.111771968462868L192.5,28.206023542558423L193.66666666666666,29.752491669938138L194.83333333333331,30.198088834932605L196,28.85781366244028L197.16666666666669,30.46508821615619L198.33333333333334,27.249618582541082L199.5,26.12416408813857L200.66666666666666,24.64506410573044L201.83333333333334,23.75760411628558L203,25.63658887987426L204.16666666666666,23.870235269338423L205.33333333333331,22.167378154439042L206.5,22.914058594132776L207.66666666666669,24.005111806526937L208.83333333333334,23.21287149961891L210,23.380593364096306L211.16666666666666,22.83816043416061L212.33333333333331,22.834223150488153L213.5,23.95721054034018L214.66666666666669,22.380324554184625L215.83333333333334,22.39876038535809L217,20.15914346399534L218.16666666666666,21.22681296838899L219.33333333333334,20.902847248158324L220.5,18.457789395953085L221.66666666666666,17.473038396063377L222.83333333333331,20.740499687685297L224,20.932581754025026L225.16666666666669,22.816225702462265L226.33333333333334,22.660301074324718L227.5,19.673022928797394L228.66666666666666,21.095901884414655L229.83333333333331,17.609033654795855L231,17.928373474280146L232.16666666666669,18.119977365970723L233.33333333333334,19.68179083528534L234.5,19.97583396829615L235.66666666666666,20.313021085247108L236.83333333333334,20.676094592562112L238,18.16097656545093L239.16666666666666,20.831740115028968L240.33333333333331,20.505042298997918L241.5,18.701390137890332L242.66666666666669,17.779960078370213L243.83333333333334,16.262534619791282L245,16.155885530366312L246.16666666666666,17.056484599622365L247.33333333333331,15.34614452106499L248.5,12.873089339630273L249.66666666666669,12.996868602214068L250.83333333333334,16.286403102742348L252,16.170206620136913L253.16666666666666,13.689049073362348L254.33333333333334,13.968749253931051L255.5,14.458091836561273" style="fill: none;" fill="none"></path></g></g></g></g><g opacity="0.2"><g><g><g><path stroke="rgb(0, 119, 187)" stroke-width="2px" d="M24.5,178.60909992456433L25.666666666666664,111.0272934436798L26.833333333333336,102.981793820858L28,119.07274031639098L29.166666666666668,112.63638281822203L30.333333333333336,148.03634905815122L31.5,154.47270655632016L32.666666666666664,196.30908304452893L33.833333333333336,102.981793820858L35,109.41820406913756L36.16666666666667,83.67272132635117L37.333333333333336,165.73638492822644L38.5,143.2090809345245L39.666666666666664,109.41820406913756L40.833333333333336,94.93634694814682L42,114.24547219276427L43.16666666666667,104.59088319540022L44.33333333333333,78.84545320272446L45.5,72.40909570455551L46.666666666666664,96.54543632268906L47.833333333333336,112.63638281822203L49,69.19091695547104L50.166666666666664,90.10907882452011L51.33333333333333,77.23636382818222L52.5,69.19091695547104L53.66666666666667,98.15452569723129L54.833333333333336,62.75455945730209L56,46.663612961769104L57.166666666666664,94.93634694814682L58.333333333333336,78.84545320272446L59.5,33.79089796543121L60.66666666666667,35.39998733997345L61.83333333333333,41.836344838142395L63,33.79089796543121L64.16666666666666,54.70911258459091L65.33333333333333,25.745451092720053L66.5,20.918182969093344L67.66666666666667,41.836344838142395L68.83333333333333,24.136361718177817L70,20.918182969093344L71.16666666666666,24.136361718177817L72.33333333333334,33.79089796543121L73.5,32.18180859088898L74.66666666666667,24.136361718177817L75.83333333333333,25.745451092720053L77,27.35454046726229L78.16666666666667,30.57271921634674L79.33333333333333,30.57271921634674L80.5,57.927291333675385L81.66666666666667,32.18180859088898L82.83333333333333,30.57271921634674L84,27.35454046726229L85.16666666666666,27.35454046726229L86.33333333333334,27.35454046726229L87.5,30.57271921634674L88.66666666666666,38.61816608905792L89.83333333333334,32.18180859088898L91,28.963629841804526L92.16666666666667,32.18180859088898L93.33333333333333,28.963629841804526L94.5,33.79089796543121L95.66666666666667,28.963629841804526L96.83333333333333,41.836344838142395L98,24.136361718177817L99.16666666666667,51.49093383550644L100.33333333333333,27.35454046726229L101.5,28.963629841804526L102.66666666666666,40.22725546360016L103.83333333333334,30.57271921634674L105,61.14547008275986L106.16666666666666,28.963629841804526L107.33333333333334,27.35454046726229L108.5,46.663612961769104L109.66666666666667,59.53638070821762L110.83333333333333,45.05452358722687L112,28.963629841804526L113.16666666666667,70.80000633001328L114.33333333333333,41.836344838142395L115.5,25.745451092720053L116.66666666666667,56.31820195913315L117.83333333333333,40.22725546360016L119,28.963629841804526L120.16666666666666,43.44543421268463L121.33333333333334,43.44543421268463L122.5,43.44543421268463L123.66666666666666,37.009076714515686L124.83333333333334,83.67272132635117L126,28.963629841804526L127.16666666666667,57.927291333675385L128.33333333333331,32.18180859088898L129.5,41.836344838142395L130.66666666666666,32.18180859088898L131.83333333333334,41.836344838142395L133,32.18180859088898L134.16666666666669,45.05452358722687L135.33333333333334,28.963629841804526L136.5,37.009076714515686L137.66666666666666,27.35454046726229L138.83333333333334,46.663612961769104L140,46.663612961769104L141.16666666666666,25.745451092720053L142.33333333333331,41.836344838142395L143.5,48.27270233631134L144.66666666666669,46.663612961769104L145.83333333333334,46.663612961769104L147,48.27270233631134L148.16666666666666,38.61816608905792L149.33333333333334,64.36364883184433L150.5,48.27270233631134L151.66666666666666,46.663612961769104L152.83333333333331,48.27270233631134L154,48.27270233631134L155.16666666666669,30.57271921634674L156.33333333333334,32.18180859088898L157.5,38.61816608905792L158.66666666666666,53.100023210048676L159.83333333333331,48.27270233631134L161,38.61816608905792L162.16666666666669,43.44543421268463L163.33333333333334,37.009076714515686L164.5,56.31820195913315L165.66666666666666,40.22725546360016L166.83333333333334,28.963629841804526L168,40.22725546360016L169.16666666666666,64.36364883184433L170.33333333333331,40.22725546360016L171.5,48.27270233631134L172.66666666666669,45.05452358722687L173.83333333333334,48.27270233631134L175,33.79089796543121L176.16666666666666,46.663612961769104L177.33333333333331,37.009076714515686L178.5,46.663612961769104L179.66666666666669,37.009076714515686L180.83333333333334,41.836344838142395L182,41.836344838142395L183.16666666666666,43.44543421268463L184.33333333333334,30.57271921634674L185.5,43.44543421268463L186.66666666666666,46.663612961769104L187.83333333333331,35.39998733997345L189,37.009076714515686L190.16666666666669,48.27270233631134L191.33333333333334,41.836344838142395L192.5,41.836344838142395L193.66666666666666,37.009076714515686L194.83333333333331,43.44543421268463L196,37.009076714515686L197.16666666666669,35.39998733997345L198.33333333333334,43.44543421268463L199.5,38.61816608905792L200.66666666666666,40.22725546360016L201.83333333333334,40.22725546360016L203,38.61816608905792L204.16666666666666,49.8818444609642L205.33333333333331,57.927291333675385L206.5,22.52727234363558L207.66666666666669,57.927291333675385L208.83333333333334,48.27270233631134L210,33.79089796543121L211.16666666666666,49.8818444609642L212.33333333333331,35.39998733997345L213.5,40.22725546360016L214.66666666666669,38.61816608905792L215.83333333333334,40.22725546360016L217,32.18180859088898L218.16666666666666,40.22725546360016L219.33333333333334,51.49093383550644L220.5,38.61816608905792L221.66666666666666,37.009076714515686L222.83333333333331,51.49093383550644L224,33.79089796543121L225.16666666666669,37.009076714515686L226.33333333333334,45.05452358722687L227.5,38.61816608905792L228.66666666666666,35.39998733997345L229.83333333333331,37.009076714515686L231,62.75455945730209L232.16666666666669,27.35454046726229L233.33333333333334,46.663612961769104L234.5,46.663612961769104L235.66666666666666,38.61816608905792L236.83333333333334,37.009076714515686L238,32.18180859088898L239.16666666666666,67.5818275809288L240.33333333333331,35.39998733997345L241.5,33.79089796543121L242.66666666666669,61.14547008275986L243.83333333333334,57.927291333675385L245,35.39998733997345L246.16666666666666,32.18180859088898L247.33333333333331,49.8818444609642L248.5,14.481825470924397L249.66666666666669,30.57271921634674L250.83333333333334,32.18180859088898L252,25.745451092720053L253.16666666666666,25.745451092720053L254.33333333333334,30.57271921634674L255.5,35.39998733997345" style="fill: none;" fill="none"></path></g><g><path stroke="rgb(255, 112, 67)" stroke-width="2px" d="M33.833333333333336,184.79700440168378L35,163.89783257246015L36.16666666666667,179.57221144437787L37.333333333333336,182.3855330944061L38.5,161.48636126518247L39.666666666666664,156.66347140073773L40.833333333333336,158.67303961515424L42,163.89783257246015L43.16666666666667,154.25205284357068L44.33333333333333,152.64444047212598L45.5,143.4005638360977L46.666666666666664,152.24248462915418L47.833333333333336,140.18528634309766L49,142.5967049002647L50.166666666666664,139.3814801573753L51.33333333333333,136.97000885009763L52.5,145.0081762075424L53.66666666666667,131.34331279993054L54.833333333333336,133.35288101434705L56,118.48230832815169L57.166666666666664,121.29562997817992L58.333333333333336,121.6975330710411L59.5,110.04223787784575L60.66666666666667,116.87464320659636L61.83333333333333,107.63076657056807L63,107.63076657056807L64.16666666666666,104.01363873481749L65.33333333333333,98.7888457775116L66.5,95.17166519165039L67.66666666666667,90.34877532720566L68.83333333333333,87.13349783420563L70,98.38694268465042L71.16666666666666,91.15258151292801L72.33333333333334,87.93730401992798L73.5,85.12398236989975L74.66666666666667,76.68391191959381L75.83333333333333,81.90870487689972L77,81.50680178403854L78.16666666666667,76.68391191959381L79.33333333333333,83.11446690559387L80.5,85.12398236989975L81.66666666666667,78.29157704114914L82.83333333333333,75.88010573387146L84,73.4686871767044L85.16666666666666,74.27249336242676L86.33333333333334,73.4686871767044L87.5,69.44960349798203L88.66666666666666,69.04770040512085L89.83333333333334,78.29157704114914L91,71.05721586942673L92.16666666666667,69.04770040512085L93.33333333333333,75.07629954814911L94.5,67.03813219070435L95.66666666666667,75.47820264101028L96.83333333333333,63.019048511981964L98,64.22481054067612L99.16666666666667,56.58854627609253L100.33333333333333,63.82290744781494L101.5,63.421004354953766L102.66666666666666,63.82290744781494L103.83333333333334,63.82290744781494L105,57.39235246181488L106.16666666666666,67.44003528356552L107.33333333333334,66.234326004982L108.5,56.990449368953705L109.66666666666667,53.373321533203125L110.83333333333333,60.60762995481491L112,51.7656564116478L113.16666666666667,54.98093390464783L114.33333333333333,60.60762995481491L115.5,61.009533047676086L116.66666666666667,51.36375331878662L117.83333333333333,56.58854627609253L119,56.186643183231354L120.16666666666666,53.373321533203125L121.33333333333334,61.009533047676086L122.5,45.33515417575836L123.66666666666666,49.35423785448074L124.83333333333334,54.57903081178665L126,56.990449368953705L127.16666666666667,51.36375331878662L128.33333333333331,45.33515417575836L129.5,49.75614094734192L130.66666666666666,49.35423785448074L131.83333333333334,46.54086345434189L133,46.13896036148071L134.16666666666669,48.95233476161957L135.33333333333334,45.33515417575836L136.5,51.7656564116478L137.66666666666666,41.717973589897156L138.83333333333334,42.92368286848068L140,43.72754180431366L141.16666666666666,45.33515417575836L142.33333333333331,41.717973589897156L143.5,42.92368286848068L144.66666666666669,42.52177977561951L145.83333333333334,40.110361218452454L147,38.10079300403595L148.16666666666666,44.129444897174835L149.33333333333334,44.129444897174835L150.5,40.914167404174805L151.66666666666666,44.933251082897186L152.83333333333331,36.49318063259125L154,40.110361218452454L155.16666666666669,46.13896036148071L156.33333333333334,36.09127753973007L157.5,34.885568261146545L158.66666666666666,36.49318063259125L159.83333333333331,35.28747135400772L161,28.856969118118307L162.16666666666669,39.70845812559128L163.33333333333334,37.2969868183136L164.5,36.49318063259125L165.66666666666666,34.885568261146545L166.83333333333334,34.081762075424194L168,40.110361218452454L169.16666666666666,35.6893744468689L170.33333333333331,30.062678396701813L171.5,30.46458148956299L172.66666666666669,34.081762075424194L173.83333333333334,29.660775303840637L175,32.87600004673004L176.16666666666666,30.46458148956299L177.33333333333331,33.67985898256302L178.5,31.670290768146515L179.66666666666669,30.062678396701813L180.83333333333334,32.87600004673004L182,34.885568261146545L183.16666666666666,34.48366516828537L184.33333333333334,24.43598234653475L185.5,28.856969118118307L186.66666666666666,36.49318063259125L187.83333333333331,28.856969118118307L189,28.856969118118307L190.16666666666669,24.034079253673575L191.33333333333334,31.26838767528534L192.5,26.847400903701804L193.66666666666666,32.07219386100769L194.83333333333331,30.866484582424164L196,26.847400903701804L197.16666666666669,32.87600004673004L198.33333333333334,22.426414132118246L199.5,24.43598234653475L200.66666666666666,22.426414132118246L201.83333333333334,22.426414132118246L203,28.455066025257132L204.16666666666666,21.22070485353472L205.33333333333331,19.613092482090018L206.5,24.034079253673575L207.66666666666669,25.641691625118277L208.83333333333334,22.02451103925707L210,23.6321761608124L211.16666666666666,22.02451103925707L212.33333333333331,22.828317224979422L213.5,25.641691625118277L214.66666666666669,20.014995574951193L215.83333333333334,22.426414132118246L217,16.799718081951163L218.16666666666666,22.828317224979422L219.33333333333334,20.41689866781237L220.5,14.790202617645283L221.66666666666666,15.99591189622881L222.83333333333331,25.641691625118277L224,21.22070485353472L225.16666666666669,25.641691625118277L226.33333333333334,22.426414132118246L227.5,15.192105710506459L228.66666666666666,23.230220317840597L229.83333333333331,12.378731310367604L231,18.40738320350649L232.16666666666669,18.40738320350649L233.33333333333334,22.02451103925707L234.5,20.41689866781237L235.66666666666666,20.818801760673544L236.83333333333334,21.22070485353472L238,14.388299524784108L239.16666666666666,24.837885439395926L240.33333333333331,20.014995574951193L241.5,15.99591189622881L242.66666666666669,16.397814989089987L243.83333333333334,13.986396431922932L245,15.99591189622881L246.16666666666666,18.40738320350649L247.33333333333331,12.78063440322878L248.5,9.1635065674782L249.66666666666669,13.182537496089955L250.83333333333334,21.22070485353472L252,15.99591189622881L253.16666666666666,9.96731275320055L254.33333333333334,14.388299524784108L255.5,15.192105710506459" style="fill: none;" fill="none"></path></g></g></g></g></g></g><g transform="translate(50, 177)" clip-path="url(#clip_1)"><clipPath id="clip_1"><rect width="280" height="22"></rect></clipPath><g><g><line x1="0" y1="0" x2="0" y2="5" style="visibility: inherit;" fill="rgb(0, 0, 0)" stroke="rgb(204, 204, 204)" stroke-width="1px"></line><line x1="23.333333333333332" y1="0" x2="23.333333333333332" y2="5" style="visibility: inherit;" fill="rgb(0, 0, 0)" stroke="rgb(204, 204, 204)" stroke-width="1px"></line><line x1="46.666666666666664" y1="0" x2="46.666666666666664" y2="5" style="visibility: inherit;" fill="rgb(0, 0, 0)" stroke="rgb(204, 204, 204)" stroke-width="1px"></line><line x1="70" y1="0" x2="70" y2="5" style="visibility: inherit;" fill="rgb(0, 0, 0)" stroke="rgb(204, 204, 204)" stroke-width="1px"></line><line x1="93.33333333333333" y1="0" x2="93.33333333333333" y2="5" style="visibility: inherit;" fill="rgb(0, 0, 0)" stroke="rgb(204, 204, 204)" stroke-width="1px"></line><line x1="116.66666666666667" y1="0" x2="116.66666666666667" y2="5" style="visibility: inherit;" fill="rgb(0, 0, 0)" stroke="rgb(204, 204, 204)" stroke-width="1px"></line><line x1="140" y1="0" x2="140" y2="5" style="visibility: inherit;" fill="rgb(0, 0, 0)" stroke="rgb(204, 204, 204)" stroke-width="1px"></line><line x1="163.33333333333334" y1="0" x2="163.33333333333334" y2="5" style="visibility: inherit;" fill="rgb(0, 0, 0)" stroke="rgb(204, 204, 204)" stroke-width="1px"></line><line x1="186.66666666666666" y1="0" x2="186.66666666666666" y2="5" style="visibility: inherit;" fill="rgb(0, 0, 0)" stroke="rgb(204, 204, 204)" stroke-width="1px"></line><line x1="210" y1="0" x2="210" y2="5" style="visibility: inherit;" fill="rgb(0, 0, 0)" stroke="rgb(204, 204, 204)" stroke-width="1px"></line><line x1="233.33333333333334" y1="0" x2="233.33333333333334" y2="5" style="visibility: inherit;" fill="rgb(0, 0, 0)" stroke="rgb(204, 204, 204)" stroke-width="1px"></line><line x1="256.66666666666663" y1="0" x2="256.66666666666663" y2="5" style="visibility: inherit;" fill="rgb(0, 0, 0)" stroke="rgb(204, 204, 204)" stroke-width="1px"></line><line x1="280" y1="0" x2="280" y2="5" style="visibility: inherit;" fill="rgb(0, 0, 0)" stroke="rgb(204, 204, 204)" stroke-width="1px"></line></g><g transform="translate(0, 8)"><text x="0" y="0" dx="0em" dy="0.95em" style="text-anchor: middle; visibility: hidden; font-family: Roboto, sans-serif; font-size: 12px; font-weight: 200;" fill="rgb(33, 33, 33)" stroke="none" stroke-width="1px">-20</text><text x="23.333333333333332" y="0" dx="0em" dy="0.95em" style="text-anchor: middle; visibility: inherit; font-family: Roboto, sans-serif; font-size: 12px; font-weight: 200;" fill="rgb(33, 33, 33)" stroke="none" stroke-width="1px">0</text><text x="46.666666666666664" y="0" dx="0em" dy="0.95em" style="text-anchor: middle; visibility: hidden; font-family: Roboto, sans-serif; font-size: 12px; font-weight: 200;" fill="rgb(33, 33, 33)" stroke="none" stroke-width="1px">20</text><text x="70" y="0" dx="0em" dy="0.95em" style="text-anchor: middle; visibility: inherit; font-family: Roboto, sans-serif; font-size: 12px; font-weight: 200;" fill="rgb(33, 33, 33)" stroke="none" stroke-width="1px">40</text><text x="93.33333333333333" y="0" dx="0em" dy="0.95em" style="text-anchor: middle; visibility: hidden; font-family: Roboto, sans-serif; font-size: 12px; font-weight: 200;" fill="rgb(33, 33, 33)" stroke="none" stroke-width="1px">60</text><text x="116.66666666666667" y="0" dx="0em" dy="0.95em" style="text-anchor: middle; visibility: inherit; font-family: Roboto, sans-serif; font-size: 12px; font-weight: 200;" fill="rgb(33, 33, 33)" stroke="none" stroke-width="1px">80</text><text x="140" y="0" dx="0em" dy="0.95em" style="text-anchor: middle; visibility: hidden; font-family: Roboto, sans-serif; font-size: 12px; font-weight: 200;" fill="rgb(33, 33, 33)" stroke="none" stroke-width="1px">100</text><text x="163.33333333333334" y="0" dx="0em" dy="0.95em" style="text-anchor: middle; visibility: inherit; font-family: Roboto, sans-serif; font-size: 12px; font-weight: 200;" fill="rgb(33, 33, 33)" stroke="none" stroke-width="1px">120</text><text x="186.66666666666666" y="0" dx="0em" dy="0.95em" style="text-anchor: middle; visibility: hidden; font-family: Roboto, sans-serif; font-size: 12px; font-weight: 200;" fill="rgb(33, 33, 33)" stroke="none" stroke-width="1px">140</text><text x="210" y="0" dx="0em" dy="0.95em" style="text-anchor: middle; visibility: inherit; font-family: Roboto, sans-serif; font-size: 12px; font-weight: 200;" fill="rgb(33, 33, 33)" stroke="none" stroke-width="1px">160</text><text x="233.33333333333334" y="0" dx="0em" dy="0.95em" style="text-anchor: middle; visibility: hidden; font-family: Roboto, sans-serif; font-size: 12px; font-weight: 200;" fill="rgb(33, 33, 33)" stroke="none" stroke-width="1px">180</text><text x="256.66666666666663" y="0" dx="0em" dy="0.95em" style="text-anchor: middle; visibility: inherit; font-family: Roboto, sans-serif; font-size: 12px; font-weight: 200;" fill="rgb(33, 33, 33)" stroke="none" stroke-width="1px">200</text><text x="280" y="0" dx="0em" dy="0.95em" style="text-anchor: middle; visibility: hidden; font-family: Roboto, sans-serif; font-size: 12px; font-weight: 200;" fill="rgb(33, 33, 33)" stroke="none" stroke-width="1px">220</text></g><line x1="0" y1="0" x2="280" y2="0" fill="rgb(0, 0, 0)" stroke="rgb(204, 204, 204)" stroke-width="1px"></line></g></g></g></g></svg>