<svg viewBox="0 0 640 400" xmlns="http://www.w3.org/2000/svg"><g><g><g><g><g><line x1="41.171875" y1="377" x2="36.171875" y2="377" style="visibility: inherit;" fill="rgb(0, 0, 0)" stroke="rgb(204, 204, 204)" stroke-width="1px"></line><line x1="41.171875" y1="342.7272727272727" x2="36.171875" y2="342.7272727272727" style="visibility: inherit;" fill="rgb(0, 0, 0)" stroke="rgb(204, 204, 204)" stroke-width="1px"></line><line x1="41.171875" y1="308.45454545454544" x2="36.171875" y2="308.45454545454544" style="visibility: inherit;" fill="rgb(0, 0, 0)" stroke="rgb(204, 204, 204)" stroke-width="1px"></line><line x1="41.171875" y1="274.1818181818182" x2="36.171875" y2="274.1818181818182" style="visibility: inherit;" fill="rgb(0, 0, 0)" stroke="rgb(204, 204, 204)" stroke-width="1px"></line><line x1="41.171875" y1="239.9090909090909" x2="36.171875" y2="239.9090909090909" style="visibility: inherit;" fill="rgb(0, 0, 0)" stroke="rgb(204, 204, 204)" stroke-width="1px"></line><line x1="41.171875" y1="205.63636363636363" x2="36.171875" y2="205.63636363636363" style="visibility: inherit;" fill="rgb(0, 0, 0)" stroke="rgb(204, 204, 204)" stroke-width="1px"></line><line x1="41.171875" y1="171.36363636363637" x2="36.171875" y2="171.36363636363637" style="visibility: inherit;" fill="rgb(0, 0, 0)" stroke="rgb(204, 204, 204)" stroke-width="1px"></line><line x1="41.171875" y1="137.09090909090915" x2="36.171875" y2="137.09090909090915" style="visibility: inherit;" fill="rgb(0, 0, 0)" stroke="rgb(204, 204, 204)" stroke-width="1px"></line><line x1="41.171875" y1="102.81818181818181" x2="36.171875" y2="102.81818181818181" style="visibility: inherit;" fill="rgb(0, 0, 0)" stroke="rgb(204, 204, 204)" stroke-width="1px"></line><line x1="41.171875" y1="68.54545454545458" x2="36.171875" y2="68.54545454545458" style="visibility: inherit;" fill="rgb(0, 0, 0)" stroke="rgb(204, 204, 204)" stroke-width="1px"></line><line x1="41.171875" y1="34.27272727272729" x2="36.171875" y2="34.27272727272729" style="visibility: inherit;" fill="rgb(0, 0, 0)" stroke="rgb(204, 204, 204)" stroke-width="1px"></line><line x1="41.171875" y1="0" x2="36.171875" y2="0" style="visibility: inherit;" fill="rgb(0, 0, 0)" stroke="rgb(204, 204, 204)" stroke-width="1px"></line></g><g transform="translate(31.171875, 0)"><text x="0" y="377" dx="0em" dy="0.3em" style="text-anchor: end; visibility: hidden; font-family: Roboto, sans-serif; font-size: 12px; font-weight: 200;" fill="rgb(33, 33, 33)" stroke="none" stroke-width="1px">0</text><text x="0" y="342.7272727272727" dx="0em" dy="0.3em" style="text-anchor: end; visibility: inherit; font-family: Roboto, sans-serif; font-size: 12px; font-weight: 200;" fill="rgb(33, 33, 33)" stroke="none" stroke-width="1px">0.1</text><text x="0" y="308.45454545454544" dx="0em" dy="0.3em" style="text-anchor: end; visibility: inherit; font-family: Roboto, sans-serif; font-size: 12px; font-weight: 200;" fill="rgb(33, 33, 33)" stroke="none" stroke-width="1px">0.2</text><text x="0" y="274.1818181818182" dx="0em" dy="0.3em" style="text-anchor: end; visibility: inherit; font-family: Roboto, sans-serif; font-size: 12px; font-weight: 200;" fill="rgb(33, 33, 33)" stroke="none" stroke-width="1px">0.3</text><text x="0" y="239.9090909090909" dx="0em" dy="0.3em" style="text-anchor: end; visibility: inherit; font-family: Roboto, sans-serif; font-size: 12px; font-weight: 200;" fill="rgb(33, 33, 33)" stroke="none" stroke-width="1px">0.4</text><text x="0" y="205.63636363636363" dx="0em" dy="0.3em" style="text-anchor: end; visibility: inherit; font-family: Roboto, sans-serif; font-size: 12px; font-weight: 200;" fill="rgb(33, 33, 33)" stroke="none" stroke-width="1px">0.5</text><text x="0" y="171.36363636363637" dx="0em" dy="0.3em" style="text-anchor: end; visibility: inherit; font-family: Roboto, sans-serif; font-size: 12px; font-weight: 200;" fill="rgb(33, 33, 33)" stroke="none" stroke-width="1px">0.6</text><text x="0" y="137.09090909090915" dx="0em" dy="0.3em" style="text-anchor: end; visibility: inherit; font-family: Roboto, sans-serif; font-size: 12px; font-weight: 200;" fill="rgb(33, 33, 33)" stroke="none" stroke-width="1px">0.7</text><text x="0" y="102.81818181818181" dx="0em" dy="0.3em" style="text-anchor: end; visibility: inherit; font-family: Roboto, sans-serif; font-size: 12px; font-weight: 200;" fill="rgb(33, 33, 33)" stroke="none" stroke-width="1px">0.8</text><text x="0" y="68.54545454545458" dx="0em" dy="0.3em" style="text-anchor: end; visibility: inherit; font-family: Roboto, sans-serif; font-size: 12px; font-weight: 200;" fill="rgb(33, 33, 33)" stroke="none" stroke-width="1px">0.9</text><text x="0" y="34.27272727272729" dx="0em" dy="0.3em" style="text-anchor: end; visibility: inherit; font-family: Roboto, sans-serif; font-size: 12px; font-weight: 200;" fill="rgb(33, 33, 33)" stroke="none" stroke-width="1px">1</text><text x="0" y="0" dx="0em" dy="0.3em" style="text-anchor: end; visibility: hidden; font-family: Roboto, sans-serif; font-size: 12px; font-weight: 200;" fill="rgb(33, 33, 33)" stroke="none" stroke-width="1px">1.1</text></g><line x1="41.171875" y1="0" x2="41.171875" y2="377" fill="rgb(0, 0, 0)" stroke="rgb(204, 204, 204)" stroke-width="1px"></line></g></g><g transform="translate(41, 0)" clip-path="url(#clip_0)"><clipPath id="clip_0"><rect width="598" height="377"></rect></clipPath><g><g><g><line x1="0" y1="0" x2="0" y2="377" fill="rgb(0, 0, 0)" stroke="rgb(66, 66, 66)" stroke-width="1px" opacity="0.25"></line><line x1="66.53645833333333" y1="0" x2="66.53645833333333" y2="377" fill="rgb(0, 0, 0)" stroke="rgb(66, 66, 66)" stroke-width="1px" opacity="0.25"></line><line x1="133.07291666666666" y1="0" x2="133.07291666666666" y2="377" fill="rgb(0, 0, 0)" stroke="rgb(66, 66, 66)" stroke-width="1px" opacity="0.25"></line><line x1="199.609375" y1="0" x2="199.609375" y2="377" fill="rgb(0, 0, 0)" stroke="rgb(66, 66, 66)" stroke-width="1px" opacity="0.25"></line><line x1="266.1458333333333" y1="0" x2="266.1458333333333" y2="377" fill="rgb(0, 0, 0)" stroke="rgb(66, 66, 66)" stroke-width="1px" opacity="0.25"></line><line x1="332.6822916666667" y1="0" x2="332.6822916666667" y2="377" fill="rgb(0, 0, 0)" stroke="rgb(66, 66, 66)" stroke-width="1px" opacity="0.25"></line><line x1="399.21875" y1="0" x2="399.21875" y2="377" fill="rgb(0, 0, 0)" stroke="rgb(66, 66, 66)" stroke-width="1px" opacity="0.25"></line><line x1="465.7552083333333" y1="0" x2="465.7552083333333" y2="377" fill="rgb(0, 0, 0)" stroke="rgb(66, 66, 66)" stroke-width="1px" opacity="0.25"></line><line x1="532.2916666666666" y1="0" x2="532.2916666666666" y2="377" fill="rgb(0, 0, 0)" stroke="rgb(66, 66, 66)" stroke-width="1px" opacity="0.25"></line><line x1="598.828125" y1="0" x2="598.828125" y2="377" fill="rgb(0, 0, 0)" stroke="rgb(66, 66, 66)" stroke-width="1px" opacity="0.25"></line></g><g><line x1="0" y1="377" x2="598.828125" y2="377" fill="rgb(0, 0, 0)" stroke="rgb(66, 66, 66)" stroke-width="1px" opacity="0.25"></line><line x1="0" y1="342.7272727272727" x2="598.828125" y2="342.7272727272727" fill="rgb(0, 0, 0)" stroke="rgb(66, 66, 66)" stroke-width="1px" opacity="0.25"></line><line x1="0" y1="308.45454545454544" x2="598.828125" y2="308.45454545454544" fill="rgb(0, 0, 0)" stroke="rgb(66, 66, 66)" stroke-width="1px" opacity="0.25"></line><line x1="0" y1="274.1818181818182" x2="598.828125" y2="274.1818181818182" fill="rgb(0, 0, 0)" stroke="rgb(66, 66, 66)" stroke-width="1px" opacity="0.25"></line><line x1="0" y1="239.9090909090909" x2="598.828125" y2="239.9090909090909" fill="rgb(0, 0, 0)" stroke="rgb(66, 66, 66)" stroke-width="1px" opacity="0.25"></line><line x1="0" y1="205.63636363636363" x2="598.828125" y2="205.63636363636363" fill="rgb(0, 0, 0)" stroke="rgb(66, 66, 66)" stroke-width="1px" opacity="0.25"></line><line x1="0" y1="171.36363636363637" x2="598.828125" y2="171.36363636363637" fill="rgb(0, 0, 0)" stroke="rgb(66, 66, 66)" stroke-width="1px" opacity="0.25"></line><line x1="0" y1="137.09090909090915" x2="598.828125" y2="137.09090909090915" fill="rgb(0, 0, 0)" stroke="rgb(66, 66, 66)" stroke-width="1px" opacity="0.25"></line><line x1="0" y1="102.81818181818181" x2="598.828125" y2="102.81818181818181" fill="rgb(0, 0, 0)" stroke="rgb(66, 66, 66)" stroke-width="1px" opacity="0.25"></line><line x1="0" y1="68.54545454545458" x2="598.828125" y2="68.54545454545458" fill="rgb(0, 0, 0)" stroke="rgb(66, 66, 66)" stroke-width="1px" opacity="0.25"></line><line x1="0" y1="34.27272727272729" x2="598.828125" y2="34.27272727272729" fill="rgb(0, 0, 0)" stroke="rgb(66, 66, 66)" stroke-width="1px" opacity="0.25"></line><line x1="0" y1="0" x2="598.828125" y2="0" fill="rgb(0, 0, 0)" stroke="rgb(66, 66, 66)" stroke-width="1px" opacity="0.25"></line></g></g></g><g><g><line x1="0" y1="377" x2="598.828125" y2="377" fill="rgb(0, 0, 0)" stroke="rgb(153, 153, 153)" stroke-width="1.5px"></line></g></g><g><g><line x1="66.53645833333333" y1="0" x2="66.53645833333333" y2="377" fill="rgb(0, 0, 0)" stroke="rgb(153, 153, 153)" stroke-width="1.5px"></line></g></g><g><g><g><g><g><path stroke="rgb(0, 119, 187)" stroke-width="2px" d="M66.53645833333333,139.23568374460396L79.84375,140.30394765192813L93.15104166666667,143.01045958296936L106.45833333333334,148.3333115270511L119.765625,169.41470549431642L133.07291666666666,194.97952339436557L146.38020833333331,199.66892354936329L159.6875,232.2391730148277L172.99479166666666,256.52005523152104L186.30208333333334,276.6292667587597L199.609375,295.73678148733654L212.91666666666669,306.63820510344004L226.22395833333331,313.4050803648065L239.53125,311.51344720155316L252.83854166666666,310.1924928290418L266.1458333333333,318.19324243597555L279.453125,322.89097616455945L292.76041666666663,324.82950304092793L306.0677083333333,322.461388844055L319.375,327.0366924591623L332.6822916666667,327.43107883452893L345.9895833333333,327.9962939939653L359.296875,330.9072941463306L372.6041666666667,331.2218521400057L385.91145833333337,331.33407626197044L399.21875,333.1939928549287L412.5260416666667,330.5119539401733L425.83333333333337,332.6110717617075L439.14062499999994,333.15963503821354L452.44791666666663,332.26657144686243L465.7552083333333,330.18465415208215L479.0625,330.7497862156197L492.36979166666663,328.937663976529L505.6770833333333,330.5342088076282L518.984375,330.96547173060657L532.2916666666666,329.79907680553305" style="fill: none;" fill="none"></path></g><g><path stroke="rgb(255, 112, 67)" stroke-width="2px" d="M66.53645833333333,32.51394635980783L79.84375,99.20672052692282L93.15104166666667,121.16623208319322L106.45833333333334,134.71583638886082L119.765625,147.4651433228695L133.07291666666666,166.51777181303012L146.38020833333331,193.20951559220447L159.6875,211.0428165161085L172.99479166666666,233.35980164806543L186.30208333333334,252.95781758516242L199.609375,265.98825534922736L212.91666666666669,276.891537909928L226.22395833333331,282.3775569096801L239.53125,288.661602679L252.83854166666666,286.85915771486776L266.1458333333333,291.2638327798552L279.453125,300.61325333849265L292.76041666666663,304.371042180896L306.0677083333333,309.04854508826975L319.375,310.81958984043024L332.6822916666667,313.55873496028494L345.9895833333333,316.2321613458216L359.296875,318.6193543428585L372.6041666666667,321.0332020408704L385.91145833333337,324.56615778328666L399.21875,325.15947661808997L412.5260416666667,327.3267258371703L425.83333333333337,329.48887426561396L439.14062499999994,332.17916380021984L452.44791666666663,333.13415751935275L465.7552083333333,335.33890339439716L479.0625,334.79216643217416L492.36979166666663,337.43929264748954L505.6770833333333,338.93660588319995L518.984375,337.62870896259295L532.2916666666666,338.31864130417097" style="fill: none;" fill="none"></path></g></g></g></g><g opacity="0.2"><g><g><g><path stroke="rgb(0, 119, 187)" stroke-width="2px" d="M66.53645833333333,139.23568374460396L79.84375,140.94490599632263L93.15104166666667,145.60871103676885L106.45833333333334,154.59298541329125L119.765625,196.938573457978L133.07291666666666,230.3448698845777L146.38020833333331,206.3748408014124L159.6875,279.7269094098698L172.99479166666666,292.3296401825818L186.30208333333334,306.48910226876086L199.609375,324.2247498279268L212.91666666666669,322.9310154616833L226.22395833333331,323.53329823504794L239.53125,308.67970336296344L252.83854166666666,308.21261400255287L266.1458333333333,330.1887240978805L279.453125,329.93558883396065L292.76041666666663,327.7368011637168L306.0677083333333,318.90957830710846L319.375,333.89922968095L332.6822916666667,328.0226367684928L345.9895833333333,328.84409813447434L359.296875,335.2737369022586L372.6041666666667,331.69368540427905L385.91145833333337,331.50241164727646L399.21875,335.9838598126715L412.5260416666667,326.4889024306427L425.83333333333337,335.7597452713685L439.14062499999994,333.98247944766825L452.44791666666663,330.92697655341846L465.7552083333333,327.06177890029824L479.0625,331.5974841984836L492.36979166666663,326.21948083422404L505.6770833333333,332.92902593991977L518.984375,331.61236609654L532.2916666666666,328.0494844479995" style="fill: none;" fill="none"></path></g><g><path stroke="rgb(255, 112, 67)" stroke-width="2px" d="M66.53645833333333,32.51394635980783L79.84375,139.22238502719188L93.15104166666667,142.2473631772128L106.45833333333334,150.65017105232587L119.765625,164.11063845591113L133.07291666666666,192.87441596117893L146.38020833333331,231.3791362643242L159.6875,237.04394046284938L172.99479166666666,266.2730198665099L186.30208333333334,282.0585872205821L199.609375,285.4157268838449L212.91666666666669,293.1871265687726L226.22395833333331,290.58867260542786L239.53125,298.0753602331335L252.83854166666666,284.1576089750637L266.1458333333333,297.86773885922L279.453125,314.63342781500387L292.76041666666663,310.0067713423209L306.0677083333333,316.0640868788416L319.375,313.47599508816546L332.6822916666667,317.66730241883886L345.9895833333333,320.2422129538926L359.296875,322.2000967074524L372.6041666666667,324.65394499356097L385.91145833333337,329.8655662861737L399.21875,326.049452340061L412.5260416666667,330.5775941203941L425.83333333333337,332.73209358887243L439.14062499999994,336.21459562399167L452.44791666666663,334.56664757024157L465.7552083333333,338.6460214758461L479.0625,333.9720610976219L492.36979166666663,341.409981654449L505.6770833333333,341.1825756295161L518.984375,335.66686363789165L532.2916666666666,339.3535397987474" style="fill: none;" fill="none"></path></g></g></g></g></g></g><g transform="translate(41, 377)" clip-path="url(#clip_1)"><clipPath id="clip_1"><rect width="598" height="23"></rect></clipPath><g><g><line x1="0" y1="0" x2="0" y2="5" style="visibility: inherit;" fill="rgb(0, 0, 0)" stroke="rgb(204, 204, 204)" stroke-width="1px"></line><line x1="66.53645833333333" y1="0" x2="66.53645833333333" y2="5" style="visibility: inherit;" fill="rgb(0, 0, 0)" stroke="rgb(204, 204, 204)" stroke-width="1px"></line><line x1="133.07291666666666" y1="0" x2="133.07291666666666" y2="5" style="visibility: inherit;" fill="rgb(0, 0, 0)" stroke="rgb(204, 204, 204)" stroke-width="1px"></line><line x1="199.609375" y1="0" x2="199.609375" y2="5" style="visibility: inherit;" fill="rgb(0, 0, 0)" stroke="rgb(204, 204, 204)" stroke-width="1px"></line><line x1="266.1458333333333" y1="0" x2="266.1458333333333" y2="5" style="visibility: inherit;" fill="rgb(0, 0, 0)" stroke="rgb(204, 204, 204)" stroke-width="1px"></line><line x1="332.6822916666667" y1="0" x2="332.6822916666667" y2="5" style="visibility: inherit;" fill="rgb(0, 0, 0)" stroke="rgb(204, 204, 204)" stroke-width="1px"></line><line x1="399.21875" y1="0" x2="399.21875" y2="5" style="visibility: inherit;" fill="rgb(0, 0, 0)" stroke="rgb(204, 204, 204)" stroke-width="1px"></line><line x1="465.7552083333333" y1="0" x2="465.7552083333333" y2="5" style="visibility: inherit;" fill="rgb(0, 0, 0)" stroke="rgb(204, 204, 204)" stroke-width="1px"></line><line x1="532.2916666666666" y1="0" x2="532.2916666666666" y2="5" style="visibility: inherit;" fill="rgb(0, 0, 0)" stroke="rgb(204, 204, 204)" stroke-width="1px"></line><line x1="598.828125" y1="0" x2="598.828125" y2="5" style="visibility: inherit;" fill="rgb(0, 0, 0)" stroke="rgb(204, 204, 204)" stroke-width="1px"></line></g><g transform="translate(0, 8)"><text x="0" y="0" dx="0em" dy="0.95em" style="text-anchor: middle; visibility: hidden; font-family: Roboto, sans-serif; font-size: 12px; font-weight: 200;" fill="rgb(33, 33, 33)" stroke="none" stroke-width="1px">-5</text><text x="66.53645833333333" y="0" dx="0em" dy="0.95em" style="text-anchor: middle; visibility: inherit; font-family: Roboto, sans-serif; font-size: 12px; font-weight: 200;" fill="rgb(33, 33, 33)" stroke="none" stroke-width="1px">0</text><text x="133.07291666666666" y="0" dx="0em" dy="0.95em" style="text-anchor: middle; visibility: inherit; font-family: Roboto, sans-serif; font-size: 12px; font-weight: 200;" fill="rgb(33, 33, 33)" stroke="none" stroke-width="1px">5</text><text x="199.609375" y="0" dx="0em" dy="0.95em" style="text-anchor: middle; visibility: inherit; font-family: Roboto, sans-serif; font-size: 12px; font-weight: 200;" fill="rgb(33, 33, 33)" stroke="none" stroke-width="1px">10</text><text x="266.1458333333333" y="0" dx="0em" dy="0.95em" style="text-anchor: middle; visibility: inherit; font-family: Roboto, sans-serif; font-size: 12px; font-weight: 200;" fill="rgb(33, 33, 33)" stroke="none" stroke-width="1px">15</text><text x="332.6822916666667" y="0" dx="0em" dy="0.95em" style="text-anchor: middle; visibility: inherit; font-family: Roboto, sans-serif; font-size: 12px; font-weight: 200;" fill="rgb(33, 33, 33)" stroke="none" stroke-width="1px">20</text><text x="399.21875" y="0" dx="0em" dy="0.95em" style="text-anchor: middle; visibility: inherit; font-family: Roboto, sans-serif; font-size: 12px; font-weight: 200;" fill="rgb(33, 33, 33)" stroke="none" stroke-width="1px">25</text><text x="465.7552083333333" y="0" dx="0em" dy="0.95em" style="text-anchor: middle; visibility: inherit; font-family: Roboto, sans-serif; font-size: 12px; font-weight: 200;" fill="rgb(33, 33, 33)" stroke="none" stroke-width="1px">30</text><text x="532.2916666666666" y="0" dx="0em" dy="0.95em" style="text-anchor: middle; visibility: inherit; font-family: Roboto, sans-serif; font-size: 12px; font-weight: 200;" fill="rgb(33, 33, 33)" stroke="none" stroke-width="1px">35</text><text x="598.828125" y="0" dx="0em" dy="0.95em" style="text-anchor: middle; visibility: hidden; font-family: Roboto, sans-serif; font-size: 12px; font-weight: 200;" fill="rgb(33, 33, 33)" stroke="none" stroke-width="1px">40</text></g><line x1="0" y1="0" x2="598.828125" y2="0" fill="rgb(0, 0, 0)" stroke="rgb(204, 204, 204)" stroke-width="1px"></line></g></g></g></g></svg>