<svg viewBox="0 0 330 200" xmlns="http://www.w3.org/2000/svg"><g><g><g><g><g><line x1="50" y1="177" x2="45" y2="177" style="visibility: inherit;" fill="rgb(0, 0, 0)" stroke="rgb(204, 204, 204)" stroke-width="1px"></line><line x1="50" y1="157.33333333333331" x2="45" y2="157.33333333333331" style="visibility: inherit;" fill="rgb(0, 0, 0)" stroke="rgb(204, 204, 204)" stroke-width="1px"></line><line x1="50" y1="137.66666666666666" x2="45" y2="137.66666666666666" style="visibility: inherit;" fill="rgb(0, 0, 0)" stroke="rgb(204, 204, 204)" stroke-width="1px"></line><line x1="50" y1="117.99999999999997" x2="45" y2="117.99999999999997" style="visibility: inherit;" fill="rgb(0, 0, 0)" stroke="rgb(204, 204, 204)" stroke-width="1px"></line><line x1="50" y1="98.3333333333333" x2="45" y2="98.3333333333333" style="visibility: inherit;" fill="rgb(0, 0, 0)" stroke="rgb(204, 204, 204)" stroke-width="1px"></line><line x1="50" y1="78.66666666666673" x2="45" y2="78.66666666666673" style="visibility: inherit;" fill="rgb(0, 0, 0)" stroke="rgb(204, 204, 204)" stroke-width="1px"></line><line x1="50" y1="59.00000000000004" x2="45" y2="59.00000000000004" style="visibility: inherit;" fill="rgb(0, 0, 0)" stroke="rgb(204, 204, 204)" stroke-width="1px"></line><line x1="50" y1="39.33333333333335" x2="45" y2="39.33333333333335" style="visibility: inherit;" fill="rgb(0, 0, 0)" stroke="rgb(204, 204, 204)" stroke-width="1px"></line><line x1="50" y1="19.666666666666675" x2="45" y2="19.666666666666675" style="visibility: inherit;" fill="rgb(0, 0, 0)" stroke="rgb(204, 204, 204)" stroke-width="1px"></line><line x1="50" y1="0" x2="45" y2="0" style="visibility: inherit;" fill="rgb(0, 0, 0)" stroke="rgb(204, 204, 204)" stroke-width="1px"></line></g><g transform="translate(40, 0)"><text x="0" y="177" dx="0em" dy="0.3em" style="text-anchor: end; visibility: hidden; font-family: Roboto, sans-serif; font-size: 12px; font-weight: 200;" fill="rgb(33, 33, 33)" stroke="none" stroke-width="1px">0.72</text><text x="0" y="157.33333333333331" dx="0em" dy="0.3em" style="text-anchor: end; visibility: inherit; font-family: Roboto, sans-serif; font-size: 12px; font-weight: 200;" fill="rgb(33, 33, 33)" stroke="none" stroke-width="1px">0.74</text><text x="0" y="137.66666666666666" dx="0em" dy="0.3em" style="text-anchor: end; visibility: hidden; font-family: Roboto, sans-serif; font-size: 12px; font-weight: 200;" fill="rgb(33, 33, 33)" stroke="none" stroke-width="1px">0.76</text><text x="0" y="117.99999999999997" dx="0em" dy="0.3em" style="text-anchor: end; visibility: inherit; font-family: Roboto, sans-serif; font-size: 12px; font-weight: 200;" fill="rgb(33, 33, 33)" stroke="none" stroke-width="1px">0.78</text><text x="0" y="98.3333333333333" dx="0em" dy="0.3em" style="text-anchor: end; visibility: hidden; font-family: Roboto, sans-serif; font-size: 12px; font-weight: 200;" fill="rgb(33, 33, 33)" stroke="none" stroke-width="1px">0.8</text><text x="0" y="78.66666666666673" dx="0em" dy="0.3em" style="text-anchor: end; visibility: inherit; font-family: Roboto, sans-serif; font-size: 12px; font-weight: 200;" fill="rgb(33, 33, 33)" stroke="none" stroke-width="1px">0.82</text><text x="0" y="59.00000000000004" dx="0em" dy="0.3em" style="text-anchor: end; visibility: hidden; font-family: Roboto, sans-serif; font-size: 12px; font-weight: 200;" fill="rgb(33, 33, 33)" stroke="none" stroke-width="1px">0.84</text><text x="0" y="39.33333333333335" dx="0em" dy="0.3em" style="text-anchor: end; visibility: inherit; font-family: Roboto, sans-serif; font-size: 12px; font-weight: 200;" fill="rgb(33, 33, 33)" stroke="none" stroke-width="1px">0.86</text><text x="0" y="19.666666666666675" dx="0em" dy="0.3em" style="text-anchor: end; visibility: hidden; font-family: Roboto, sans-serif; font-size: 12px; font-weight: 200;" fill="rgb(33, 33, 33)" stroke="none" stroke-width="1px">0.88</text><text x="0" y="0" dx="0em" dy="0.3em" style="text-anchor: end; visibility: hidden; font-family: Roboto, sans-serif; font-size: 12px; font-weight: 200;" fill="rgb(33, 33, 33)" stroke="none" stroke-width="1px">0.9</text></g><line x1="50" y1="0" x2="50" y2="177" fill="rgb(0, 0, 0)" stroke="rgb(204, 204, 204)" stroke-width="1px"></line></g></g><g transform="translate(50, 0)" clip-path="url(#clip_0)"><clipPath id="clip_0"><rect width="280" height="176"></rect></clipPath><g><g><g><line x1="0" y1="0" x2="0" y2="177" fill="rgb(0, 0, 0)" stroke="rgb(66, 66, 66)" stroke-width="1px" opacity="0.25"></line><line x1="23.333333333333332" y1="0" x2="23.333333333333332" y2="177" fill="rgb(0, 0, 0)" stroke="rgb(66, 66, 66)" stroke-width="1px" opacity="0.25"></line><line x1="46.666666666666664" y1="0" x2="46.666666666666664" y2="177" fill="rgb(0, 0, 0)" stroke="rgb(66, 66, 66)" stroke-width="1px" opacity="0.25"></line><line x1="70" y1="0" x2="70" y2="177" fill="rgb(0, 0, 0)" stroke="rgb(66, 66, 66)" stroke-width="1px" opacity="0.25"></line><line x1="93.33333333333333" y1="0" x2="93.33333333333333" y2="177" fill="rgb(0, 0, 0)" stroke="rgb(66, 66, 66)" stroke-width="1px" opacity="0.25"></line><line x1="116.66666666666667" y1="0" x2="116.66666666666667" y2="177" fill="rgb(0, 0, 0)" stroke="rgb(66, 66, 66)" stroke-width="1px" opacity="0.25"></line><line x1="140" y1="0" x2="140" y2="177" fill="rgb(0, 0, 0)" stroke="rgb(66, 66, 66)" stroke-width="1px" opacity="0.25"></line><line x1="163.33333333333334" y1="0" x2="163.33333333333334" y2="177" fill="rgb(0, 0, 0)" stroke="rgb(66, 66, 66)" stroke-width="1px" opacity="0.25"></line><line x1="186.66666666666666" y1="0" x2="186.66666666666666" y2="177" fill="rgb(0, 0, 0)" stroke="rgb(66, 66, 66)" stroke-width="1px" opacity="0.25"></line><line x1="210" y1="0" x2="210" y2="177" fill="rgb(0, 0, 0)" stroke="rgb(66, 66, 66)" stroke-width="1px" opacity="0.25"></line><line x1="233.33333333333334" y1="0" x2="233.33333333333334" y2="177" fill="rgb(0, 0, 0)" stroke="rgb(66, 66, 66)" stroke-width="1px" opacity="0.25"></line><line x1="256.66666666666663" y1="0" x2="256.66666666666663" y2="177" fill="rgb(0, 0, 0)" stroke="rgb(66, 66, 66)" stroke-width="1px" opacity="0.25"></line><line x1="280" y1="0" x2="280" y2="177" fill="rgb(0, 0, 0)" stroke="rgb(66, 66, 66)" stroke-width="1px" opacity="0.25"></line></g><g><line x1="0" y1="177" x2="280" y2="177" fill="rgb(0, 0, 0)" stroke="rgb(66, 66, 66)" stroke-width="1px" opacity="0.25"></line><line x1="0" y1="157.33333333333331" x2="280" y2="157.33333333333331" fill="rgb(0, 0, 0)" stroke="rgb(66, 66, 66)" stroke-width="1px" opacity="0.25"></line><line x1="0" y1="137.66666666666666" x2="280" y2="137.66666666666666" fill="rgb(0, 0, 0)" stroke="rgb(66, 66, 66)" stroke-width="1px" opacity="0.25"></line><line x1="0" y1="117.99999999999997" x2="280" y2="117.99999999999997" fill="rgb(0, 0, 0)" stroke="rgb(66, 66, 66)" stroke-width="1px" opacity="0.25"></line><line x1="0" y1="98.3333333333333" x2="280" y2="98.3333333333333" fill="rgb(0, 0, 0)" stroke="rgb(66, 66, 66)" stroke-width="1px" opacity="0.25"></line><line x1="0" y1="78.66666666666673" x2="280" y2="78.66666666666673" fill="rgb(0, 0, 0)" stroke="rgb(66, 66, 66)" stroke-width="1px" opacity="0.25"></line><line x1="0" y1="59.00000000000004" x2="280" y2="59.00000000000004" fill="rgb(0, 0, 0)" stroke="rgb(66, 66, 66)" stroke-width="1px" opacity="0.25"></line><line x1="0" y1="39.33333333333335" x2="280" y2="39.33333333333335" fill="rgb(0, 0, 0)" stroke="rgb(66, 66, 66)" stroke-width="1px" opacity="0.25"></line><line x1="0" y1="19.666666666666675" x2="280" y2="19.666666666666675" fill="rgb(0, 0, 0)" stroke="rgb(66, 66, 66)" stroke-width="1px" opacity="0.25"></line><line x1="0" y1="0" x2="280" y2="0" fill="rgb(0, 0, 0)" stroke="rgb(66, 66, 66)" stroke-width="1px" opacity="0.25"></line></g></g></g><g><g><line x1="0" y1="884.9999999999997" x2="280" y2="884.9999999999997" fill="rgb(0, 0, 0)" stroke="rgb(153, 153, 153)" stroke-width="1.5px"></line></g></g><g><g><line x1="23.333333333333332" y1="0" x2="23.333333333333332" y2="177" fill="rgb(0, 0, 0)" stroke="rgb(153, 153, 153)" stroke-width="1.5px"></line></g></g><g><g><g><g><g><path stroke="rgb(0, 119, 187)" stroke-width="2px" d="M29.166666666666668,187.04674272494225L30.333333333333336,163.78287326409227L31.5,126.97267089037007L32.666666666666664,106.00870184093462L33.833333333333336,95.72485895229043L35,101.79632695488756L36.16666666666667,87.50730573203258L37.333333333333336,92.55946138269144L38.5,89.14512319142743L39.666666666666664,94.96859316682132L40.833333333333336,105.61447213917373L42,99.12515933841138L43.16666666666667,93.80182777824974L44.33333333333333,92.03856369952094L45.5,89.550320058108L46.666666666666664,78.76026731584734L47.833333333333336,75.14702814579519L49,76.55489748585276L50.166666666666664,72.39353242147384L51.33333333333333,72.04218460147857L52.5,63.96468052070528L53.66666666666667,66.2697259859714L54.833333333333336,60.50121558773791L56,59.185588350338655L57.166666666666664,59.82651430060221L58.333333333333336,58.78076792409632L59.5,55.292693182287934L60.66666666666667,50.33924504575048L61.83333333333333,53.088406588664384L63,49.01667325611734L64.16666666666666,48.00393498239903L65.33333333333333,47.39629202485338L66.5,47.746857088517984L67.66666666666667,45.81174362171418L68.83333333333333,41.79007220804752L70,40.09222019699175L71.16666666666666,39.78865982470388L72.33333333333334,40.32167443476098L73.5,40.641483200696634L74.66666666666667,40.11821762701855L75.83333333333333,36.94365495014851L77,40.04497317624953L78.16666666666667,36.184557446668514L79.33333333333333,37.44406217467296L80.5,45.351296787315015L81.66666666666667,42.94410577903228L82.83333333333333,42.214942007202L84,41.77744374410515L85.16666666666666,36.50888895433317L86.33333333333334,41.21441524490707L87.5,46.89835779626383L88.66666666666666,48.16324738319279L89.83333333333334,45.346426969700055L91,46.51693805412435L92.16666666666667,42.92833970599945L93.33333333333333,40.775180697124604L94.5,37.33783279241005L95.66666666666667,33.129971550191755L96.83333333333333,31.32040563799063L98,30.234666090669947L99.16666666666667,29.58322236227758L100.33333333333333,29.907506958372114L101.5,38.683887713587424L102.66666666666666,40.37396200106708L103.83333333333334,37.81225240790542L105,36.27522665200846L106.16666666666666,38.928765364119826L107.33333333333334,39.09058692512676L108.5,43.47858486051027L109.66666666666667,38.24472445731156L110.83333333333333,43.68621821295101L112,36.93900280251626L113.16666666666667,33.60582438938533L114.33333333333333,33.75136984089646L115.5,31.693244612413483L116.66666666666667,30.458369475323664L117.83333333333333,29.71744439306983L119,32.84864350936687L120.16666666666666,31.151608813495688L121.33333333333334,32.99399132849259L122.5,33.384270004360815L123.66666666666666,29.32753221110235L124.83333333333334,52.63894297231675L126,42.31063765813566L127.16666666666667,43.98031363405586L128.33333333333331,35.68515838891946L129.5,30.70806524183753L130.66666666666666,29.15211101984828L131.83333333333334,28.218538486654626L133,27.658394966738552L134.16666666666669,27.32230885478891L135.33333333333334,31.411562186398324L136.5,29.574209186584735L137.66666666666666,34.19300405173558L138.83333333333334,30.527923472657257L140,28.32887512521021L141.16666666666666,27.72459694987174L142.33333333333331,26.64687921153889L143.5,31.72145523357816L144.66666666666669,28.32984334863285L145.83333333333334,26.294876217665617L147,29.364800937864505L148.16666666666666,29.776454103724163L149.33333333333334,28.593144336980153L150.5,27.88315847693379L151.66666666666666,26.74201612777603L152.83333333333331,25.342179885151513L154,33.08408813713539L155.16666666666669,29.862573923896996L156.33333333333334,42.232705503045274L157.5,35.351744343442896L158.66666666666666,32.65346931394128L159.83333333333331,48.19814773585107L161,38.21585884999656L162.16666666666669,33.6567871847436L163.33333333333334,40.93345584941016L164.5,36.0024962175217L165.66666666666666,44.48635721296034L166.83333333333334,38.13423703565178L168,35.03811576239656L169.16666666666666,31.034990499053798L170.33333333333331,27.917964507918168L171.5,28.19320141262654L172.66666666666669,29.073494388581352L173.83333333333334,29.601670174154297L175,29.203424812368215L176.16666666666666,28.24932676216659L177.33333333333331,27.67686793204569L178.5,35.20005179840184L179.66666666666669,32.5624537869167L180.83333333333334,30.979894980025616L182,30.03035969589093L183.16666666666666,38.04244852296873L184.33333333333334,39.27394765356596L185.5,35.006791300015195L186.66666666666666,41.028307485443236L187.83333333333331,34.629105532881695L189,33.65018769386436L190.16666666666669,37.35374198923316L191.33333333333334,33.13951706828563L192.5,30.61098211571711L193.66666666666666,31.95446447669554L194.83333333333331,34.19085555954231L196,44.114523651302584L197.16666666666669,40.056589398046775L198.33333333333334,40.482432178612825L199.5,39.307636180692704L200.66666666666666,37.172456915680854L201.83333333333334,37.3216510229335L203,40.271770819804615L204.16666666666666,36.3206360328882L205.33333333333331,41.816614325167066L206.5,42.2535979680148L207.66666666666669,36.79458148868442L208.83333333333334,37.81007659986548L210,35.558770334054664L211.16666666666666,34.92313740769792L212.33333333333331,33.82660681875406L213.5,34.598990131647575L214.66666666666669,35.06242011938356L215.83333333333334,33.195025612635604L217,39.22609723988559L218.16666666666666,37.83868438432643L219.33333333333334,38.43653833725073L220.5,43.08615570778462L221.66666666666666,43.73047363071536L222.83333333333331,42.686762718213906L224,40.63023450445338L225.16666666666669,39.39631757619705L226.33333333333334,40.08626908550291L227.5,39.78508915795666L228.66666666666666,38.88923036829901L229.83333333333331,38.351715094504385L231,41.60496009587709L232.16666666666669,40.696303764181096L233.33333333333334,44.44201496394278L234.5,41.68338585189073L235.66666666666666,42.173660884049056L236.83333333333334,41.75267507021419L238,42.93038524817303L239.16666666666666,40.06125718929901L240.33333333333331,41.200383686494135L241.5,39.0232562522915L242.66666666666669,39.862432291159635L243.83333333333334,56.81443052096146L245,49.82198601923173L246.16666666666666,54.92350359337596L247.33333333333331,53.69348569458963L248.5,50.8100224559282L249.66666666666669,42.643587014562364L250.83333333333334,43.464932414781984L252,38.951683823004466L253.16666666666666,38.389187167327734L254.33333333333334,37.33653834079183L255.5,43.856457376169026" style="fill: none;" fill="none"></path></g><g><path stroke="rgb(255, 112, 67)" stroke-width="2px" d="M33.833333333333336,178.97557920025542L35,172.52451595438862L36.16666666666667,170.28003233805407L37.333333333333336,170.00963979457214L38.5,161.26687980344488L39.666666666666664,156.02561063349066L40.833333333333336,160.02945723328156L42,153.14094885668283L43.16666666666667,149.0085901429054L44.33333333333333,143.31397595807246L45.5,140.61197349634568L46.666666666666664,137.9190467087422L47.833333333333336,133.80254172856775L49,132.4044234622037L50.166666666666664,130.1365640231474L51.33333333333333,128.23995947861994L52.5,127.28064754891479L53.66666666666667,123.48978651571608L54.833333333333336,122.10841435604367L56,121.81546259107449L57.166666666666664,116.45953581450773L58.333333333333336,119.49787755807475L59.5,115.06898562628317L60.66666666666667,110.98266184994122L61.83333333333333,109.06673851485422L63,114.16908087884072L64.16666666666666,109.72820131899823L65.33333333333333,107.420944252767L66.5,104.07170700527811L67.66666666666667,105.27741285929041L68.83333333333333,105.28634198171473L70,104.04131083187484L71.16666666666666,101.50803272898494L72.33333333333334,100.88120729691867L73.5,97.82573464042908L74.66666666666667,98.13595765351678L75.83333333333333,94.39232544191836L77,92.14614611510869L78.16666666666667,93.29919231920704L79.33333333333333,93.27652565433117L80.5,95.94230305232881L81.66666666666667,93.07613268142511L82.83333333333333,90.64193607158093L84,88.64552387070273L85.16666666666666,88.51944157563612L86.33333333333334,85.40714416354481L87.5,86.75503734816894L88.66666666666666,85.9561374430046L89.83333333333334,84.94092670942442L91,83.97455307562208L92.16666666666667,83.75197608899506L93.33333333333333,82.18941767790761L94.5,81.60912982490974L95.66666666666667,80.01059193532058L96.83333333333333,76.9079625951472L98,76.47539721015431L99.16666666666667,78.53798818240566L100.33333333333333,79.41827212760847L101.5,76.90981790417432L102.66666666666666,73.79710955417559L103.83333333333334,74.78750898239855L105,74.30998361387556L106.16666666666666,73.66622119910751L107.33333333333334,73.99445813755524L108.5,74.37002389745126L109.66666666666667,75.84575197567275L110.83333333333333,73.33729359390168L112,74.51161940623423L113.16666666666667,72.35819045541145L114.33333333333333,72.67376890085617L115.5,69.6478677807399L116.66666666666667,68.3681978991517L117.83333333333333,66.7072545415693L119,68.21146577158777L120.16666666666666,65.8987208777221L121.33333333333334,65.5828389668595L122.5,68.78718160455209L123.66666666666666,66.95864476480948L124.83333333333334,66.93328768642075L126,64.4173196393132L127.16666666666667,64.15810398883899L128.33333333333331,64.5384688335296L129.5,61.015545317985854L130.66666666666666,61.045297815079515L131.83333333333334,59.27688990057019L133,61.2524697424204L134.16666666666669,61.3660760665674L135.33333333333334,60.00522764194443L136.5,59.90323641897298L137.66666666666666,60.37791247567163L138.83333333333334,61.555836093826834L140,57.08245906774422L141.16666666666666,54.39843285209466L142.33333333333331,53.50251151001375L143.5,56.18023033664175L144.66666666666669,55.64335502619874L145.83333333333334,56.03572422724168L147,57.70015796697852L148.16666666666666,56.73393520122792L149.33333333333334,53.296200548048894L150.5,51.5908069497959L151.66666666666666,52.532453800436734L152.83333333333331,53.276065507648575L154,51.400102328728536L155.16666666666669,49.91725378322851L156.33333333333334,51.70694549732362L157.5,51.17312470984236L158.66666666666666,45.31543040222981L159.83333333333331,49.303098662378716L161,52.41019400577683L162.16666666666669,51.23782662125989L163.33333333333334,48.390899584129755L164.5,44.539236755431794L165.66666666666666,47.05112306153443L166.83333333333334,48.915502038850434L168,48.605140650622474L169.16666666666666,46.27541721126582L170.33333333333331,44.52031250950385L171.5,46.86114491715047L172.66666666666669,43.62138395524435L173.83333333333334,42.92789255589101L175,44.298057129044444L176.16666666666666,47.08503888252917L177.33333333333331,47.32821571550889L178.5,45.68788584702486L179.66666666666669,42.56018131951453L180.83333333333334,41.933923780798786L182,37.27115604472954L183.16666666666666,38.40326142227328L184.33333333333334,38.54665385831793L185.5,39.883054497735145L186.66666666666666,38.898658913113586L187.83333333333331,37.59350373053827L189,36.81041062099303L190.16666666666669,36.161931158438755L191.33333333333334,39.34536230643717L192.5,39.8264087761251L193.66666666666666,39.221918673801845L194.83333333333331,41.00273121882781L196,36.53381691071969L197.16666666666669,35.81735133544753L198.33333333333334,34.67297760297551L199.5,35.23671854128263L200.66666666666666,35.57496310426691L201.83333333333334,32.38403805784728L203,29.576341601365854L204.16666666666666,31.82148974666244L205.33333333333331,29.23881261465503L206.5,30.904477967327086L207.66666666666669,31.54662998527601L208.83333333333334,30.14566178327987L210,30.37682244304534L211.16666666666666,30.336895242077414L212.33333333333331,32.09919833426215L213.5,29.762708405362787L214.66666666666669,28.182167406702305L215.83333333333334,29.913243648901176L217,30.59464220056606L218.16666666666666,29.931716306108203L219.33333333333334,28.81946638212472L220.5,29.045234411870744L221.66666666666666,29.53794242337268L222.83333333333331,30.36946146524911L224,30.153855058572457L225.16666666666669,28.238231801800943L226.33333333333334,24.94535124131828L227.5,25.291753108275625L228.66666666666666,24.78509984114137L229.83333333333331,24.65973147768791L231,26.72801706603579L232.16666666666669,22.431610028414365L233.33333333333334,20.925507386804632L234.5,20.914987230468377L235.66666666666666,20.908675136666638L236.83333333333334,20.547617242237585L238,20.15235890875289L239.16666666666666,19.73658031183503L240.33333333333331,23.23825557604247L241.5,20.516376731245625L242.66666666666669,21.026756030787496L243.83333333333334,22.76197238513001L245,24.874867223192275L246.16666666666666,24.17772111643691L247.33333333333331,21.258679652309475L248.5,20.221749161141766L249.66666666666669,19.063720075959644L250.83333333333334,21.22690361857896L252,20.738554331384993L253.16666666666666,21.16006259087107L254.33333333333334,18.554943108340353L255.5,19.13537802524185" style="fill: none;" fill="none"></path></g></g></g></g><g opacity="0.2"><g><g><g><path stroke="rgb(0, 119, 187)" stroke-width="2px" d="M24.5,239.5757283767064L25.666666666666664,164.4848322868347L26.833333333333336,187.7272929747899L28,155.54544687271118L29.166666666666668,187.7272929747899L30.333333333333336,130.51516771316528L31.5,73.30304245154063L32.666666666666664,75.09091953436534L33.833333333333336,80.45455078283946L35,110.84846119085947L36.16666666666667,66.15153412024179L37.333333333333336,100.12119869391124L38.5,84.03030494848888L39.666666666666664,103.69695285956064L40.833333333333336,121.57578229904175L42,89.393936196963L43.16666666666667,85.81818203131358L44.33333333333333,89.393936196963L45.5,85.81818203131358L46.666666666666664,62.5757799545924L47.833333333333336,69.72728828589122L49,78.66667370001475L50.166666666666664,66.15153412024179L51.33333333333333,71.51516536871591L52.5,51.84845884641012L53.66666666666667,69.72728828589122L54.833333333333336,51.84845884641012L56,57.21214870611828L57.166666666666664,60.78790287176768L58.333333333333336,57.21214870611828L59.5,50.06058176358542L60.66666666666667,42.9090734322866L61.83333333333333,57.21214870611828L63,42.9090734322866L64.16666666666666,46.484827597936L65.33333333333333,46.484827597936L66.5,48.27270468076072L67.66666666666667,42.9090734322866L68.83333333333333,35.757565100987755L70,37.545442183812476L71.16666666666666,39.333319266637176L72.33333333333334,41.121196349461876L73.5,41.121196349461876L74.66666666666667,39.333319266637176L75.83333333333333,32.181810935338355L77,44.6969505151113L78.16666666666667,30.393933852513637L79.33333333333333,39.333319266637176L80.5,57.21214870611828L81.66666666666667,39.333319266637176L82.83333333333333,41.121196349461876L84,41.121196349461876L85.16666666666666,28.606056769688934L86.33333333333334,48.27270468076072L87.5,55.42427162329357L88.66666666666666,50.06058176358542L89.83333333333334,41.121196349461876L91,48.27270468076072L92.16666666666667,37.545442183812476L93.33333333333333,37.545442183812476L94.5,32.181810935338355L95.66666666666667,26.818179686864234L96.83333333333333,28.606056769688934L98,28.606056769688934L99.16666666666667,28.606056769688934L100.33333333333333,30.393933852513637L101.5,51.84845884641012L102.66666666666666,42.9090734322866L103.83333333333334,33.969688018163055L105,33.969688018163055L106.16666666666666,42.9090734322866L107.33333333333334,39.333319266637176L108.5,50.06058176358542L109.66666666666667,30.393933852513637L110.83333333333333,51.84845884641012L112,26.818179686864234L113.16666666666667,28.606056769688934L114.33333333333333,33.969688018163055L115.5,28.606056769688934L116.66666666666667,28.606056769688934L117.83333333333333,28.606056769688934L119,37.545442183812476L120.16666666666666,28.606056769688934L121.33333333333334,35.757565100987755L122.5,33.969688018163055L123.66666666666666,23.242425521214813L124.83333333333334,87.60605911413828L126,26.818179686864234L127.16666666666667,46.484827597936L128.33333333333331,23.242425521214813L129.5,23.242425521214813L130.66666666666666,26.818179686864234L131.83333333333334,26.818179686864234L133,26.818179686864234L134.16666666666669,26.818179686864234L135.33333333333334,37.545442183812476L136.5,26.818179686864234L137.66666666666666,41.121196349461876L138.83333333333334,25.030302604039534L140,25.030302604039534L141.16666666666666,26.818179686864234L142.33333333333331,25.030302604039534L143.5,39.333319266637176L144.66666666666669,23.242425521214813L145.83333333333334,23.242425521214813L147,33.969688018163055L148.16666666666666,30.393933852513637L149.33333333333334,26.818179686864234L150.5,26.818179686864234L151.66666666666666,25.030302604039534L152.83333333333331,23.242425521214813L154,44.6969505151113L155.16666666666669,25.030302604039534L156.33333333333334,60.78790287176768L157.5,25.030302604039534L158.66666666666666,28.606056769688934L159.83333333333331,71.51516536871591L161,23.242425521214813L162.16666666666669,26.818179686864234L163.33333333333334,51.84845884641012L164.5,28.606056769688934L165.66666666666666,57.21214870611828L166.83333333333334,28.606056769688934L168,30.393933852513637L169.16666666666666,25.030302604039534L170.33333333333331,23.242425521214813L171.5,28.606056769688934L172.66666666666669,30.393933852513637L173.83333333333334,30.393933852513637L175,28.606056769688934L176.16666666666666,26.818179686864234L177.33333333333331,26.818179686864234L178.5,46.484827597936L179.66666666666669,28.606056769688934L180.83333333333334,28.606056769688934L182,28.606056769688934L183.16666666666666,50.06058176358542L184.33333333333334,41.121196349461876L185.5,28.606056769688934L186.66666666666666,50.06058176358542L187.83333333333331,25.030302604039534L189,32.181810935338355L190.16666666666669,42.9090734322866L191.33333333333334,26.818179686864234L192.5,26.818179686864234L193.66666666666666,33.969688018163055L194.83333333333331,37.545442183812476L196,59.00002578894298L197.16666666666669,33.969688018163055L198.33333333333334,41.121196349461876L199.5,37.545442183812476L200.66666666666666,33.969688018163055L201.83333333333334,37.545442183812476L203,44.6969505151113L204.16666666666666,30.393933852513637L205.33333333333331,50.06058176358542L206.5,42.9090734322866L207.66666666666669,28.606056769688934L208.83333333333334,39.333319266637176L210,32.181810935338355L211.16666666666666,33.969688018163055L212.33333333333331,32.181810935338355L213.5,35.757565100987755L214.66666666666669,35.757565100987755L215.83333333333334,30.393933852513637L217,48.27270468076072L218.16666666666666,35.757565100987755L219.33333333333334,39.333319266637176L220.5,50.06058176358542L221.66666666666666,44.6969505151113L222.83333333333331,41.121196349461876L224,37.545442183812476L225.16666666666669,37.545442183812476L226.33333333333334,41.121196349461876L227.5,39.333319266637176L228.66666666666666,37.545442183812476L229.83333333333331,37.545442183812476L231,46.484827597936L232.16666666666669,39.333319266637176L233.33333333333334,50.06058176358542L234.5,37.545442183812476L235.66666666666666,42.9090734322866L236.83333333333334,41.121196349461876L238,44.6969505151113L239.16666666666666,35.757565100987755L240.33333333333331,42.9090734322866L241.5,35.757565100987755L242.66666666666669,41.121196349461876L243.83333333333334,82.24242786566415L245,39.333319266637176L246.16666666666666,62.5757799545924L247.33333333333331,51.84845884641012L248.5,46.484827597936L249.66666666666669,30.393933852513637L250.83333333333334,44.6969505151113L252,32.181810935338355L253.16666666666666,37.545442183812476L254.33333333333334,35.757565100987755L255.5,53.63633592923482" style="fill: none;" fill="none"></path></g><g><path stroke="rgb(255, 112, 67)" stroke-width="2px" d="M30.333333333333336,195.0590308507283L31.5,175.85681835810342L32.666666666666664,170.94461083412168L33.833333333333336,160.67363679409024L35,162.90643175443012L36.16666666666667,166.92552129427588L37.333333333333336,169.60493385791776L38.5,148.16986779371896L39.666666666666664,148.16986779371896L40.833333333333336,166.03240331013996L42,142.81110127766925L43.16666666666667,142.81110127766925L44.33333333333333,134.7729221979777L45.5,136.5592167774836L46.666666666666664,133.87980421384174L47.833333333333336,127.62791971365608L49,130.30727366606394L50.166666666666664,126.73480172952014L51.33333333333333,125.3950661420822L52.5,125.84168374538419L53.66666666666667,117.80350466569266L54.833333333333336,120.03635823726654L56,121.37603521347044L57.166666666666664,108.42564860979715L58.333333333333336,124.0553891658783L59.5,108.42564860979715L60.66666666666667,104.85317667325337L61.83333333333333,106.19285364945729L63,121.82259420553842L64.16666666666666,103.06688209374745L65.33333333333333,103.96005868911742L66.5,99.0478511651357L67.66666666666667,107.08597163359322L68.83333333333333,105.29973566532135L70,102.17376410961151L71.16666666666666,97.70811557769774L72.33333333333334,99.94096914927162L73.5,93.24252565701804L74.66666666666667,98.60129217306772L75.83333333333333,88.77687712510426L77,88.77687712510426L78.16666666666667,95.02876162528992L79.33333333333333,93.24252565701804L80.5,99.94096914927162L81.66666666666667,88.77687712510426L82.83333333333333,86.99064115683237L84,85.65090556939442L85.16666666666666,88.33031813303629L86.33333333333334,80.7386980454127L87.5,88.77687712510426L88.66666666666666,84.75778758525848L89.83333333333334,83.41811060905457L91,82.52499262491862L92.16666666666667,83.41811060905457L93.33333333333333,79.84558006127676L94.5,80.7386980454127L95.66666666666667,77.61278510093689L96.83333333333333,72.25401858488719L98,75.82654913266501L99.16666666666667,81.63187464078267L100.33333333333333,80.7386980454127L101.5,73.14713656902313L102.66666666666666,69.12804702917735L103.83333333333334,76.27310812473297L105,73.59369556109111L106.16666666666666,72.70057757695517L107.33333333333334,74.48681354522705L108.5,74.93337253729501L109.66666666666667,78.05934409300485L110.83333333333333,69.57460602124533L112,76.27310812473297L113.16666666666667,69.12804702917735L114.33333333333333,73.14713656902313L115.5,65.1090161005656L116.66666666666667,66.44869307676952L117.83333333333333,64.21583950519563L119,70.4677826166153L120.16666666666666,62.42960353692373L121.33333333333334,65.1090161005656L122.5,73.59369556109111L123.66666666666666,64.21583950519563L124.83333333333334,66.8952520688375L126,60.64336756865183L127.16666666666667,63.769280513127654L128.33333333333331,65.1090161005656L129.5,55.73116004467011L130.66666666666666,61.0899265607198L131.83333333333334,56.62427802880606L133,64.21583950519563L134.16666666666669,61.53648555278778L135.33333333333334,57.963955005009964L136.5,59.7502495845159L137.66666666666666,61.0899265607198L138.83333333333334,63.322721521059684L140,50.372393528620414L141.16666666666666,50.372393528620414L142.33333333333331,52.158629496892296L143.5,60.19680857658388L144.66666666666669,54.838042060534164L145.83333333333334,56.62427802880606L147,60.19680857658388L148.16666666666666,55.284601052602135L149.33333333333334,48.13959856828054L150.5,49.032716552416495L151.66666666666666,53.94492407639821L152.83333333333331,54.39148306846619L154,48.58615756034852L155.16666666666669,47.69298096497855L156.33333333333334,54.39148306846619L157.5,50.372393528620414L158.66666666666666,36.52888894081117L159.83333333333331,55.284601052602135L161,57.07083702087404L162.16666666666669,49.479275544484466L163.33333333333334,44.120509028434775L164.5,38.76174251238506L165.66666666666666,50.81895252068839L166.83333333333334,51.712070504824325L168,48.13959856828054L169.16666666666666,42.78083205223085L170.33333333333331,41.88765545686086L171.5,50.372393528620414L172.66666666666669,38.76174251238506L173.83333333333334,41.88765545686086L175,46.35330398877463L176.16666666666666,51.26551151275635L177.33333333333331,47.69298096497855L178.5,43.22739104429882L179.66666666666669,37.86862452824911L180.83333333333334,40.994537472724936L182,30.277004440625525L183.16666666666666,40.10141948858898L184.33333333333334,38.76174251238506L185.5,41.88765545686086L186.66666666666666,37.42206553618114L187.83333333333331,35.63577095667522L189,35.63577095667522L190.16666666666669,35.189211964607246L191.33333333333334,44.120509028434775L192.5,40.54797848065696L193.66666666666666,38.315183520317085L194.83333333333331,43.6739500363668L196,29.83044544855755L197.16666666666669,34.74265297253927L198.33333333333334,32.95641700426739L199.5,36.082329948743194L200.66666666666666,36.082329948743194L201.83333333333334,27.597650488217695L203,25.364796916643787L204.16666666666666,35.189211964607246L205.33333333333331,25.364796916643787L206.5,33.402975996335364L207.66666666666669,32.509858012199416L208.83333333333334,28.04420948028565L210,30.723563432693503L211.16666666666666,30.277004440625525L212.33333333333331,34.74265297253927L213.5,26.25797351201377L214.66666666666669,25.81135590871176L215.83333333333334,32.509858012199416L217,31.616740028063465L218.16666666666666,28.9373274644216L219.33333333333334,27.15109149614972L220.5,29.383886456489577L221.66666666666666,30.277004440625525L222.83333333333331,31.616740028063465L224,29.83044544855755L225.16666666666669,25.364796916643787L226.33333333333334,20.006030400594092L227.5,25.81135590871176L228.66666666666666,24.025119940439883L229.83333333333331,24.471678932507857L231,29.83044544855755L232.16666666666669,15.986999471982337L233.33333333333334,18.666353424390167L234.5,20.899206995964057L235.66666666666666,20.899206995964057L236.83333333333334,20.006030400594092L238,19.559471408526118L239.16666666666666,19.112912416458144L240.33333333333331,28.490768472353626L241.5,16.433558464050314L242.66666666666669,21.792324980100005L243.83333333333334,25.364796916643787L245,28.04420948028565L246.16666666666666,23.13200195630393L247.33333333333331,16.88011745611829L248.5,18.666353424390167L249.66666666666669,17.326676448186262L250.83333333333334,24.471678932507857L252,20.006030400594092L253.16666666666666,21.792324980100005L254.33333333333334,14.6472638845444L255.5,20.006030400594092" style="fill: none;" fill="none"></path></g></g></g></g></g></g><g transform="translate(50, 177)" clip-path="url(#clip_1)"><clipPath id="clip_1"><rect width="280" height="22"></rect></clipPath><g><g><line x1="0" y1="0" x2="0" y2="5" style="visibility: inherit;" fill="rgb(0, 0, 0)" stroke="rgb(204, 204, 204)" stroke-width="1px"></line><line x1="23.333333333333332" y1="0" x2="23.333333333333332" y2="5" style="visibility: inherit;" fill="rgb(0, 0, 0)" stroke="rgb(204, 204, 204)" stroke-width="1px"></line><line x1="46.666666666666664" y1="0" x2="46.666666666666664" y2="5" style="visibility: inherit;" fill="rgb(0, 0, 0)" stroke="rgb(204, 204, 204)" stroke-width="1px"></line><line x1="70" y1="0" x2="70" y2="5" style="visibility: inherit;" fill="rgb(0, 0, 0)" stroke="rgb(204, 204, 204)" stroke-width="1px"></line><line x1="93.33333333333333" y1="0" x2="93.33333333333333" y2="5" style="visibility: inherit;" fill="rgb(0, 0, 0)" stroke="rgb(204, 204, 204)" stroke-width="1px"></line><line x1="116.66666666666667" y1="0" x2="116.66666666666667" y2="5" style="visibility: inherit;" fill="rgb(0, 0, 0)" stroke="rgb(204, 204, 204)" stroke-width="1px"></line><line x1="140" y1="0" x2="140" y2="5" style="visibility: inherit;" fill="rgb(0, 0, 0)" stroke="rgb(204, 204, 204)" stroke-width="1px"></line><line x1="163.33333333333334" y1="0" x2="163.33333333333334" y2="5" style="visibility: inherit;" fill="rgb(0, 0, 0)" stroke="rgb(204, 204, 204)" stroke-width="1px"></line><line x1="186.66666666666666" y1="0" x2="186.66666666666666" y2="5" style="visibility: inherit;" fill="rgb(0, 0, 0)" stroke="rgb(204, 204, 204)" stroke-width="1px"></line><line x1="210" y1="0" x2="210" y2="5" style="visibility: inherit;" fill="rgb(0, 0, 0)" stroke="rgb(204, 204, 204)" stroke-width="1px"></line><line x1="233.33333333333334" y1="0" x2="233.33333333333334" y2="5" style="visibility: inherit;" fill="rgb(0, 0, 0)" stroke="rgb(204, 204, 204)" stroke-width="1px"></line><line x1="256.66666666666663" y1="0" x2="256.66666666666663" y2="5" style="visibility: inherit;" fill="rgb(0, 0, 0)" stroke="rgb(204, 204, 204)" stroke-width="1px"></line><line x1="280" y1="0" x2="280" y2="5" style="visibility: inherit;" fill="rgb(0, 0, 0)" stroke="rgb(204, 204, 204)" stroke-width="1px"></line></g><g transform="translate(0, 8)"><text x="0" y="0" dx="0em" dy="0.95em" style="text-anchor: middle; visibility: hidden; font-family: Roboto, sans-serif; font-size: 12px; font-weight: 200;" fill="rgb(33, 33, 33)" stroke="none" stroke-width="1px">-20</text><text x="23.333333333333332" y="0" dx="0em" dy="0.95em" style="text-anchor: middle; visibility: inherit; font-family: Roboto, sans-serif; font-size: 12px; font-weight: 200;" fill="rgb(33, 33, 33)" stroke="none" stroke-width="1px">0</text><text x="46.666666666666664" y="0" dx="0em" dy="0.95em" style="text-anchor: middle; visibility: hidden; font-family: Roboto, sans-serif; font-size: 12px; font-weight: 200;" fill="rgb(33, 33, 33)" stroke="none" stroke-width="1px">20</text><text x="70" y="0" dx="0em" dy="0.95em" style="text-anchor: middle; visibility: inherit; font-family: Roboto, sans-serif; font-size: 12px; font-weight: 200;" fill="rgb(33, 33, 33)" stroke="none" stroke-width="1px">40</text><text x="93.33333333333333" y="0" dx="0em" dy="0.95em" style="text-anchor: middle; visibility: hidden; font-family: Roboto, sans-serif; font-size: 12px; font-weight: 200;" fill="rgb(33, 33, 33)" stroke="none" stroke-width="1px">60</text><text x="116.66666666666667" y="0" dx="0em" dy="0.95em" style="text-anchor: middle; visibility: inherit; font-family: Roboto, sans-serif; font-size: 12px; font-weight: 200;" fill="rgb(33, 33, 33)" stroke="none" stroke-width="1px">80</text><text x="140" y="0" dx="0em" dy="0.95em" style="text-anchor: middle; visibility: hidden; font-family: Roboto, sans-serif; font-size: 12px; font-weight: 200;" fill="rgb(33, 33, 33)" stroke="none" stroke-width="1px">100</text><text x="163.33333333333334" y="0" dx="0em" dy="0.95em" style="text-anchor: middle; visibility: inherit; font-family: Roboto, sans-serif; font-size: 12px; font-weight: 200;" fill="rgb(33, 33, 33)" stroke="none" stroke-width="1px">120</text><text x="186.66666666666666" y="0" dx="0em" dy="0.95em" style="text-anchor: middle; visibility: hidden; font-family: Roboto, sans-serif; font-size: 12px; font-weight: 200;" fill="rgb(33, 33, 33)" stroke="none" stroke-width="1px">140</text><text x="210" y="0" dx="0em" dy="0.95em" style="text-anchor: middle; visibility: inherit; font-family: Roboto, sans-serif; font-size: 12px; font-weight: 200;" fill="rgb(33, 33, 33)" stroke="none" stroke-width="1px">160</text><text x="233.33333333333334" y="0" dx="0em" dy="0.95em" style="text-anchor: middle; visibility: hidden; font-family: Roboto, sans-serif; font-size: 12px; font-weight: 200;" fill="rgb(33, 33, 33)" stroke="none" stroke-width="1px">180</text><text x="256.66666666666663" y="0" dx="0em" dy="0.95em" style="text-anchor: middle; visibility: inherit; font-family: Roboto, sans-serif; font-size: 12px; font-weight: 200;" fill="rgb(33, 33, 33)" stroke="none" stroke-width="1px">200</text><text x="280" y="0" dx="0em" dy="0.95em" style="text-anchor: middle; visibility: hidden; font-family: Roboto, sans-serif; font-size: 12px; font-weight: 200;" fill="rgb(33, 33, 33)" stroke="none" stroke-width="1px">220</text></g><line x1="0" y1="0" x2="280" y2="0" fill="rgb(0, 0, 0)" stroke="rgb(204, 204, 204)" stroke-width="1px"></line></g></g></g></g></svg>