<svg viewBox="0 0 330 200" xmlns="http://www.w3.org/2000/svg"><g><g><g><g><g><line x1="50" y1="177" x2="45" y2="177" style="visibility: inherit;" fill="rgb(0, 0, 0)" stroke="rgb(204, 204, 204)" stroke-width="1px"></line><line x1="50" y1="151.71428571428572" x2="45" y2="151.71428571428572" style="visibility: inherit;" fill="rgb(0, 0, 0)" stroke="rgb(204, 204, 204)" stroke-width="1px"></line><line x1="50" y1="126.42857142857142" x2="45" y2="126.42857142857142" style="visibility: inherit;" fill="rgb(0, 0, 0)" stroke="rgb(204, 204, 204)" stroke-width="1px"></line><line x1="50" y1="101.14285714285714" x2="45" y2="101.14285714285714" style="visibility: inherit;" fill="rgb(0, 0, 0)" stroke="rgb(204, 204, 204)" stroke-width="1px"></line><line x1="50" y1="75.85714285714286" x2="45" y2="75.85714285714286" style="visibility: inherit;" fill="rgb(0, 0, 0)" stroke="rgb(204, 204, 204)" stroke-width="1px"></line><line x1="50" y1="50.57142857142855" x2="45" y2="50.57142857142855" style="visibility: inherit;" fill="rgb(0, 0, 0)" stroke="rgb(204, 204, 204)" stroke-width="1px"></line><line x1="50" y1="25.285714285714313" x2="45" y2="25.285714285714313" style="visibility: inherit;" fill="rgb(0, 0, 0)" stroke="rgb(204, 204, 204)" stroke-width="1px"></line><line x1="50" y1="0" x2="45" y2="0" style="visibility: inherit;" fill="rgb(0, 0, 0)" stroke="rgb(204, 204, 204)" stroke-width="1px"></line></g><g transform="translate(40, 0)"><text x="0" y="177" dx="0em" dy="0.3em" style="text-anchor: end; visibility: hidden; font-family: Roboto, sans-serif; font-size: 12px; font-weight: 200;" fill="rgb(33, 33, 33)" stroke="none" stroke-width="1px">0.3</text><text x="0" y="151.71428571428572" dx="0em" dy="0.3em" style="text-anchor: end; visibility: inherit; font-family: Roboto, sans-serif; font-size: 12px; font-weight: 200;" fill="rgb(33, 33, 33)" stroke="none" stroke-width="1px">0.35</text><text x="0" y="126.42857142857142" dx="0em" dy="0.3em" style="text-anchor: end; visibility: inherit; font-family: Roboto, sans-serif; font-size: 12px; font-weight: 200;" fill="rgb(33, 33, 33)" stroke="none" stroke-width="1px">0.4</text><text x="0" y="101.14285714285714" dx="0em" dy="0.3em" style="text-anchor: end; visibility: inherit; font-family: Roboto, sans-serif; font-size: 12px; font-weight: 200;" fill="rgb(33, 33, 33)" stroke="none" stroke-width="1px">0.45</text><text x="0" y="75.85714285714286" dx="0em" dy="0.3em" style="text-anchor: end; visibility: inherit; font-family: Roboto, sans-serif; font-size: 12px; font-weight: 200;" fill="rgb(33, 33, 33)" stroke="none" stroke-width="1px">0.5</text><text x="0" y="50.57142857142855" dx="0em" dy="0.3em" style="text-anchor: end; visibility: inherit; font-family: Roboto, sans-serif; font-size: 12px; font-weight: 200;" fill="rgb(33, 33, 33)" stroke="none" stroke-width="1px">0.55</text><text x="0" y="25.285714285714313" dx="0em" dy="0.3em" style="text-anchor: end; visibility: inherit; font-family: Roboto, sans-serif; font-size: 12px; font-weight: 200;" fill="rgb(33, 33, 33)" stroke="none" stroke-width="1px">0.6</text><text x="0" y="0" dx="0em" dy="0.3em" style="text-anchor: end; visibility: hidden; font-family: Roboto, sans-serif; font-size: 12px; font-weight: 200;" fill="rgb(33, 33, 33)" stroke="none" stroke-width="1px">0.65</text></g><line x1="50" y1="0" x2="50" y2="177" fill="rgb(0, 0, 0)" stroke="rgb(204, 204, 204)" stroke-width="1px"></line></g></g><g transform="translate(50, 0)" clip-path="url(#clip_0)"><clipPath id="clip_0"><rect width="280" height="176"></rect></clipPath><g><g><g><line x1="0" y1="0" x2="0" y2="177" fill="rgb(0, 0, 0)" stroke="rgb(66, 66, 66)" stroke-width="1px" opacity="0.25"></line><line x1="23.333333333333332" y1="0" x2="23.333333333333332" y2="177" fill="rgb(0, 0, 0)" stroke="rgb(66, 66, 66)" stroke-width="1px" opacity="0.25"></line><line x1="46.666666666666664" y1="0" x2="46.666666666666664" y2="177" fill="rgb(0, 0, 0)" stroke="rgb(66, 66, 66)" stroke-width="1px" opacity="0.25"></line><line x1="70" y1="0" x2="70" y2="177" fill="rgb(0, 0, 0)" stroke="rgb(66, 66, 66)" stroke-width="1px" opacity="0.25"></line><line x1="93.33333333333333" y1="0" x2="93.33333333333333" y2="177" fill="rgb(0, 0, 0)" stroke="rgb(66, 66, 66)" stroke-width="1px" opacity="0.25"></line><line x1="116.66666666666667" y1="0" x2="116.66666666666667" y2="177" fill="rgb(0, 0, 0)" stroke="rgb(66, 66, 66)" stroke-width="1px" opacity="0.25"></line><line x1="140" y1="0" x2="140" y2="177" fill="rgb(0, 0, 0)" stroke="rgb(66, 66, 66)" stroke-width="1px" opacity="0.25"></line><line x1="163.33333333333334" y1="0" x2="163.33333333333334" y2="177" fill="rgb(0, 0, 0)" stroke="rgb(66, 66, 66)" stroke-width="1px" opacity="0.25"></line><line x1="186.66666666666666" y1="0" x2="186.66666666666666" y2="177" fill="rgb(0, 0, 0)" stroke="rgb(66, 66, 66)" stroke-width="1px" opacity="0.25"></line><line x1="210" y1="0" x2="210" y2="177" fill="rgb(0, 0, 0)" stroke="rgb(66, 66, 66)" stroke-width="1px" opacity="0.25"></line><line x1="233.33333333333334" y1="0" x2="233.33333333333334" y2="177" fill="rgb(0, 0, 0)" stroke="rgb(66, 66, 66)" stroke-width="1px" opacity="0.25"></line><line x1="256.66666666666663" y1="0" x2="256.66666666666663" y2="177" fill="rgb(0, 0, 0)" stroke="rgb(66, 66, 66)" stroke-width="1px" opacity="0.25"></line><line x1="280" y1="0" x2="280" y2="177" fill="rgb(0, 0, 0)" stroke="rgb(66, 66, 66)" stroke-width="1px" opacity="0.25"></line></g><g><line x1="0" y1="177" x2="280" y2="177" fill="rgb(0, 0, 0)" stroke="rgb(66, 66, 66)" stroke-width="1px" opacity="0.25"></line><line x1="0" y1="151.71428571428572" x2="280" y2="151.71428571428572" fill="rgb(0, 0, 0)" stroke="rgb(66, 66, 66)" stroke-width="1px" opacity="0.25"></line><line x1="0" y1="126.42857142857142" x2="280" y2="126.42857142857142" fill="rgb(0, 0, 0)" stroke="rgb(66, 66, 66)" stroke-width="1px" opacity="0.25"></line><line x1="0" y1="101.14285714285714" x2="280" y2="101.14285714285714" fill="rgb(0, 0, 0)" stroke="rgb(66, 66, 66)" stroke-width="1px" opacity="0.25"></line><line x1="0" y1="75.85714285714286" x2="280" y2="75.85714285714286" fill="rgb(0, 0, 0)" stroke="rgb(66, 66, 66)" stroke-width="1px" opacity="0.25"></line><line x1="0" y1="50.57142857142855" x2="280" y2="50.57142857142855" fill="rgb(0, 0, 0)" stroke="rgb(66, 66, 66)" stroke-width="1px" opacity="0.25"></line><line x1="0" y1="25.285714285714313" x2="280" y2="25.285714285714313" fill="rgb(0, 0, 0)" stroke="rgb(66, 66, 66)" stroke-width="1px" opacity="0.25"></line><line x1="0" y1="0" x2="280" y2="0" fill="rgb(0, 0, 0)" stroke="rgb(66, 66, 66)" stroke-width="1px" opacity="0.25"></line></g></g></g><g><g><line x1="0" y1="328.71428571428567" x2="280" y2="328.71428571428567" fill="rgb(0, 0, 0)" stroke="rgb(153, 153, 153)" stroke-width="1.5px"></line></g></g><g><g><line x1="23.333333333333332" y1="0" x2="23.333333333333332" y2="177" fill="rgb(0, 0, 0)" stroke="rgb(153, 153, 153)" stroke-width="1.5px"></line></g></g><g><g><g><g><g><path stroke="rgb(0, 119, 187)" stroke-width="2px" d="M29.166666666666668,-2.0159702817364415L30.333333333333336,3.369427527022445L31.5,9.398069953407749L32.666666666666664,15.561444142631501L33.833333333333336,21.631809968377606L35,27.3042825954358L36.16666666666667,33.370813726125206L37.333333333333336,38.29368766368554L38.5,43.36021410265582L39.666666666666664,47.314665156535106L40.833333333333336,49.97189658436096L42,54.4125369709868L43.16666666666667,58.30856667236028L44.33333333333333,61.72068830163374L45.5,65.04564537507852L46.666666666666664,68.87321129048735L47.833333333333336,72.09133505062631L49,73.91428174786456L50.166666666666664,77.2459399354725L51.33333333333333,79.79037449631423L52.5,82.63380221078268L53.66666666666667,84.40062392486199L54.833333333333336,86.99180226145245L56,89.39153518568807L57.166666666666664,91.17494948512127L58.333333333333336,92.94457288666231L59.5,94.9326387936763L60.66666666666667,96.42394741967342L61.83333333333333,98.00212080246013L63,99.77445854846246L64.16666666666666,101.45202318519027L65.33333333333333,102.94803475712085L66.5,104.2534814368939L67.66666666666667,105.63269306420986L68.83333333333333,107.05946129614775L70,108.36875721353802L71.16666666666666,109.46138863596497L72.33333333333334,110.54820416501657L73.5,111.48449902118189L74.66666666666667,112.65549449819288L75.83333333333333,113.92989695496142L77,114.57991696001463L78.16666666666667,115.79051571253497L79.33333333333333,116.85115392221869L80.5,116.00361293595938L81.66666666666667,117.55817832802214L82.83333333333333,118.13171040993356L84,119.42464439176882L85.16666666666666,120.49889806400445L86.33333333333334,121.15400631805441L87.5,121.61827487695344L88.66666666666666,122.38310160350552L89.83333333333334,123.34421486410278L91,123.97560427807865L92.16666666666667,124.73868781801782L93.33333333333333,125.42663693882488L94.5,126.05662835257586L95.66666666666667,126.46312031773274L96.83333333333333,127.15971393192906L98,127.82353987322168L99.16666666666667,128.3235135369483L100.33333333333333,128.85772631211697L101.5,128.68982412432374L102.66666666666666,129.1589769211013L103.83333333333334,129.59752527140031L105,130.41751459227044L106.16666666666666,130.49697820535923L107.33333333333334,131.2046356144474L108.5,131.21857497011322L109.66666666666667,132.23086060319872L110.83333333333333,132.57172033841414L112,133.40414335351758L113.16666666666667,133.98450678940415L114.33333333333333,134.32829987022757L115.5,135.09068245640344L116.66666666666667,135.84892026752797L117.83333333333333,136.39220582518746L119,136.251667238573L120.16666666666666,137.06051498831155L121.33333333333334,137.47976241389847L122.5,137.4560939492154L123.66666666666666,138.19305444572288L124.83333333333334,135.29676365656292L126,137.34654358337474L127.16666666666667,137.30260186805987L128.33333333333331,138.74402223135968L129.5,139.87251045937333L130.66666666666666,140.4786771045795L131.83333333333334,141.36243892522108L133,141.60149129261305L134.16666666666669,141.8547394004959L135.33333333333334,141.80757016192578L136.5,142.25166243804773L137.66666666666666,142.22430270182485L138.83333333333334,142.6207725259847L140,143.69532543226913L141.16666666666666,144.04405972670986L142.33333333333331,144.55923285925417L143.5,144.1847797052419L144.66666666666669,144.8643713092335L145.83333333333334,145.6352098045068L147,145.38084191255243L148.16666666666666,145.5558626645014L149.33333333333334,146.23767798247025L150.5,146.98794886019792L151.66666666666666,147.07499771103582L152.83333333333331,147.6439369623127L154,146.6216528818423L155.16666666666669,147.90110108884656L156.33333333333334,146.45201744984507L157.5,147.8233979944301L158.66666666666666,149.02099324999014L159.83333333333331,146.55577075495407L161,148.41119179393442L162.16666666666669,149.24913103994228L163.33333333333334,148.61797820952575L164.5,150.14515705107732L165.66666666666666,148.7788193689019L166.83333333333334,149.86489935656627L168,151.23191119226527L169.16666666666666,152.3117633810631L170.33333333333331,153.00666750717963L171.5,152.9137424849967L172.66666666666669,153.39840180503046L173.83333333333334,153.24126154336506L175,153.89471472593053L176.16666666666666,154.23569438546326L177.33333333333331,154.68978719015288L178.5,153.85154860078913L179.66666666666669,154.79712348496687L180.83333333333334,155.1430445511089L182,155.50129370683112L183.16666666666666,154.4918498324971L184.33333333333334,154.3312497555643L185.5,155.61280699913848L186.66666666666666,154.90248355730608L187.83333333333331,156.12528809330263L189,156.66009385496358L190.16666666666669,156.42681177834942L191.33333333333334,157.32005141348662L192.5,157.79339437756977L193.66666666666666,157.773927262441L194.83333333333331,157.2781938925053L196,156.33872775267412L197.16666666666669,157.4604291747433L198.33333333333334,157.18018017166816L199.5,157.81194550452722L200.66666666666666,158.2691472109783L201.83333333333334,158.45476364881992L203,158.10898598137786L204.16666666666666,159.36407799101133L205.33333333333331,158.5004056062305L206.5,158.14822335210891L207.66666666666669,159.83561655297635L208.83333333333334,159.94272191771722L210,161.01904574474435L211.16666666666666,161.11770986496143L212.33333333333331,161.8228048059354L213.5,161.8888309360493L214.66666666666669,162.24936622999942L215.83333333333334,162.72761129852688L217,160.67440066049434L218.16666666666666,161.62990380795475L219.33333333333334,162.02097365711566L220.5,160.60685810887904L221.66666666666666,160.61760066756915L222.83333333333331,161.3726456298702L224,162.52453621574733L225.16666666666669,163.2383440719668L226.33333333333334,162.90794956604387L227.5,162.62136396292124L228.66666666666666,163.56880612004053L229.83333333333331,164.12002363528333L231,162.645416272605L232.16666666666669,162.98033689860546L233.33333333333334,161.9491190329861L234.5,163.22405699925505L235.66666666666666,162.50300997687935L236.83333333333334,162.80613427788438L238,162.68550656694427L239.16666666666666,163.49511781863464L240.33333333333331,163.1042440454659L241.5,164.0913098577387L242.66666666666669,164.20774334725385L243.83333333333334,159.57729126929942L245,162.86602426038291L246.16666666666666,162.07934209556473L247.33333333333331,162.21835993524758L248.5,162.68262040919458L249.66666666666669,164.38451333569185L250.83333333333334,164.37039652048423L252,165.3166552050217L253.16666666666666,166.44745605369235L254.33333333333334,166.6577265809764L255.5,164.79571612780032" style="fill: none;" fill="none"></path></g><g><path stroke="rgb(255, 112, 67)" stroke-width="2px" d="M30.333333333333336,-3.7256089941893595L31.5,0.8018760569519447L32.666666666666664,5.4770254556058795L33.833333333333336,10.740268824780488L35,15.525757080375747L36.16666666666667,19.56857202622945L37.333333333333336,24.01790090522542L38.5,28.78389970774283L39.666666666666664,33.006283288584775L40.833333333333336,36.403269819006574L42,39.930052127618744L43.16666666666667,43.02491708543351L44.33333333333333,46.44799264751256L45.5,49.57613390501572L46.666666666666664,51.78356026440491L47.833333333333336,54.86717318929393L49,57.53408604578962L50.166666666666664,59.72836417018606L51.33333333333333,62.809688880230475L52.5,64.33488726904659L53.66666666666667,66.78742777787747L54.833333333333336,69.13741217270889L56,70.62385641738163L57.166666666666664,72.36118348793771L58.333333333333336,73.20555252861158L59.5,75.94376899612878L60.66666666666667,76.2852479456499L61.83333333333333,78.05303974167556L63,78.29508731314031L64.16666666666666,80.19542960938288L65.33333333333333,81.82630143520531L66.5,83.66301758434994L67.66666666666667,84.34742916415172L68.83333333333333,85.92006157806867L70,87.28300741918028L71.16666666666666,88.91359685674011L72.33333333333334,89.51108266277437L73.5,91.14496330693423L74.66666666666667,91.58103715179534L75.83333333333333,93.01595846218068L77,94.2330498523958L78.16666666666667,95.2901021718546L79.33333333333333,96.862013501435L80.5,97.00200218622852L81.66666666666667,97.97465088934588L82.83333333333333,99.45877794265856L84,100.49648425483946L85.16666666666666,101.37188657226798L86.33333333333334,102.57871967785644L87.5,103.97747235607437L88.66666666666666,104.89241886460745L89.83333333333334,105.35549150387546L91,107.07868209001069L92.16666666666667,107.20417925086747L93.33333333333333,108.28764971883803L94.5,108.29188375944918L95.66666666666667,107.31701587687662L96.83333333333333,108.56991503013467L98,109.50069141184697L99.16666666666667,110.19203326239574L100.33333333333333,111.18086206226756L101.5,111.96664600301168L102.66666666666666,112.40664113002053L103.83333333333334,112.85531785067423L105,114.26742285135433L106.16666666666666,114.73901463534263L107.33333333333334,115.59793459934913L108.5,116.28980954795263L109.66666666666667,117.40425026941662L110.83333333333333,118.55839054899432L112,118.04483838747153L113.16666666666667,118.337401236033L114.33333333333333,117.83970284756158L115.5,119.87646685504313L116.66666666666667,120.90171610393165L117.83333333333333,121.8119889579043L119,121.91691457350574L120.16666666666666,123.0600897225624L121.33333333333334,123.19357153918233L122.5,122.73367432527988L123.66666666666666,124.35783115319927L124.83333333333334,124.93106269414733L126,124.80667709370049L127.16666666666667,124.48827390791446L128.33333333333331,124.79240180632924L129.5,125.51462973447373L130.66666666666666,126.19812258741017L131.83333333333334,127.19308138287519L133,127.90861479450564L134.16666666666669,127.7401283877791L135.33333333333334,128.7444075761855L136.5,128.62660149276547L137.66666666666666,129.30066500457872L138.83333333333334,129.10760411574944L140,130.45366304830273L141.16666666666666,131.1722260781773L142.33333333333331,132.006682199074L143.5,132.20120628670557L144.66666666666669,132.87261678829356L145.83333333333334,133.2937538133195L147,132.63467297335112L148.16666666666666,133.45581082076475L149.33333333333334,133.95321391054094L150.5,134.63726208737637L151.66666666666666,134.68404680228065L152.83333333333331,135.25858466297458L154,135.13667688649937L155.16666666666669,136.02186005896698L156.33333333333334,136.83044760150958L157.5,137.11021229630092L158.66666666666666,139.06643249225417L159.83333333333331,138.8181120561043L161,138.8363406593915L162.16666666666669,139.56933942136777L163.33333333333334,140.616265323233L164.5,141.47178288402725L165.66666666666666,141.00842662940534L166.83333333333334,140.93457087621584L168,141.7443450154734L169.16666666666666,143.2460259150872L170.33333333333331,143.6402113919587L171.5,145.2318880915294L172.66666666666669,144.18366796729865L173.83333333333334,144.89603556284334L175,145.02689198393753L176.16666666666666,144.01485909238363L177.33333333333331,144.01183008168792L178.5,144.91820077990002L179.66666666666669,146.6684875575658L180.83333333333334,147.31726443951212L182,148.01655050456029L183.16666666666666,147.4922809927604L184.33333333333334,147.5850224827238L185.5,148.84655901995347L186.66666666666666,149.0333577466431L187.83333333333331,149.3745533202968L189,150.3525752291013L190.16666666666669,150.78382076241718L191.33333333333334,149.53311311681526L192.5,150.83044782396402L193.66666666666666,151.84424074191173L194.83333333333331,151.604656428855L196,151.83182653319236L197.16666666666669,152.38105646177684L198.33333333333334,152.54032911899418L199.5,154.30374872539647L200.66666666666666,154.06656523004554L201.83333333333334,154.54830401300336L203,155.21669593548145L204.16666666666666,155.2808538110491L205.33333333333331,156.15406025835492L206.5,156.24322072924915L207.66666666666669,156.42753125755465L208.83333333333334,157.93275212790226L210,158.7775400134662L211.16666666666666,158.14756044634046L212.33333333333331,159.11295826623697L213.5,159.01560293923873L214.66666666666669,161.2078892631509L215.83333333333334,160.46558474219054L217,159.2707465435892L218.16666666666666,160.7476574252402L219.33333333333334,161.36284924313415L220.5,160.98355782147382L221.66666666666666,161.19924666950783L222.83333333333331,162.08979886028408L224,161.63042057648104L225.16666666666669,162.60351231069532L226.33333333333334,163.8546592649376L227.5,164.0964505416656L228.66666666666666,163.800516297115L229.83333333333331,163.2400984617516L231,163.38465145457738L232.16666666666669,164.74958173087893L233.33333333333334,165.85121417519161L234.5,165.22201636462293L235.66666666666666,165.8873462653179L236.83333333333334,166.7898405469497L238,168.0703450657579L239.16666666666666,167.55592785838303L240.33333333333331,166.35347965950746L241.5,166.00326903306146L242.66666666666669,167.22209793967767L243.83333333333334,167.852283871599L245,168.36041993200743L246.16666666666666,168.03310204241936L247.33333333333331,168.98858081005287L248.5,169.03630816844182L249.66666666666669,170.81053918714997L250.83333333333334,170.08860336611076L252,169.98763494158285L253.16666666666666,170.68387027404268L254.33333333333334,172.1340848673675L255.5,170.91687667442267" style="fill: none;" fill="none"></path></g></g></g></g><g opacity="0.2"><g><g><g><path stroke="rgb(0, 119, 187)" stroke-width="2px" d="M28,-1.196782452719524L29.166666666666668,4.176193101065511L30.333333333333336,11.070632559912557L31.5,18.18788848604476L32.666666666666664,24.65122389793396L33.833333333333336,30.645595754895893L35,35.761542626789655L36.16666666666667,42.43759662764415L37.333333333333336,45.661924532481606L38.5,50.9500779083797L39.666666666666664,53.24169342858451L40.833333333333336,53.95586964062282L42,61.07161842073714L43.16666666666667,64.15162202290126L44.33333333333333,66.83835094315666L45.5,70.03277707099915L46.666666666666664,74.6143502507891L47.833333333333336,76.9184147971017L49,76.6486658028194L50.166666666666664,82.2433877502169L51.33333333333333,83.60700825282505L52.5,86.89893165656498L53.66666666666667,87.0508519751685L54.833333333333336,90.87856578826904L56,92.9911323615483L57.166666666666664,93.85006994860512L58.333333333333336,95.59900740214758L59.5,97.91473725863865L60.66666666666667,98.66091018063682L61.83333333333333,100.36938076359885L63,102.43296509129661L64.16666666666666,103.96837009702409L65.33333333333333,105.19205209187099L66.5,106.21165144443512L67.66666666666667,107.70151049750191L68.83333333333333,109.19961363928658L70,110.33270108699799L71.16666666666666,111.10033576829093L72.33333333333334,112.17842745780945L73.5,112.88894130502428L74.66666666666667,114.41198771340507L75.83333333333333,115.84150063991547L77,115.55494696753365L78.16666666666667,117.60641384124756L79.33333333333333,118.44211123670851L80.5,114.73230145658766L81.66666666666667,119.89002641609737L82.83333333333333,118.99200853279659L84,121.36404536451613L85.16666666666666,122.110278572355L86.33333333333334,122.13666869912828L87.5,122.31467771530151L88.66666666666666,123.53034169333321L89.83333333333334,124.78588475499834L91,124.9226883990424L92.16666666666667,125.88331312792641L93.33333333333333,126.45856062003544L94.5,127.00161547320229L95.66666666666667,127.07285826546806L96.83333333333333,128.20460435322354L98,128.8192787851606L99.16666666666667,129.0734740325383L100.33333333333333,129.65904547486986L101.5,128.43797084263394L102.66666666666666,129.86270611626762L103.83333333333334,130.25534779684884L105,131.64749857357572L106.16666666666666,130.61617362499237L107.33333333333334,132.26612172807967L108.5,131.23948400361198L109.66666666666667,133.749289052827L110.83333333333333,133.0830099412373L112,134.65277787617276L113.16666666666667,134.85505194323403L114.33333333333333,134.8439894914627L115.5,136.2342563356672L116.66666666666667,136.98627698421478L117.83333333333333,137.20713416167666L119,136.0408593586513L120.16666666666666,138.2737866129194L121.33333333333334,138.10863355227877L122.5,137.42059125219072L123.66666666666666,139.29849519048418L124.83333333333334,130.95232747282301L126,140.4212134735925L127.16666666666667,137.23668929508756L128.33333333333331,140.90615277630943L129.5,141.56524280139377L130.66666666666666,141.38792707238878L131.83333333333334,142.6880816561835L133,141.96006984370095L134.16666666666669,142.23461156232017L135.33333333333334,141.7368163040706L136.5,142.9178008522306L137.66666666666666,142.18326309749057L138.83333333333334,143.21547726222445L140,145.30715479169572L141.16666666666666,144.56716116837094L142.33333333333331,145.3319925580706L143.5,143.62309997422355L144.66666666666669,145.88375871522086L145.83333333333334,146.7914675474167L147,144.99929007462094L148.16666666666666,145.8183937924249L149.33333333333334,147.2604009594236L150.5,148.1133551767894L151.66666666666666,147.2055709872927L152.83333333333331,148.49734583922793L154,145.08822676113675L155.16666666666669,149.82027339935303L156.33333333333334,144.2783919913428L157.5,149.88046881130765L158.66666666666666,150.8173861333302L159.83333333333331,142.85793701239993L161,151.194323352405L162.16666666666669,150.50603990895408L163.33333333333334,147.67124896390098L164.5,152.43592531340462L165.66666666666666,146.72931284563882L166.83333333333334,151.49401933806283L168,153.28242894581388L169.16666666666666,153.93154166425975L170.33333333333331,154.04902369635445L171.5,152.77435495172227L172.66666666666669,154.12539078508104L173.83333333333334,153.00555115086692L175,154.87489449977875L176.16666666666666,154.74716387476238L177.33333333333331,155.37092639718736L178.5,152.59419071674347L179.66666666666669,156.21548581123352L180.83333333333334,155.66192615032196L182,156.03866744041443L183.16666666666666,152.9776840209961L184.33333333333334,154.09034964016507L185.5,157.5351428644998L186.66666666666666,153.8369983945574L187.83333333333331,157.95949489729745L189,157.46230249745506L190.16666666666669,156.07688866342815L191.33333333333334,158.6599108661924L192.5,158.50340882369449L193.66666666666666,157.74472658974784L194.83333333333331,156.5345938376018L196,154.92952854292733L197.16666666666669,159.14298130784715L198.33333333333334,156.7598066670554L199.5,158.75959350381578L200.66666666666666,158.95494977065493L201.83333333333334,158.7331883055823L203,157.59031948021482L204.16666666666666,161.24671600546154L205.33333333333331,157.20489702905925L206.5,157.61994997092654L207.66666666666669,162.36670635427745L208.83333333333334,160.1033799648285L210,162.63353148528506L211.16666666666666,161.26570604528698L212.33333333333331,162.88044721739632L213.5,161.98787013122012L214.66666666666669,162.7901691709246L215.83333333333334,163.44497890131814L217,157.59458470344543L218.16666666666666,163.06315852914537L219.33333333333334,162.60757843085696L220.5,158.48568478652408L221.66666666666666,160.63371450560433L222.83333333333331,162.50521307332176L224,164.25237209456307L225.16666666666669,164.309055856296L226.33333333333334,162.41235780715942L227.5,162.19148555823733L228.66666666666666,164.9899693557194L229.83333333333331,164.94684990814756L231,160.43350522858756L232.16666666666669,163.48271783760617L233.33333333333334,160.402292234557L234.5,165.13646394865853L235.66666666666666,161.42143944331576L236.83333333333334,163.2608207293919L238,162.50456500053406L239.16666666666666,164.70953469617027L240.33333333333331,162.51793338571275L241.5,165.57190857614788L242.66666666666669,164.3823935815266L243.83333333333334,152.63161315236772L245,167.79912374700817L246.16666666666666,160.89931884833743L247.33333333333331,162.4268866947719L248.5,163.37901112011502L249.66666666666669,166.9373527254377L250.83333333333334,164.3492212976728L252,166.73604323182786L253.16666666666666,168.1436573266983L254.33333333333334,166.97313237190247L255.5,162.0027004480362" style="fill: none;" fill="none"></path></g><g><path stroke="rgb(255, 112, 67)" stroke-width="2px" d="M29.166666666666668,-3.130601508276775L30.333333333333336,2.281770842415954L31.5,7.402992725372334L32.666666666666664,12.371962717601237L33.833333333333336,18.5555718285697L35,22.660585437502196L36.16666666666667,25.610793624605467L37.333333333333336,30.677366392953065L38.5,35.92356082371303L39.666666666666664,39.33489540645056L40.833333333333336,41.49635379655021L42,45.21873317446028L43.16666666666667,47.66642873627799L44.33333333333333,51.58208451952254L45.5,54.26805986676898L46.666666666666664,55.09457874298096L47.833333333333336,59.492491109030595L49,61.53440267699107L50.166666666666664,63.019755363464355L51.33333333333333,67.43165404456003L52.5,66.62267834799631L53.66666666666667,70.46623226574489L54.833333333333336,72.66238515717643L56,72.8535214151655L57.166666666666664,74.96717313357762L58.333333333333336,74.47210580962044L59.5,80.05109315259116L60.66666666666667,76.79746632916587L61.83333333333333,80.70472730909076L63,78.658158659935L64.16666666666666,83.0459430047444L65.33333333333333,84.2726091487067L66.5,86.41809179101672L67.66666666666667,85.37404653004238L68.83333333333333,88.27901019368853L70,89.32742617811476L71.16666666666666,91.35948101111822L72.33333333333334,90.40731137139457L73.5,93.59578427246639L74.66666666666667,92.23514791897365L75.83333333333333,95.16834042753493L77,96.05868693760463L78.16666666666667,96.87568065098354L79.33333333333333,99.2198804957526L80.5,97.21198521341597L81.66666666666667,99.43362394401005L82.83333333333333,101.6849685226168L84,102.05304372310638L85.16666666666666,102.68499004840851L86.33333333333334,104.38896933623722L87.5,106.0756013734L88.66666666666666,106.26483862740653L89.83333333333334,106.05010046277727L91,109.66346796921322L92.16666666666667,107.39242499215263L93.33333333333333,109.9128554207938L94.5,108.2982348203659L95.66666666666667,105.85471405301774L96.83333333333333,110.44926376002175L98,110.89685598441532L99.16666666666667,111.22904603821891L100.33333333333333,112.66410526207515L101.5,113.14532191412789L102.66666666666666,113.06663382053375L103.83333333333334,113.5283329316548L105,116.38558035237449L106.16666666666666,115.44640231132507L107.33333333333334,116.88631454535893L108.5,117.32762197085789L109.66666666666667,119.07591135161263L110.83333333333333,120.2896009683609L112,117.27451014518738L113.16666666666667,118.77624550887516L114.33333333333333,117.09315526485443L115.5,122.93161286626543L116.66666666666667,122.4395899772644L117.83333333333333,123.17739823886326L119,122.07430299690792L120.16666666666666,124.77485244614738L121.33333333333334,123.3937942641122L122.5,122.04382850442613L123.66666666666666,126.79406639507839L124.83333333333334,125.79091000556946L126,124.62009869303023L127.16666666666667,124.0106691292354L128.33333333333331,125.24859365395137L129.5,126.59797162669045L130.66666666666666,127.22336186681474L131.83333333333334,128.6855195760727L133,128.98191491195132L134.16666666666669,127.48739877768925L135.33333333333334,130.25082635879517L136.5,128.44989236763547L137.66666666666666,130.31176027229856L138.83333333333334,128.81801278250558L140,132.47275144713265L141.16666666666666,132.2500706229891L142.33333333333331,133.25836638041903L143.5,132.49299241815294L144.66666666666669,133.87973254067558L145.83333333333334,133.92545935085843L147,131.64605171339852L148.16666666666666,134.68751759188515L149.33333333333334,134.69931854520524L150.5,135.6633343526295L151.66666666666666,134.75422387463706L152.83333333333331,136.12039145401548L154,134.9538152217865L155.16666666666669,137.34963481766837L156.33333333333334,138.0433289153235L157.5,137.52985933848788L158.66666666666666,142.00076278618405L159.83333333333331,138.44563140187944L161,138.86368356432232L162.16666666666669,140.66883756433214L163.33333333333334,142.18665417603086L164.5,142.75505922521862L165.66666666666666,140.3133922474725L166.83333333333334,140.8237872464316L168,142.95900622435977L169.16666666666666,145.49854726450783L170.33333333333331,144.231489607266L171.5,147.61940314088548L172.66666666666669,142.61133778095245L173.83333333333334,145.9645869561604L175,145.22317661557878L176.16666666666666,142.49680975505282L177.33333333333331,144.0072865656444L178.5,146.27775682721818L179.66666666666669,149.2939177240644L180.83333333333334,148.29042976243156L182,149.06547960213254L183.16666666666666,146.7058767250606L184.33333333333334,147.7241347176688L185.5,150.73886382579803L186.66666666666666,149.31355583667755L187.83333333333331,149.8863466807774L189,151.81960809230804L190.16666666666669,151.43068906239102L191.33333333333334,147.65705164841245L192.5,152.77644988468717L193.66666666666666,153.36493011883329L194.83333333333331,151.24527995926994L196,152.17258168969835L197.16666666666669,153.2049013546535L198.33333333333334,152.77923810482025L199.5,156.94887813499997L200.66666666666666,153.71078998701913L201.83333333333334,155.27091218744005L203,156.2192838191986L204.16666666666666,155.37709062440055L205.33333333333331,157.46386992931366L206.5,156.3769614355905L207.66666666666669,156.70399705001284L208.83333333333334,160.19058343342374L210,160.04472184181213L211.16666666666666,157.20259109565188L212.33333333333331,160.56105499608177L213.5,158.86956994874137L214.66666666666669,164.49631874901908L215.83333333333334,159.35212796075004L217,157.47848924568723L218.16666666666666,162.96302374771665L219.33333333333334,162.28563696997506L220.5,160.41462068898338L221.66666666666666,161.52277994155884L222.83333333333331,163.4256271464484L224,160.94135315077645L225.16666666666669,164.0631499120167L226.33333333333334,165.73137969630105L227.5,164.45913745675767L228.66666666666666,163.3566149302891L229.83333333333331,162.39947170870644L231,163.60148094381603L232.16666666666669,166.79697714533123L233.33333333333334,167.50366284166063L234.5,164.27821964876992L235.66666666666666,166.88534111636025L236.83333333333334,168.1435819693974L238,169.99110184397014L239.16666666666666,166.78430204732078L240.33333333333331,164.54980736119407L241.5,165.4779530933925L242.66666666666669,169.05034129960194L243.83333333333334,168.7975627694811L245,169.12262402262004L246.16666666666666,167.54212520803722L247.33333333333331,170.42179896150316L248.5,169.10789920602525L249.66666666666669,173.47188571521212L250.83333333333334,169.005699634552L252,169.83618230479104L253.16666666666666,171.72822327273232L254.33333333333334,174.30940675735474L255.5,169.09106438500538" style="fill: none;" fill="none"></path></g></g></g></g></g></g><g transform="translate(50, 177)" clip-path="url(#clip_1)"><clipPath id="clip_1"><rect width="280" height="22"></rect></clipPath><g><g><line x1="0" y1="0" x2="0" y2="5" style="visibility: inherit;" fill="rgb(0, 0, 0)" stroke="rgb(204, 204, 204)" stroke-width="1px"></line><line x1="23.333333333333332" y1="0" x2="23.333333333333332" y2="5" style="visibility: inherit;" fill="rgb(0, 0, 0)" stroke="rgb(204, 204, 204)" stroke-width="1px"></line><line x1="46.666666666666664" y1="0" x2="46.666666666666664" y2="5" style="visibility: inherit;" fill="rgb(0, 0, 0)" stroke="rgb(204, 204, 204)" stroke-width="1px"></line><line x1="70" y1="0" x2="70" y2="5" style="visibility: inherit;" fill="rgb(0, 0, 0)" stroke="rgb(204, 204, 204)" stroke-width="1px"></line><line x1="93.33333333333333" y1="0" x2="93.33333333333333" y2="5" style="visibility: inherit;" fill="rgb(0, 0, 0)" stroke="rgb(204, 204, 204)" stroke-width="1px"></line><line x1="116.66666666666667" y1="0" x2="116.66666666666667" y2="5" style="visibility: inherit;" fill="rgb(0, 0, 0)" stroke="rgb(204, 204, 204)" stroke-width="1px"></line><line x1="140" y1="0" x2="140" y2="5" style="visibility: inherit;" fill="rgb(0, 0, 0)" stroke="rgb(204, 204, 204)" stroke-width="1px"></line><line x1="163.33333333333334" y1="0" x2="163.33333333333334" y2="5" style="visibility: inherit;" fill="rgb(0, 0, 0)" stroke="rgb(204, 204, 204)" stroke-width="1px"></line><line x1="186.66666666666666" y1="0" x2="186.66666666666666" y2="5" style="visibility: inherit;" fill="rgb(0, 0, 0)" stroke="rgb(204, 204, 204)" stroke-width="1px"></line><line x1="210" y1="0" x2="210" y2="5" style="visibility: inherit;" fill="rgb(0, 0, 0)" stroke="rgb(204, 204, 204)" stroke-width="1px"></line><line x1="233.33333333333334" y1="0" x2="233.33333333333334" y2="5" style="visibility: inherit;" fill="rgb(0, 0, 0)" stroke="rgb(204, 204, 204)" stroke-width="1px"></line><line x1="256.66666666666663" y1="0" x2="256.66666666666663" y2="5" style="visibility: inherit;" fill="rgb(0, 0, 0)" stroke="rgb(204, 204, 204)" stroke-width="1px"></line><line x1="280" y1="0" x2="280" y2="5" style="visibility: inherit;" fill="rgb(0, 0, 0)" stroke="rgb(204, 204, 204)" stroke-width="1px"></line></g><g transform="translate(0, 8)"><text x="0" y="0" dx="0em" dy="0.95em" style="text-anchor: middle; visibility: hidden; font-family: Roboto, sans-serif; font-size: 12px; font-weight: 200;" fill="rgb(33, 33, 33)" stroke="none" stroke-width="1px">-20</text><text x="23.333333333333332" y="0" dx="0em" dy="0.95em" style="text-anchor: middle; visibility: inherit; font-family: Roboto, sans-serif; font-size: 12px; font-weight: 200;" fill="rgb(33, 33, 33)" stroke="none" stroke-width="1px">0</text><text x="46.666666666666664" y="0" dx="0em" dy="0.95em" style="text-anchor: middle; visibility: hidden; font-family: Roboto, sans-serif; font-size: 12px; font-weight: 200;" fill="rgb(33, 33, 33)" stroke="none" stroke-width="1px">20</text><text x="70" y="0" dx="0em" dy="0.95em" style="text-anchor: middle; visibility: inherit; font-family: Roboto, sans-serif; font-size: 12px; font-weight: 200;" fill="rgb(33, 33, 33)" stroke="none" stroke-width="1px">40</text><text x="93.33333333333333" y="0" dx="0em" dy="0.95em" style="text-anchor: middle; visibility: hidden; font-family: Roboto, sans-serif; font-size: 12px; font-weight: 200;" fill="rgb(33, 33, 33)" stroke="none" stroke-width="1px">60</text><text x="116.66666666666667" y="0" dx="0em" dy="0.95em" style="text-anchor: middle; visibility: inherit; font-family: Roboto, sans-serif; font-size: 12px; font-weight: 200;" fill="rgb(33, 33, 33)" stroke="none" stroke-width="1px">80</text><text x="140" y="0" dx="0em" dy="0.95em" style="text-anchor: middle; visibility: hidden; font-family: Roboto, sans-serif; font-size: 12px; font-weight: 200;" fill="rgb(33, 33, 33)" stroke="none" stroke-width="1px">100</text><text x="163.33333333333334" y="0" dx="0em" dy="0.95em" style="text-anchor: middle; visibility: inherit; font-family: Roboto, sans-serif; font-size: 12px; font-weight: 200;" fill="rgb(33, 33, 33)" stroke="none" stroke-width="1px">120</text><text x="186.66666666666666" y="0" dx="0em" dy="0.95em" style="text-anchor: middle; visibility: hidden; font-family: Roboto, sans-serif; font-size: 12px; font-weight: 200;" fill="rgb(33, 33, 33)" stroke="none" stroke-width="1px">140</text><text x="210" y="0" dx="0em" dy="0.95em" style="text-anchor: middle; visibility: inherit; font-family: Roboto, sans-serif; font-size: 12px; font-weight: 200;" fill="rgb(33, 33, 33)" stroke="none" stroke-width="1px">160</text><text x="233.33333333333334" y="0" dx="0em" dy="0.95em" style="text-anchor: middle; visibility: hidden; font-family: Roboto, sans-serif; font-size: 12px; font-weight: 200;" fill="rgb(33, 33, 33)" stroke="none" stroke-width="1px">180</text><text x="256.66666666666663" y="0" dx="0em" dy="0.95em" style="text-anchor: middle; visibility: inherit; font-family: Roboto, sans-serif; font-size: 12px; font-weight: 200;" fill="rgb(33, 33, 33)" stroke="none" stroke-width="1px">200</text><text x="280" y="0" dx="0em" dy="0.95em" style="text-anchor: middle; visibility: hidden; font-family: Roboto, sans-serif; font-size: 12px; font-weight: 200;" fill="rgb(33, 33, 33)" stroke="none" stroke-width="1px">220</text></g><line x1="0" y1="0" x2="280" y2="0" fill="rgb(0, 0, 0)" stroke="rgb(204, 204, 204)" stroke-width="1px"></line></g></g></g></g></svg>